<svg width="480" height="597" viewBox="0 0 480 597" fill="none" xmlns="http://www.w3.org/2000/svg">
<path d="M1637.61 585.318C1641.05 584.853 1644.55 584.483 1647.91 583.893C1650.48 583.44 1652.27 582.46 1651.93 580.803C1651.62 579.235 1649.16 579.405 1647.27 579.252C1643.75 578.964 1640.18 578.839 1636.65 578.56C1634.16 578.366 1633.93 577.051 1633 576.116L1633.37 576.266L1629.66 574.412L1630.23 574.659C1626.55 574.806 1621.26 573.534 1622.05 577.563C1622.17 578.216 1621.03 579.178 1619.95 579.621C1616.66 580.953 1613.25 582.186 1609.71 583.314C1608.57 583.688 1606.48 584.07 1605.74 583.774C1604.28 583.191 1605.34 582.465 1606.55 581.847C1608.42 580.892 1610.34 579.905 1611.72 578.748C1614.84 576.138 1613.17 570.749 1608.13 569.432C1602.93 568.073 1599.85 564.08 1592.35 565.471C1587.94 562.697 1578.86 565.117 1575.41 560.984C1575.03 560.536 1571.55 560.984 1569.59 560.772C1565.99 560.408 1564.98 559.662 1568.92 558.556C1570.85 558.015 1570.01 557.387 1569.45 556.547C1568.44 555.046 1570.17 554.649 1572.62 554.871C1573.12 554.947 1573.58 555.097 1573.93 555.304C1577.5 557.195 1581.08 556.144 1583.44 554.75C1585.59 553.49 1581.21 552.042 1583.34 550.24C1575.28 550.393 1569.1 551.811 1562.81 553.076C1559.49 553.744 1556.01 554.657 1552.57 553.273C1552.75 553.564 1553.09 553.854 1553.02 554.093C1551.43 558.162 1544.74 560.476 1537.62 559.423C1537.22 559.361 1536.64 559.081 1536.63 558.901C1536.63 558.389 1536.58 557.768 1537.08 557.382C1538.71 556.077 1541.43 556.104 1543.92 556.008C1547.63 555.863 1551.01 555.469 1552.88 553.456C1552.96 553.187 1552.97 552.914 1552.92 552.643C1551.78 550.346 1553.37 548.517 1554.89 545.807C1556.22 543.426 1559.93 541.11 1557.65 538.289L1558.06 538.404C1554.98 537.146 1555.79 533.993 1550.27 533.875C1544.3 533.749 1548.15 530.958 1546.88 529.525C1545.49 527.944 1549.26 527.669 1551.66 527.346C1555.11 526.888 1558.5 526.421 1562.08 526.95C1563.54 527.167 1565.34 527.103 1566.03 526.251C1567.16 524.865 1564.81 524.417 1563.24 523.897C1561.39 523.284 1560.07 522.573 1560.29 521.305C1554.85 521.608 1549.42 521.825 1543.98 522.25C1540.45 522.543 1536.85 522.214 1533.69 521.312C1533.12 521.155 1532.92 520.483 1532.78 520.03C1532.74 519.862 1533.4 519.501 1533.8 519.471C1535.77 519.316 1538.09 519.567 1539.68 519.085C1545.83 517.228 1551.07 518.1 1556.22 520.19C1557.42 520.682 1558.91 520.953 1560.26 521.325C1558.72 518.558 1562.81 518.139 1565.92 517.268C1569.35 516.305 1572.16 517.228 1574.3 518.38C1577.15 519.922 1579.28 521.842 1581.93 523.506C1582.41 523.816 1583.87 523.804 1584.83 523.737C1586.75 523.599 1587.39 522.669 1587.09 521.879C1586.16 519.466 1586.92 516.391 1580.15 515.953C1578.55 515.85 1577.11 515.389 1577.05 514.442C1576.96 512.881 1579.44 512.911 1581.35 512.689C1582.71 512.531 1583.24 512.231 1582.66 511.229C1575.82 511.254 1568.73 511.283 1561.64 511.298C1559.58 511.298 1557.51 511.328 1555.47 511.224C1552.48 511.072 1550.88 510.188 1551.05 508.47C1551.18 507.121 1552.58 506.471 1554.88 506.365C1559.51 506.153 1564.15 505.872 1568.78 505.855C1572.63 505.831 1575.82 505.117 1578.97 503.898C1574.92 501.126 1569.45 503.849 1564.25 502.579C1567.22 500.902 1570.84 501.742 1573.79 501.362C1576.75 500.983 1579.64 500.624 1581.83 500.343C1580.9 499.782 1580.05 499.183 1579.28 498.551C1579.18 498.453 1580.42 497.638 1581.04 497.638C1589.44 497.621 1597.05 495.819 1607.7 494.327C1598.4 494.061 1591.76 493.881 1585.14 493.677C1583.78 493.635 1583.15 493.204 1583.52 492.572C1583.81 492.079 1584.16 491.341 1584.85 491.178C1593 489.352 1601.51 488.239 1610.41 488.458C1615.39 488.579 1618.4 487.833 1618.11 484.743C1618.04 484.005 1618.83 483.163 1621.07 483.83C1625.98 485.307 1627.28 483.025 1628.97 481.368C1629.38 480.859 1629.43 480.283 1629.1 479.756C1628.55 478.901 1627.41 478.557 1625.54 478.862C1620.56 479.679 1615.5 480.435 1610.69 478.542L1610.27 478.744C1612.88 477.237 1616.18 476.553 1619.9 476.361C1622.82 476.211 1624.35 475.541 1624.46 473.744C1624.55 472.188 1626.06 471.487 1629.59 471.878C1633.98 472.37 1635.43 470.074 1636.87 468.432C1637.92 467.235 1632.72 464.884 1629.74 464.919C1626.17 464.961 1623.21 467.28 1619.57 466.073C1615.7 464.791 1612.33 463.065 1608.75 461.517C1608.37 461.34 1608.08 461.119 1607.89 460.872C1607.17 460.032 1607.32 459.001 1608.79 458.747C1613.7 457.903 1618.76 457.376 1623.97 457.762C1627.38 458.009 1625.52 459.215 1625.4 460.163C1625.37 460.409 1627.18 460.987 1627.3 460.926C1632.41 458.279 1639.95 457.514 1644.4 454.377C1646.55 452.861 1645.47 450.193 1642.49 450.392C1634.52 450.941 1632.23 446.268 1625.85 445.55C1625.65 445.527 1626.02 444.026 1626.12 443.213C1622.61 443.093 1621.49 445.323 1618.42 445.537C1617.96 445.546 1617.51 445.497 1617.09 445.394C1616.68 445.291 1616.31 445.137 1616.02 444.944C1615.57 444.543 1615.33 443.713 1615.78 443.418C1616.63 442.859 1617.99 442.273 1619.23 442.202C1621.63 442.061 1623.19 444.018 1626.09 443.186C1626.99 443.152 1628.64 443.209 1628.71 443.066C1630.15 439.715 1630.94 436.441 1622.89 435.065C1625.06 432.719 1629.48 431.818 1630.83 429.044C1632.18 426.269 1636.98 423.982 1643.01 423.276C1645.16 423.03 1646.81 422.498 1647.12 421.191L1647.43 421.393C1644.93 421.319 1641.78 421.983 1640.18 420.782C1638.79 419.746 1637.81 418.059 1638.29 416.856C1639.47 413.901 1639.8 410.733 1644.57 408.468C1650 405.896 1650.12 401.209 1656.93 399.055C1657.83 398.769 1657.26 397.331 1658.12 396.736C1661.94 394.121 1656.53 390.751 1660.93 388.12C1664.7 385.862 1667.63 383.196 1671.17 380.815C1672.93 379.636 1673.13 378.405 1673.5 376.985C1674.4 373.494 1676.88 372.864 1682.8 374.225C1684.16 374.538 1685.31 375.166 1686.69 375.37C1687.3 375.459 1688.34 374.895 1689.01 374.533C1689.28 374.388 1689.17 373.992 1689.11 373.716C1689.05 373.44 1688.96 373.012 1688.66 372.958C1680.84 371.434 1680.82 367.768 1679.97 364.154C1679.15 360.696 1674.43 358.16 1671.15 355.344C1668.72 353.259 1670.24 352.562 1673.09 351.405C1677.8 349.507 1677.94 348.845 1673.89 347.117C1671.06 345.91 1668.21 344.817 1666.78 342.976C1665.77 341.674 1666.84 340.583 1669.31 340.79C1673.17 341.112 1674.56 340.051 1672.93 338.629C1670.33 336.364 1669.39 334.69 1674.06 332.966C1675.7 332.361 1674.2 331.489 1673.68 330.751C1672.51 329.106 1670.44 328.031 1667.64 327.112C1665.1 326.28 1664.98 324.968 1667.02 323.592C1668.93 322.31 1671.16 321.034 1670.86 319.198C1669.75 317.59 1666.64 317.743 1664.62 316.982C1658.93 314.821 1658.99 314.082 1665.36 312.15C1666.72 311.736 1668.34 311.446 1667.42 310.382C1667.2 310.15 1666.9 309.943 1666.53 309.774C1666.17 309.605 1665.74 309.477 1665.28 309.398C1660.27 308.792 1655.21 308.324 1650.19 307.738C1645.27 307.165 1639.08 307.273 1635.87 305.661C1632.8 304.12 1629.32 302.505 1626.5 300.843C1627.73 298.529 1635.13 300.309 1634 297.581C1633.23 295.733 1628.62 296.717 1625.73 296.688C1619.54 296.624 1613.96 294.91 1607.38 295.272C1603.86 295.467 1599.58 293.926 1596.29 292.663C1590.67 290.494 1584.61 289.416 1577.92 288.591C1570.22 287.643 1562.22 287.013 1555.77 283.591C1551.7 281.435 1547.71 280.273 1552.3 277.097C1552.67 276.851 1551.73 276.078 1551.61 275.539C1550.99 272.713 1552.1 272.469 1556.38 272.038C1561.55 271.514 1562.91 274.662 1567.17 274.662L1567.27 274.697C1569.23 274.404 1571.16 274.005 1573.16 273.852C1574.62 273.739 1576.83 273.621 1577.58 274.067C1583.95 277.892 1594.86 274.899 1601.07 278.783L1600.67 278.589C1608.41 279.574 1615.36 277.016 1623.17 277.225C1630.01 277.407 1636.99 275.994 1643.9 275.268C1644.13 275.243 1644.23 274.852 1644.4 274.613C1642.22 272.951 1637.82 273.284 1636.12 273.601C1629.13 274.911 1628.2 272.466 1626.71 270.012C1626.59 269.81 1625.88 269.712 1625.42 269.557C1623.02 271.543 1619.66 272.73 1615.3 272.959C1613.22 273.07 1611.07 272.841 1610.62 271.509C1610.25 270.413 1612.12 270.16 1613.56 270.098C1617.66 269.928 1621.78 269.882 1625.9 269.783C1625.56 268.232 1624.31 267.075 1621.17 267.011C1616.04 266.918 1610.89 266.974 1605.77 266.854C1604.96 266.834 1603.73 266.263 1603.56 265.844C1603.4 265.426 1604.26 264.614 1604.92 264.518C1608.39 264.005 1611.91 263.447 1615.46 263.309C1628.9 262.789 1642.37 262.457 1655.81 261.987C1665.09 261.664 1674.42 261.741 1683.48 260.077C1687.29 259.377 1691.74 259.338 1695.82 259.523C1704.19 259.904 1712.31 259.178 1722.09 258.292C1714.87 257.265 1709 257.767 1703.23 257.607C1698.74 257.484 1694.41 258.014 1690.32 255.805C1687 254.008 1681.4 255.237 1676.83 254.991C1671.56 254.707 1666.24 254.112 1667.05 250.099C1667.25 249.08 1666.25 248.814 1664.69 248.46C1656.04 246.49 1646.97 246.463 1637.78 246.244C1641.76 245.998 1645.75 245.791 1649.71 245.476C1651.32 245.348 1652.17 244.782 1651.68 243.79C1650.32 241.045 1650.65 240.636 1654.43 240.762C1663.71 241.067 1673 241.672 1683.42 240.806C1676.74 238.566 1670.46 238.26 1663.94 238.174C1645.37 237.928 1626.83 237.517 1606.24 237.135C1609.87 236.382 1612.42 236.286 1613.06 235.634C1614.65 234.019 1615.61 232.741 1619.91 232.608C1629.13 232.325 1638.66 233.509 1647.54 231.185C1653.97 232.887 1660.76 231.821 1667.39 231.887C1669.96 231.939 1672.54 231.764 1675.01 231.368C1677.27 230.964 1680.24 231.52 1681.97 230.092C1676.83 229.703 1671.82 229.169 1666.76 228.972C1653.47 228.455 1640.32 226.57 1626.8 228.534C1620.91 229.391 1614.46 229.317 1605.74 227.965C1618.91 226.764 1629.69 225.651 1640.54 224.839C1647.24 224.347 1654 224.256 1659.49 221.676C1661.11 220.917 1665.49 221.762 1664.36 219.5C1663.78 218.33 1661.09 218.345 1659.04 218.296C1656.45 218.237 1653.85 218.155 1651.26 218.187C1645.49 218.259 1639.9 218.187 1635.16 215.928C1632.66 214.741 1629.4 214.874 1626.24 214.943C1625.75 214.943 1624.71 214.19 1624.8 213.852C1624.9 213.592 1625.11 213.346 1625.41 213.134C1625.7 212.921 1626.08 212.746 1626.52 212.621C1630.92 211.637 1635.45 211.075 1640.04 212.304C1652.33 215.585 1665.29 213.985 1678.09 214.044C1675.05 212.198 1671.01 212.634 1667.34 212.333C1662.43 211.932 1656.96 212.641 1653.84 209.399C1652.63 208.153 1649.18 208.466 1646.59 208.38C1642.51 208.242 1638.44 208.057 1632 207.799C1639.32 205.337 1643.78 202.646 1650.88 202.491C1652.29 202.462 1654.15 202.339 1653.66 201.177C1653.48 200.761 1652.26 200.177 1651.52 200.177C1643.89 200.177 1638.11 197.624 1631.69 196.032C1631.73 196.032 1632.24 196.524 1632.24 196.524L1632.06 196.17C1633.53 194.2 1636.84 194.107 1639.82 194.254C1656.82 195.099 1673.72 193.73 1690.67 193.671C1691.58 193.671 1692.48 193.24 1693.79 192.91C1690.71 191.401 1687.23 192.078 1684.08 192.172C1675.32 192.418 1666.57 192.531 1657.93 191.598C1655.21 191.303 1653.33 190.416 1654.73 188.664C1652.47 189.323 1650.14 189.895 1647.99 190.633C1643.87 192.034 1639.53 192.265 1634.92 191.618C1633.52 191.421 1631.65 191.263 1632.37 190.249C1632.82 189.582 1634.86 188.58 1635.54 188.713C1641.88 190.003 1648.27 187.236 1654.53 188.824C1656.12 188.127 1660.75 187.861 1656 186.217C1654.46 185.685 1652 186.163 1650.72 185.055C1652.91 183.363 1656.23 183.895 1659.18 183.861C1667.48 183.76 1675.78 183.799 1684.09 183.674C1688.37 183.607 1692.41 183.386 1690.91 179.89C1690.46 178.792 1692.98 178.167 1695.3 178.167C1702.05 178.132 1708.8 178.073 1715.54 177.99C1717.53 177.962 1719.5 177.81 1721.07 177.743C1723.21 176.138 1720.62 175.451 1720.03 174.491C1718.89 172.665 1717.98 170.843 1713.36 170.592C1710.32 170.429 1707.35 169.77 1704.4 169.238C1702.96 168.992 1700.82 168.674 1700.43 168.101C1696.74 162.749 1687.5 161.139 1679.57 158.623C1678.81 158.377 1677.98 157.749 1678.03 157.328C1678.16 156.269 1679.9 156.186 1681.36 156.299C1685.3 156.612 1688.55 156.218 1690.63 154.162C1691.12 153.67 1692.06 153.342 1692.67 152.89C1696.25 150.214 1698.8 146.538 1703.62 145.11C1708.6 143.633 1715.78 144.389 1721.98 144.059C1726.11 143.838 1730.21 143.449 1734.3 143.074C1735.8 142.939 1737.56 142.735 1737.76 141.728C1737.97 140.657 1736.27 140.578 1734.82 140.386C1718.64 138.264 1702.2 137.129 1685.63 136.371C1684.6 136.318 1683.56 136.297 1682.52 136.307C1677.93 136.369 1674.37 135.455 1672.66 133.033C1670.91 130.571 1673.04 128.07 1678.55 126.039C1680.25 125.411 1682.18 124.966 1683.8 124.289C1684.32 124.075 1684.53 123.046 1684.25 122.962C1677.14 120.714 1683.1 116.012 1678.12 113.403C1678.63 110.018 1678.42 106.717 1676.31 103.426C1673.46 98.9279 1670.99 94.3516 1668.72 89.7579C1667.97 88.2563 1666.45 87.3676 1664.37 86.4715C1656.74 83.1752 1652.14 78.9706 1651.27 73.5769C1650.85 71.3296 1650 69.1122 1648.74 66.9597C1643.36 57.4524 1631.6 52.2556 1613.34 52.4551C1596.99 52.6323 1581.44 50.8771 1565.9 48.6024C1563.91 48.3095 1561.95 47.7137 1559.96 47.6965C1527.13 47.4109 1495.16 43.3983 1462.78 41.1581C1448.89 40.1955 1435.03 39.0656 1421.11 38.1104C1417.31 37.847 1414.16 37.0863 1411.52 35.6216L1412.1 35.4739C1408.19 37.5959 1403.35 36.8279 1398.85 36.5817C1381.84 35.6438 1364.87 34.5286 1347.86 33.5808C1309.22 31.4268 1270.7 28.5958 1231.81 27.9188C1210.07 27.5397 1188.27 27.1064 1166.67 25.8337C1146.13 24.625 1125.24 25.5186 1104.99 22.7516C1092.25 24.3197 1079.73 20.3858 1066.94 22.2863C1064.43 20.1151 1061.51 20.5286 1058.21 21.7693C1055.76 22.6974 1053.17 22.4512 1051.14 21.373C1048.77 20.1101 1046.8 20.3711 1044.44 21.3484C1042.26 22.2494 1039.3 22.6014 1037.05 21.9441C1025.27 18.5124 1011.54 21.5281 999.732 18.414C998.931 18.2023 997.255 18.1506 996.86 18.414C990.781 22.4759 982.496 20.5286 975.199 20.6295C967.498 20.7403 959.765 20.1791 952.096 19.6645C950.325 19.5464 948.78 18.4337 947.113 17.7715L947.145 17.7542C947.195 18.8349 945.609 19.4774 944.287 19.2116C939.444 18.2023 932.509 20.6443 929.315 16.516C929.021 16.1319 924.527 16.5923 922.068 16.8409C912.224 17.8256 902.503 17.8576 893.339 15.3959C886.055 13.4388 878.613 13.7145 871.034 14.3866L871.07 14.9872L870.74 14.5884C865.698 11.4423 859.497 10.3271 852.136 11.6343C846.777 12.5919 842.623 11.078 838.288 9.8914L838.582 10.0194C835.724 10.8613 833.953 12.6239 829.346 10.7875C825.074 9.08395 819.235 7.95647 813.296 8.81808C812.445 8.9387 811.403 9.41381 811.177 9.83969C810.982 10.2139 811.575 11.0016 812.209 11.1666C814.905 11.8682 817.74 12.3975 821.346 13.1803C817.328 14.5859 814.098 15.7774 810.728 16.8483C809.985 17.0945 807.906 16.9271 807.901 16.8828C807.498 14.3127 801.292 14.5958 800.463 12.4221C800.214 11.7746 801.673 10.977 801.849 10.2065C801.908 9.93079 800.54 9.50737 799.72 9.24888C799.349 9.13318 798.452 9.1381 798.253 9.27842C796.146 10.7555 792.966 12.0134 793.777 14.2339C794.026 14.9158 796.423 15.6839 794.266 16.2033C792.658 16.5824 790.393 16.1861 788.441 16.0581C788.106 16.0359 787.712 15.6445 787.589 15.3885C786.896 13.9262 785.614 12.6486 782.493 12.8726C780.555 13.0129 778.761 13.7391 776.922 14.1847C778.321 13.9016 779.671 13.5052 781.08 13.4314C781.768 13.3945 783.082 13.9065 783.204 14.261C783.54 15.2457 782.176 15.7233 780.681 15.4279C779.381 15.1817 778.376 14.4703 777.239 13.9681C772.387 12.0873 767.11 11.3808 761.384 12.491C756.288 13.4757 755.346 11.5629 754.177 9.6723C753.79 9.16277 753.336 8.66913 752.818 8.19525L753.47 8.3208C751.717 10.3394 753.652 12.7864 750.558 15.0094C742.44 14.8912 733.928 14.7263 725.362 15.354C720.321 15.7233 713.893 16.0088 710.414 12.6756L710.713 12.6338C705.141 15.8341 699.076 15.7504 692.806 13.3477C689.658 12.1414 686.75 11.0829 683.656 13.36C682.229 14.4087 681.192 14.0099 680.87 12.9267C679.57 8.60144 674.882 11.7377 671.652 11.6688L671.629 11.6319L673.776 12.5624C673.224 12.9218 672.653 13.5988 672.123 13.589C670.084 13.552 667.421 13.6849 666.139 13.0572C660.25 10.1868 653.406 12.5427 647.163 11.8017C644.898 11.5358 645.496 14.7041 641.768 13.7711C639.911 13.3108 638.375 12.2177 636.509 12.0602C629.347 11.4472 622.131 10.8564 614.902 10.7136C605.611 10.5339 596.288 10.7924 586.975 10.8613C586.457 10.8437 585.937 10.8586 585.426 10.9056C580.715 11.5555 578.096 8.67529 574.21 8.76638C570.21 8.85992 566.305 9.96771 562.314 10.5413C561.408 10.6718 559.777 10.6348 559.356 10.3222C554.283 6.61235 549.123 8.47589 543.289 9.78801C538.492 10.8663 532.988 10.3148 527.96 9.48522C524.003 8.78546 519.777 8.66404 515.706 9.13317C503.358 10.5979 491.109 8.41189 478.752 8.66791C477.03 8.70484 477.171 5.40363 472.795 6.25785C470.385 6.72805 468.143 7.60196 465.688 7.80875C462.671 8.05493 459.491 7.92938 456.419 7.74967C438.495 6.71081 420.557 5.81475 402.514 6.00676C397.69 6.05846 393.373 5.24855 389.423 3.79119L389.744 4.00536C382.442 5.85167 374.257 3.94135 366.927 5.58826C367.172 6.83391 368.468 7.65613 370.692 7.73737C377.419 7.98354 384.281 8.59159 390.868 8.18294C397.844 7.75214 404.149 8.47343 411.959 9.78061C406.12 11.3167 401.3 11.9223 395.651 11.814C377.586 11.4694 359.48 11.0755 341.424 11.3512C315.006 11.7549 288.615 12.7126 262.219 13.4634C259.393 13.5422 258.704 13.9828 251.348 18.8595C254.591 20.2061 258.5 18.9113 262.296 19.7113C261.254 20.3563 260.371 20.9545 259.37 21.4912C258.971 21.6792 258.453 21.7754 257.925 21.7595C240.571 20.8536 224.494 24.4034 207.87 26.0159C203.512 26.4368 198.81 26.4073 195.934 29.1694C193.773 31.2397 189.139 29.4008 185.778 29.8956C184.913 30.0211 183.712 30.5282 183.612 30.927C183.372 31.9265 184.917 32.345 186.434 32.2465C192.613 31.8477 198.806 31.4711 204.912 30.8458C211.548 30.1883 218.297 29.9266 225.038 30.0654C226.583 30.0901 228.861 29.8759 229.568 30.3313C235.525 34.2701 242.496 32.4656 249.359 31.5794C252.43 31.1806 255.488 30.932 257.771 32.51C258.478 33.2312 258.138 33.6571 256.793 33.827C252.756 34.3366 248.752 34.9397 244.68 35.336C239.158 35.8727 233.355 35.6856 229.486 38.7529C228.481 39.5506 224.576 39.1616 222.121 39.5432C218.923 40.0355 221.473 42.549 219.068 42.9404C206.837 44.9295 196.545 49.5871 183.64 50.5718C176.324 51.1232 169.783 52.8637 162.979 54.2029C157.543 55.2688 157.588 55.3279 161.312 59.0131C157.656 61.9672 149.435 60.1825 145.376 63.528C149.453 65.8199 152.624 68.6558 158.965 69.6651C160.324 69.8842 162.553 70.4947 162.589 70.96C162.929 76.5137 169.86 74.5271 174.888 74.0544C181.909 73.3947 188.822 72.5774 196.178 73.0377C195.046 75.6644 191.907 76.0878 188.826 76.2749C184.201 76.558 179.526 76.622 174.865 76.7451C173.05 76.7808 171.271 77.0278 169.647 77.4695C168.023 77.9112 166.593 78.5373 165.452 79.3054C163.853 80.3319 163.64 81.2575 166.204 81.9197C169.891 82.8749 173.244 83.6602 173.126 86.6118C173.058 88.335 176.872 89.2385 180.129 89.3197C182.679 89.3739 185.257 88.8791 187.83 88.8274C189.234 88.7954 191.39 88.9136 191.952 89.3961C193.605 90.8214 190.457 90.9913 189.415 91.7815C186.394 94.0635 182.661 95.4938 177.728 96.3677C173.429 97.1259 169.461 98.4282 164.052 99.8142C170.911 102.333 177.094 103.967 184.247 104.538C185.696 104.654 188.097 105.417 187.273 105.983C180.963 110.316 190.262 110.602 192.6 112.743C193.958 113.996 190.335 116.662 196.677 116.655C199.29 116.655 202.439 117.497 202.565 118.917C202.719 120.973 198.887 121.162 195.997 121.559C194.493 121.763 192.867 121.785 191.467 122.12C190.819 122.278 190.407 122.962 190.267 123.44C190.072 124.112 190.847 124.525 192.106 124.589C196.215 124.794 200.337 124.949 204.441 125.202C206.651 125.338 207.376 126.746 205.709 127.701C203.68 128.863 200.119 129.301 199.961 131.339C204.391 133.853 210.986 132.418 217.333 134.308C207.969 135.45 199.761 136.494 191.513 137.449C174.834 139.387 157.801 140.118 141.032 141.819C132.117 142.722 122.672 143.582 113.744 140.925C109.862 139.768 106.912 141.208 104.589 142.868L107.076 142.796L104.747 142.947C101.259 141.43 96.5936 142.289 92.9471 141.243C90.2292 140.468 88.1228 138.877 85.3279 138.459C80.567 137.745 85.3278 141.607 81.3052 141.447C75.1265 141.201 69.4279 143.119 63.1494 142.432C58.4701 141.913 53.9086 141.994 50.1715 144.054C47.3312 145.618 43.431 145.162 39.9204 145.492C35.6442 145.896 35.3906 146.836 38.7472 148.924C41.6282 150.716 42.2034 154.721 39.4492 156.555C37.7822 157.665 35.712 156.695 33.8276 156.37C31.3861 155.949 29.1664 156.592 30.1357 157.847C32.4641 160.875 29.1483 163.263 28.0612 165.9C27.2322 167.918 26.9603 169.839 31.1368 170.971C32.0428 171.217 33.1119 171.557 33.5106 172.01C39.0325 178.278 48.5635 180.917 61.981 180.722C56.4092 186.111 49.0209 188.996 38.9102 189.877C37.6237 189.988 36.9397 190.399 37.2523 191.012C37.5105 191.505 37.8865 192.196 38.6112 192.403C42.6111 193.567 47.8024 193.806 49.3743 196.775C49.2565 196.955 49.1841 197.09 49.1116 197.223L49.3698 196.603C47.6166 197.174 44.559 197.644 44.3868 198.326C43.9701 199.897 44.8669 202.019 47.8521 202.511C58.2708 204.217 62.1211 208.557 63.7067 213.714C64.9332 217.936 69.0215 221.755 75.1674 224.421C79.9813 226.53 83.6809 229.295 85.8895 232.434C88.9381 236.673 95.964 239.326 100.435 243.019C101.418 243.831 103.819 244.279 105.735 244.592C120.117 246.936 133.897 249.983 146.866 254.154C149.874 255.121 153.824 255.188 157.221 255.847C158.49 256.093 160.424 256.918 160.333 257.378C159.677 260.731 162.82 261.524 168.297 262.056C175.314 262.728 175.459 267.029 179.128 269.525C179.286 269.633 178.186 270.625 177.429 270.741C173.964 271.27 170.435 271.898 166.879 272.009C151.138 272.501 135.369 272.732 119.628 273.24C112.435 273.471 105.282 274.096 98.1158 274.579C93.4908 274.889 88.8567 275.622 84.2633 275.534C77.4323 275.401 71.3259 275.398 65.3466 277.959C60.9027 279.857 54.3525 279.101 48.7355 279.374C45.0889 279.551 43.0325 280.012 42.9282 282.232C42.901 282.813 40.7676 283.923 39.916 283.84C33.1211 283.17 36.2512 287.286 32.505 288.241C30.462 288.766 32.7812 289.514 34.0632 289.741C36.1697 290.117 38.6611 289.987 39.5988 288.926C42.5613 285.585 47.8838 285.218 53.759 284.916C60.988 284.526 68.2827 284.706 75.4164 285.452C78.3654 285.765 81.4684 284.783 85.1829 285.945C76.028 288.461 67.4077 290.546 57.2064 289.46C52.2236 288.928 51.3176 291.016 50.4524 292.948C50.4796 292.921 51.2043 292.67 51.2043 292.67L50.7513 292.818C39.1503 295.952 27.5765 299.108 14.0367 298.768C13.2548 298.753 12.49 298.895 11.8895 299.168C11.2892 299.44 10.8955 299.824 10.7843 300.245C10.3766 301.518 11.4773 302.586 13.5022 302.918C21.8599 304.299 29.9366 305.732 39.1821 304.073C48.4276 302.414 58.4249 302.008 69.1743 303.177C67.3895 303.746 65.4825 304.004 65.2695 304.484C64.3953 306.453 63.376 307.849 58.7103 307.485C49.3741 306.746 40.2284 307.839 30.2174 308.482C33.4291 312.492 39.0688 313.999 45.5511 315.018C48.3324 315.456 51.639 313.937 53.9764 315.737C51.2585 319.368 56.9347 317.369 58.5835 317.566C61.5642 317.925 64.7712 317.691 67.8652 317.812C70.9591 317.933 74.0483 318.304 77.1423 318.322C80.2362 318.339 83.3029 317.962 86.3922 317.859C90.5054 317.721 94.6323 317.681 99.4657 317.583C93.7444 320.99 87.6471 322.844 79.8331 322.036C72.8253 321.313 65.2153 322.708 58.715 320.256H58.76C59.8834 321.157 60.9299 322.093 62.1484 322.952C64.735 324.774 71.7428 323.676 71.7383 327.228C75.8152 327.494 79.8921 327.674 83.969 328.045C88.8431 328.498 87.792 330.057 85.9664 331.672L96.6436 331.438C96.5212 330.271 96.9878 329.047 99.2391 328.828C104.707 328.294 110.21 328.373 117.775 329.119C109.513 331.007 103.067 331.297 96.5529 331.462L85.9938 331.684L64.735 333.437C65.6953 335.731 69.1608 335.61 71.8424 335.798C79.8059 336.349 88.6029 334.631 95.3116 338.436C96.0771 338.87 96.7251 338.786 97.5133 338.166C101.137 335.31 106.895 336.378 111.801 335.95C114.007 335.761 115.909 337.427 114.378 338.153C111.017 339.751 110.831 342.89 105.001 343.338C99.9547 343.727 99.3613 347.747 92.7976 347.769C87.6608 347.769 82.5599 347.737 77.4186 347.653C71.7925 347.565 66.1301 348.096 57.4872 348.498C66.2434 350.398 72.3723 351.73 78.5012 353.057C80.8069 353.549 80.7661 354.824 81.6268 355.765C86.6096 353.625 92.1136 354.645 98.1067 354.861C92.4761 356.557 87.0901 355.942 81.7629 355.659C78.3882 354.101 74.515 355.085 71.4664 355.659C69.6545 355.996 74.8231 356.326 73.5321 357.404C72.8754 357.953 70.9727 358.283 69.6001 358.318C60.9119 358.539 52.2145 358.643 43.5216 358.81C41.9769 358.839 40.3868 358.825 38.9146 359.031C37.4424 359.238 35.8933 359.694 36.677 360.755C36.9805 361.163 38.0043 361.673 38.738 361.693C44.4141 361.845 50.1079 362.015 55.7793 361.939C62.3704 361.843 67.9783 362.869 72.567 365.462L72.2817 365.252C80.0505 362.298 88.9835 363.477 97.8983 363.544C95.5474 364.076 93.1327 364.543 90.8723 365.169C90.6293 365.232 90.425 365.331 90.2839 365.456C90.1429 365.58 90.0712 365.724 90.0774 365.871C90.0836 366.017 90.1675 366.159 90.319 366.28C90.4705 366.401 90.6831 366.495 90.9313 366.552C95.7329 367.561 100.729 368.206 105.925 368.029C112.235 367.798 118.246 368.462 124.189 369.452C124.574 371.572 120.511 371.857 119.257 373.312C118.142 374.602 115.954 374.969 112.838 374.297C104.231 372.409 94.9175 372.463 85.8351 371.948C80.7118 371.658 75.5569 371.525 70.4336 371.321L70.7371 371.195C71.7064 372.638 73.5863 373.47 76.3904 373.657C79.439 373.849 82.6144 373.782 85.5134 374.243C89.9436 374.942 94.3739 375.882 95.3344 378.866L98.7953 378.772L95.4022 378.954C88.1544 377.854 80.9657 376.315 73.1561 377.603C82.4922 379.402 91.3844 382.233 101.853 381.079C106.668 380.55 110.94 381.52 115.443 382.128C120.095 382.758 124.81 382.933 126.867 379.718C127.845 379.814 128.742 379.87 129.639 379.912C130.094 379.901 130.549 379.915 130.998 379.954C131.157 379.981 131.17 380.267 131.247 380.446C130.472 380.446 129.616 380.577 128.946 380.446C128.108 380.276 127.419 379.89 126.681 379.594C137.67 385.124 151.555 385.729 165.67 386.711C164.813 384.988 160.161 385.165 161.266 383.319C162.34 381.532 165.611 381.049 168.587 380.732C170.141 380.615 171.719 380.818 173.013 381.3C176.057 382.514 179.739 382.647 183.028 383.386C187.399 384.37 191.503 385.537 196.26 384.021C196.957 383.797 198.769 383.836 198.978 384.065C202.728 387.895 210.592 386.906 216.268 388.43C215.616 390.02 207.172 388.905 211.847 392.41C212.554 392.94 210.275 394.503 207.739 394.294C199.802 393.644 191.884 392.895 184.097 392.196C182.652 395.091 187.925 396.302 187.947 398.88C185.542 399.215 183.141 399.695 180.673 399.865C177.502 400.071 175.237 398.799 176.369 397.354C178.023 395.259 180.043 393.292 178.181 390.953L178.408 390.825C173.103 393.558 167.423 394.468 160.093 392.962C155.432 392.004 150.083 391.893 145.009 391.711C126.323 391.047 109.196 387.086 91.4022 384.513C82.9858 383.297 74.1211 383.004 65.4825 382.229C63.5256 382.051 61.6458 381.606 59.7341 381.286H59.8247C60.3003 382.342 60.2777 383.531 62.8778 383.895C69.8992 384.88 76.8978 385.916 83.9147 386.906C88.9202 387.612 93.9708 388.235 98.9402 389.006C99.7192 389.126 100.847 389.946 100.671 390.237C100.234 391.001 99.3905 391.679 98.2469 392.184C96.4078 392.922 94.3784 392.642 92.485 391.987C83.3936 388.833 73.097 388.435 61.564 387.979C71.4708 392.989 83.0267 394.306 94.4738 395.502C104.113 396.512 113.952 396.913 123.687 397.696C127.252 397.984 131.161 398.188 134.128 399.173C137.299 400.202 139.686 400.061 142.64 399.35C147.94 398.07 153.439 397.309 159.246 398.134C159.736 398.216 160.189 398.354 160.573 398.54C160.956 398.725 161.262 398.952 161.471 399.207C162.023 400.192 160.655 400.655 159.115 400.805C155.396 401.169 154.458 401.753 158.141 403.089C159.355 403.53 160.148 404.32 161.135 404.946H161.104L162.136 404.315C162.924 404.899 164.682 408.281 164.229 408.5C163.527 408.84 162.698 409.359 161.928 409.357C151.609 409.337 141.249 409.497 130.984 409.042C126.341 408.835 121.308 408.217 120.113 404.468C119.261 401.76 114.573 400.945 109.155 401.13C103.243 401.334 96.9242 402.134 91.5835 399.608C90.2653 398.983 88.7117 399.655 87.7061 400.347C86.465 401.214 85.2462 402.087 83.7468 403.151C88.3763 404.163 91.4478 406.223 96.5031 406.184C102.197 406.14 100.353 408.838 101.422 410.455C103.62 408.289 105.989 406.208 109.948 404.842C114.704 409.165 114.591 409.192 107.098 409.741C105.173 409.881 103.293 410.187 101.391 410.418C100.485 408.525 97.563 408.838 95.1622 408.872C91.6787 408.926 93.5405 410.403 93.0513 411.299C92.9064 411.546 89.8802 411.792 89.1962 411.454C82.5237 408.065 74.9318 407.907 66.2028 408.326C54.9641 408.862 43.6168 408.454 32.6138 410.381C29.6332 410.905 25.9095 411.006 24.623 412.535C23.3048 414.108 22.281 414.711 19.1193 414.258C12.9902 413.382 6.88855 413.975 0.736938 414.583C1.06384 415.278 1.80444 415.895 2.84338 416.337C3.88232 416.779 5.16138 417.022 6.48096 417.028C13.5114 417.129 15.0015 420.797 19.4363 422.52C21.5065 423.323 20.2653 424.573 20.1157 425.651C19.9346 427.005 17.1895 428.059 18.8972 429.836L29.7689 432.406C28.8629 432.83 28.2242 433.354 27.7169 433.32C24.6638 433.113 21.656 432.682 18.5984 432.534C17.3708 432.473 16.0526 432.938 14.7753 433.165C15.6088 433.856 16.4783 434.536 17.2528 435.247C17.448 435.508 17.5731 435.782 17.6243 436.062L17.1396 436.244C19.1328 436.023 21.2166 435.489 23.1055 435.636C33.343 436.431 43.5306 437.411 53.741 438.3C56.4316 438.546 58.6786 438.94 59.3898 440.636C59.8881 441.82 60.2594 442.901 57.4102 443.199C54.3516 443.518 51.1924 443.393 48.2509 442.837C43.7209 442.012 39.0145 442.29 34.4529 442.785C33.3069 442.908 32.0927 443.809 31.5989 444.508C30.9874 445.365 32.2104 446 33.4879 446.584C37.506 448.427 37.4562 448.459 33.8958 451.618C39.7845 452.603 45.9633 453.494 46.9598 457.526C56.1555 459.326 60.4996 464.857 70.5151 466.27C76.1096 467.06 80.7209 469.249 78.3202 473.257C77.55 474.544 79.679 475.179 80.8613 476.056C82.2202 477.06 85.3234 477.474 84.866 479.167C80.8796 480.398 79.5521 478.06 76.9248 477.515C75.4934 477.218 74.1708 476.713 72.7031 476.531C71.0634 476.334 69.7134 476.871 68.9932 477.661C68.2367 478.495 68.4811 479.399 70.0665 479.832C73.7494 480.841 77.5863 481.683 81.2645 482.693C81.9983 482.894 82.9044 483.65 82.7142 483.965C82.0121 485.103 80.4763 484.431 79.0902 484.31C77.1016 484.138 73.3011 482.99 75.8062 485.853C76.9476 487.158 75.6429 488.232 73.1652 488.057C66.094 487.564 59.0909 486.653 49.2792 487.862C59.7931 490.152 70.2705 489.654 75.4119 494.622L74.882 494.147L75.7561 494.393C87.0808 496.441 95.9276 500.964 106.74 503.605C112.412 504.991 117.612 506.608 124.008 507C131.632 507.465 137.249 509.577 139.043 514.068C133.657 514.22 129.499 512.295 124.606 511.872C123.589 511.754 122.528 511.821 121.587 512.063C120.646 512.304 119.877 512.707 119.397 513.208C118.038 514.476 117.073 515.692 118.64 517.118C120.86 519.131 124.416 520.766 128.063 521.231C134.549 522.056 140.706 523.939 147.088 524.134C154.413 524.353 160.324 526.903 167.789 526.75C171.608 526.672 173.923 528.609 172.378 531.017C172.936 530.94 173.461 530.874 173.986 530.807C172.233 530.202 174.748 530.724 172.709 530.948C165.235 531.292 157.828 531.672 151.26 528.87C149.901 528.297 146.839 528.09 145.426 528.53C139.736 530.308 134.74 529.023 129.245 528.237C111.868 525.776 94.3424 523.617 76.3633 521.276C81.8535 525.997 85.7809 528.131 93.6266 528.488C105.97 529.05 117.073 532.508 129.865 532.267C136.275 532.147 141.851 535.177 147.233 537.336L146.939 537.129C151.351 536.529 149.765 540.221 154.409 540.083C156.895 540.007 159.563 541.669 162.15 542.545L161.652 542.88C161.919 541.912 163.169 541.432 164.746 541.487C170.997 541.703 175.237 543.783 178.933 546.262C179.472 546.624 179.93 547.294 179.663 547.653C179.395 548.013 178.19 548.34 177.361 548.365C171.042 548.542 165.81 547.343 161.933 544.559L162.417 544.923C159.341 544.847 156.27 544.716 153.194 544.711C151.238 544.711 148.769 544.514 148.035 545.868C146.141 549.357 141.267 548.515 136.81 548.266C132.28 548.02 127.863 546.981 123.152 547.582C121.277 547.828 119.075 547.464 117.472 548.658C117.689 550.649 121.032 549.955 123.048 550.297C125.506 550.688 128.011 550.984 130.545 551.183C133.539 551.442 136.588 551.521 139.568 551.813C142.073 552.06 144.515 552.49 146.975 552.86C149.308 553.209 151.627 553.586 153.964 553.953C151.074 557.205 142.078 556.023 140.221 559.829H140.171C140.501 559.469 141.069 559.189 141.762 559.046C142.455 558.904 143.221 558.908 143.908 559.058C148.746 559.94 153.317 561.006 155.341 556.914C155.713 556.176 159.595 555.735 161.964 555.523C164.564 555.292 166.281 557.099 166.091 559.556C166.075 559.627 166.075 559.699 166.091 559.77L166.571 559.391C166.107 559.517 165.625 559.623 165.131 559.708C161.402 560.184 155.378 559.179 155.355 562.372C155.333 565.181 161.162 565.173 165.017 565.646C193.216 569.093 221.188 573.302 250.125 574.555C263.461 575.134 276.851 576.468 290.309 575.107C293.362 574.799 296.674 574.508 299.414 575.439C302.06 576.34 303.967 576.177 306.372 575.249C307.414 574.846 309.624 574.683 310.662 575.003C321.647 578.472 333.642 577.578 345.447 577.573C359.408 577.573 373.373 577.6 387.334 577.573C391.484 577.573 395.592 577.391 399.638 578.201C401.526 578.58 403.828 578.94 405.676 578.693C423.904 576.318 442.689 577.438 461.072 575.985C466.661 575.545 472.451 575.825 478.149 575.835C486.43 575.848 494.91 576.534 502.937 575.786C511.118 575.023 519.453 577.812 527.249 575.094C536.965 576.126 546.636 575.328 556.367 575.05C566.125 574.769 575.907 574.826 585.652 575.22C601.661 575.877 617.638 576.837 633.596 577.834C659.358 579.442 685.083 581.199 710.831 582.866C734.975 584.427 759.155 585.727 783.381 586.886C795.612 587.472 807.883 588.976 820.25 589.643C832.068 590.281 843.869 591.12 855.719 591.507C870.667 591.999 885.498 593.368 900.696 592.58C908.129 592.194 915.708 594.225 923.64 594.042C932.337 593.838 941.003 594.018 949.745 594.956C957.238 595.761 965.224 595.542 970.13 591.017C972.186 589.112 976.367 589.144 979.987 589.619C983.606 590.094 981.645 593.597 986.954 593.474C990.532 593.392 994.143 593.759 997.739 593.927L997.676 593.996C998.935 593.343 1000.21 592.939 1001.55 593.936L1001.47 593.905C1003.16 593.255 1004.81 592.57 1006.56 591.975C1007.35 591.706 1009.09 591.423 1009.13 591.482C1012.69 595.574 1019.34 594.362 1025.29 594.313C1036.34 598.616 1044.32 593.927 1052.75 591.337C1055.62 590.453 1058.01 589.414 1061.12 590.222C1066.87 591.699 1068.12 586.861 1073.32 587.822C1077.05 588.513 1078.75 591.381 1083.92 590.628C1086.74 590.217 1089.76 589.939 1092.55 591.443C1091.02 591.797 1089.73 592.125 1088.4 592.398C1086.82 592.718 1085.71 593.205 1086.13 594.21C1086.55 595.214 1088.33 595.741 1089.56 595.261C1097.17 592.307 1105.75 593.72 1113.68 593.983C1118.66 594.148 1122.71 597.115 1129 596.627C1134.59 596.196 1140.39 596.627 1146.08 596.479C1151.77 596.332 1157.62 595.293 1163.06 595.773C1180.78 597.341 1198.07 594.717 1215.61 594.697C1227.41 594.682 1239.2 593.604 1251.02 593.412C1280.01 592.947 1309 592.711 1337.97 592.413C1341.08 592.381 1344.32 592.277 1347.27 592.674C1363.97 594.911 1380.87 594.003 1397.78 594.089C1414.3 594.175 1430.78 594.614 1447.19 593.245C1460.54 595.608 1474.06 593.836 1487.3 593.245C1512.67 592.117 1537.82 593.983 1563.09 593.764C1581.12 593.617 1599.16 594.242 1617.2 593.597C1621.56 593.442 1625.12 592.728 1628.27 590.776L1618.62 584.813C1625.74 584.24 1631.95 583.051 1638.59 584.06C1640.59 584.365 1640.3 585.549 1638.78 584.779C1637.27 584.008 1637.72 586.458 1637.6 585.33L1637.61 585.318ZM770.448 16.1861L770.403 15.5583C770.403 15.5583 770.072 16.0138 770.072 15.9867L770.947 15.7405L770.448 16.1861ZM192.967 530.896L192.437 530.357L192.722 530.768C191.92 530.731 191.146 531.999 190.321 530.783C191.236 530.832 192.151 530.876 192.967 530.896ZM142.635 300.439L146.237 301.798L142.073 302.537C144.479 303.896 147.623 303.578 150.581 303.615C157.625 303.699 164.678 303.691 171.717 303.827C173.982 303.869 175.141 304.75 175.282 305.954C178.602 305.493 181.905 304.836 186.521 305.774C182.163 306.732 178.82 306.129 175.481 305.882C174.491 305.742 173.489 305.628 172.478 305.543C164.469 305.082 158.064 307.578 150.925 308.79C143.677 310.021 135.945 306.773 128.325 307.879C116.72 309.563 104.956 308.041 93.314 308.797C88.4896 309.112 85.8713 308.073 80.9655 305.978C81.8715 305.789 82.7775 305.486 83.7604 305.424C88.4443 305.072 93.0242 306.136 97.4589 306.072C101.771 306.01 105.898 304.218 110.315 303.684C114.731 303.15 119.574 302.805 124.054 303.115C130.332 303.546 136.375 302.938 142.518 302.761C142.681 302.052 142.839 301.34 143.029 300.656L142.037 300.56L142.635 300.439ZM117.753 350.477L117.381 350.637L118.129 350.735C118.767 350.329 119.275 349.77 120.086 349.561C120.747 349.391 121.771 349.637 122.631 349.699C122.02 349.982 121.481 350.413 120.779 350.511C119.845 350.642 118.79 350.511 117.748 350.477H117.753ZM138.418 355.846C141.1 357.175 145.48 355.858 148.61 358.172C145.14 358.081 142.395 358.155 139.818 357.835C139.147 357.754 138.989 356.444 138.459 355.784C136.669 356.208 134.925 356.713 133.068 357.015C132.42 357.119 131.079 356.826 130.803 356.523C130.282 355.976 131.102 355.627 132.47 355.676C134.445 355.73 136.429 355.789 138.418 355.846ZM1443.68 565.754C1447.53 565.375 1451.35 563.736 1455.46 565.449C1451.22 566.397 1447.22 565.796 1443.23 565.668C1443.75 567.209 1443.23 568.42 1439.71 568.164C1437.57 568.007 1435.81 567.18 1436.85 565.949C1437.89 564.718 1440.19 565.255 1442.06 565.506C1442.55 565.587 1443.03 565.644 1443.68 565.754ZM1473.43 561.569C1474.11 560.89 1473.94 560.749 1472.92 561.146L1474.03 561.466C1478.07 560.065 1481.73 557.48 1486.78 559.947C1483.41 563.069 1477.2 558.94 1473.43 561.577V561.569ZM1589.74 578.602C1592.3 577.337 1594.4 575.53 1598.62 576.17C1599.35 576.281 1600.43 577 1600.28 577.29C1599.56 578.787 1596.8 579.092 1594.67 579.612C1592.68 580.104 1590.79 579.678 1589.98 578.408C1588.13 578.829 1586.31 579.503 1584.41 579.577C1583.32 579.619 1581.24 578.752 1581.09 578.186C1580.64 576.392 1583.19 576.763 1585.14 576.955C1587.08 577.147 1589.44 577.044 1589.74 578.61V578.602ZM223.987 286.587L224.671 286.858L223.688 286.668C224.3 287.481 224.413 288.5 222.877 288.778C217.342 289.763 217.297 289.696 207.73 287.301C213.007 285.469 218.642 287.067 223.974 286.594L223.987 286.587ZM265.345 287.572L299.944 288.271C297.584 289.11 296.746 289.667 295.913 289.664C286.658 289.647 277.399 289.595 268.158 289.381C267.184 289.357 266.301 288.227 265.372 287.611C260.489 287.119 256.874 289.147 252.444 289.514C251.914 289.558 250.686 288.933 250.677 288.613C250.677 288.165 251.307 287.466 252.009 287.299C256.475 286.25 260.833 287.985 265.331 287.582L265.345 287.572ZM229.559 399.037C228.404 399.576 227.294 400.532 226.085 400.591C215 401.122 204.935 399.114 194.992 396.736C201.718 396.243 208.4 395.736 214.81 397.024C219.521 397.971 225.441 396.544 229.228 399.239C248.181 398.609 248.181 398.609 263.85 401.669C251.167 401.856 239.919 402.201 229.523 399.047L229.559 399.037ZM1093.41 579.932C1094.1 579.598 1094.83 579.285 1095.59 578.996C1095.7 578.957 1096.49 579.329 1096.49 579.373C1095.65 580.358 1094.35 580.062 1093.03 579.7C1096.11 581.527 1100.07 582.366 1104.66 582.539C1088.08 584.134 1071.62 583.592 1054.97 583.373C1059.6 582.595 1063.55 581.084 1068.77 580.998C1076.94 580.872 1085.13 580.303 1093.37 579.942L1093.41 579.932ZM1483.71 566.047C1492.18 567.79 1492.18 567.79 1500.11 571.997C1483.77 571.997 1467.89 573.09 1451.64 571.013C1454.08 569.233 1456.69 569.89 1459.01 569.75C1462.18 569.56 1464.37 568.915 1466.05 567.081C1468.32 564.62 1470 564.738 1473.3 567.222C1474.11 567.844 1474.04 568.871 1476.02 568.753C1478.82 568.585 1478.92 567.453 1478.5 566.291C1477.86 564.531 1479.93 564.415 1482.12 564.568C1483.61 564.669 1485.37 564.954 1483.7 566.124L1483.71 566.047ZM238.388 393.021C238.447 392.088 237.781 391.236 236.15 391.034C233.16 390.665 229.699 390.899 227.185 390.143C225.781 389.72 228.567 387.952 225.437 386.436C220.15 383.873 214.674 382.418 207.272 382.209C214.828 380.055 221.663 382.918 228.513 382.354C238.972 381.492 248.711 384.683 259.198 383.738C261.128 383.565 262.296 385.02 262.736 386.175C263.257 387.536 261.934 388.1 259.769 388.617C256.639 389.355 254.007 389.062 250.913 388.44C246.605 387.571 246.464 387.777 247.959 391.111C244.05 393.011 245.903 393.523 249.939 393.74C251.298 393.814 252.593 394.387 253.83 394.808C254.097 394.899 254.115 395.34 254.011 395.586C253.907 395.832 253.504 396.157 253.196 396.169C248.177 396.359 243.09 396.568 238.9 394.633C238.324 394.365 238.56 393.582 238.411 393.036C235.018 393.439 231.643 393.89 228.227 394.217C227.321 394.303 226.284 394.04 225.351 393.87C225.179 393.822 225.032 393.752 224.921 393.666C224.809 393.581 224.738 393.482 224.712 393.378C224.712 393.132 224.875 392.718 225.165 392.659C229.609 391.741 233.894 393.398 238.356 393.031L238.388 393.021ZM148.52 344.771C153.05 342.309 153.086 342.077 148.261 341.285C145.376 340.81 142.463 340.482 140.284 339.239L140.737 339.045C135.573 341.319 130.042 340.13 124.633 339.465C124.094 339.399 123.596 338.52 123.619 338.025C123.684 337.492 124.115 336.992 124.828 336.625C125.63 336.299 126.6 336.118 127.601 336.108C145.226 335.709 194.19 337.479 216.744 339.214C218.642 339.36 220.712 338.722 222.66 338.779C226.923 338.914 231.153 339.271 235.398 339.537C238.03 342.956 241.391 341.592 244.671 339.916C246.999 338.727 249.164 339.086 251.66 339.763C256.33 341.031 261.119 342.257 266.197 340.31L266.813 340.556L265.793 340.467C264.145 341.031 262.6 341.733 260.81 342.127C257.794 342.799 257.187 343.714 258.912 345.236C258.795 345.369 258.677 345.502 258.555 345.635C258.786 345.423 259.008 345.211 259.239 344.999C256.109 346.282 253.907 347.939 248.575 346.838C241.55 345.386 233.74 345.396 226.157 344.975C211.507 344.16 196.418 344.33 182.394 341.282C179.538 340.651 176.36 340.599 173.438 341.135C170.553 341.627 167.939 342.742 164.651 342.068L165.126 342.235C169.266 345.265 175.359 345.509 181.547 345.681C186.661 345.814 191.798 345.893 196.876 346.218C201.175 346.491 202.47 348.367 203.182 350.3C205.601 348.409 208.4 346.875 213.102 346.986C214.624 347.023 216.182 346.875 217.682 346.986C220.807 347.21 224.929 345.433 226.85 348.109C227.756 349.376 224.585 350.031 218.397 350.026C213.319 350.026 208.237 350.167 203.159 350.246C199.793 348.557 195.576 349.015 191.594 348.906C188.093 348.808 184.382 349.495 181.144 348.414C176.949 347.026 172.537 347.277 167.921 347.269C162.39 347.269 156.859 346.693 151.342 346.326C149.602 346.211 149.009 345.46 148.714 344.628C140.108 344.999 131.374 345.807 122.763 342.452C132.425 341.492 140.529 342.877 148.488 344.788L148.52 344.771ZM254.324 566.503L254.673 566.321C254.36 567.928 253.055 568.95 249.744 568.647C241.092 567.859 232.422 567.249 223.607 567.392C219.906 567.451 216.558 566.734 213.387 565.703C212.273 565.341 211.761 564.935 212.726 564.391C213.422 564.031 214.352 563.834 215.312 563.844C217.22 563.925 219.095 564.208 220.816 564.391C223.67 562.465 220.323 559.824 223.951 558.187C232.499 560.447 242.07 560.701 250.917 561.013C260.24 561.341 269.2 561.828 278.01 563.379C284.176 564.462 290.064 564.661 295.577 562.377C297.219 561.707 298.968 561.118 300.805 560.619C304.451 559.612 305.788 560.279 306.766 563.527C307.645 563.67 308.51 563.839 309.357 564.031C309.665 564.11 309.81 564.368 310.046 564.546C309.661 564.661 309.253 564.9 308.9 564.878C307.056 564.76 306.911 564.066 307.206 563.258C305.262 564.157 303.604 565.095 300.474 564.344C296.8 563.462 294.993 565.136 293.104 566.483C296.275 568.583 300.388 567.931 304.515 567.906C316.745 567.832 329.239 567.224 341.207 568.26C353.637 569.334 365.799 569.408 378.175 569.024C381.799 568.91 385.423 569.043 389.047 569.161C390.593 569.213 392.11 569.41 393.531 569.745C393.954 569.869 394.325 570.04 394.621 570.246C394.918 570.451 395.132 570.688 395.253 570.941C395.348 571.168 394.166 571.815 393.531 571.828C388.875 571.919 384.163 572.135 379.557 571.867C365.79 571.064 351.847 572.332 338.104 570.486C333.32 569.843 327.685 570.24 322.77 570.862C304.116 573.25 285.711 571.04 267.22 570.355C265.173 570.279 263.184 569.774 261.137 569.676C257.345 569.526 256.494 567.616 254.292 566.52L254.324 566.503ZM1423.69 566.648C1420.23 570.028 1415.99 572.194 1407.81 571.64C1400.17 571.121 1392.1 570.843 1384.64 571.64C1369.07 573.28 1353.63 571.599 1338.13 571.852C1312.76 572.268 1287.37 571.717 1261.98 571.68C1247.97 571.658 1233.97 571.867 1219.96 571.901C1219.33 571.901 1218.27 571.244 1218.15 570.835C1218.03 570.363 1218.54 569.728 1219.16 569.358C1219.78 568.989 1221.03 568.499 1221.75 568.598C1228.97 569.6 1236.65 567.904 1243.83 569.949C1246.25 570.638 1250.47 570.636 1252.89 569.949C1262.44 567.219 1273.28 569.339 1282.85 567.241C1300.13 567.94 1316.06 563.342 1333.19 563.448C1334.65 563.448 1336.23 563.051 1337.56 562.65C1345.86 560.151 1354.72 561.402 1363.38 561.594C1365 561.628 1366.55 562.906 1368.1 563.608L1368.03 563.492C1368.61 563.023 1369.23 562.573 1369.9 562.143C1376.32 558.485 1379.38 558.465 1385.33 562.47C1386.82 563.475 1388.23 563.977 1390.28 563.948C1395.96 563.881 1401.64 563.65 1407.32 563.608C1411.68 563.576 1413.81 562.623 1414.12 560.142C1414.33 558.564 1417.22 558.665 1418.85 559.214C1420.96 559.937 1422.51 561.141 1424.23 562.168C1424.23 561.545 1424.08 561.478 1423.74 561.963L1424.57 561.811C1424.15 563.506 1423.73 565.203 1423.31 566.902C1424.8 566.985 1427.26 566.806 1427.62 567.192C1429.81 569.597 1433.34 570.013 1437.72 569.765C1439.35 569.674 1441.59 569.203 1442.08 570.764C1437.42 572.524 1432.41 571.938 1427.42 571.503C1424.63 571.256 1425.25 570.001 1424.87 569.024C1424.53 568.221 1424.06 567.448 1423.66 566.665L1423.69 566.648ZM1363.23 584.176L1363.26 584.35C1342.25 582.745 1321 584.862 1299.99 583.078C1298.18 582.923 1296.17 584.466 1294.46 583.201C1293 582.057 1291.8 580.816 1290.92 579.508C1290.34 578.706 1290.74 577.746 1292.43 577.394C1294.36 577.022 1296.35 576.746 1298.37 576.569C1314.79 574.888 1331.44 575.907 1347.94 575.665C1354.95 575.565 1364.01 575.966 1367.42 581.007L1367.28 580.872C1368.16 578.514 1368.87 576.283 1375.05 576.397C1382.75 576.537 1390.49 576.242 1398.22 576.219C1401.46 576.219 1402.36 577.558 1402.88 579.006C1403.75 581.443 1407.19 581.054 1410.13 580.754C1412.42 580.508 1412.01 579.789 1410.22 579.235C1408.93 578.836 1407.18 578.174 1409.12 577.554C1412.6 576.441 1416.08 575.188 1420.7 575.732C1433.89 577.285 1447.34 576.741 1460.53 576.173C1468.85 575.813 1477.04 576.101 1485.28 576.037C1486.8 576.025 1488.29 576.559 1487.87 577.571C1487.71 577.96 1486.46 578.506 1485.73 578.492C1477.02 578.341 1468.6 579.801 1459.62 579.036C1450.02 578.216 1440.06 578.693 1430.26 578.607C1426.13 578.573 1423.22 579.23 1423.27 581.896C1423.27 583.361 1421.14 583.619 1418.99 583.619C1412.27 583.654 1405.54 583.641 1398.81 583.671C1395.98 583.683 1393.77 583.294 1393.19 581.544C1392.95 580.82 1391.88 580.431 1391.1 580.83C1386.09 583.381 1379.78 583.083 1373.68 583.398C1373.09 583.427 1372.1 584.2 1372.23 584.511C1372.39 584.76 1372.65 584.987 1372.99 585.177C1373.32 585.367 1373.73 585.514 1374.19 585.609C1375.66 585.843 1377.18 585.952 1378.72 585.933C1423.74 585.869 1468.76 585.764 1513.78 585.768C1516.37 585.768 1519.63 584.867 1522.59 587.058C1515.39 587.085 1508.4 586.02 1502.98 588.816L1502.91 588.951L1503.36 589.067C1502.17 588.512 1500.77 588.104 1499.26 587.873C1497.75 587.642 1496.16 587.592 1494.61 587.728C1487.03 588.334 1479.45 587.43 1472.05 587.632C1456.97 588.043 1442 587.438 1426.98 587.401C1406.28 587.349 1385.57 587.859 1364.87 587.979C1355.06 588.038 1345.31 588.238 1335.52 588.585C1330.88 588.781 1326.21 588.511 1321.74 587.787C1317.59 587.076 1312.89 587.312 1308.43 587.132C1316.4 586.101 1324.42 586 1332.44 585.766C1342.71 585.483 1353.11 585.724 1363.2 584.193L1363.23 584.176ZM429.92 570.914C450.725 566.963 469.189 567.793 487.585 568.854C490.996 569.051 495.286 569.024 497.904 571.276C475.898 569.898 454.1 574.597 429.888 570.931L429.92 570.914ZM1596.36 484.211C1589.11 483.355 1583.68 481.376 1577.13 481.095C1580.3 480.738 1583.47 480.95 1586.38 480.563C1593.31 479.642 1599.43 481.331 1605.86 482.021C1608.22 482.267 1608.98 483.466 1609.17 484.541C1609.39 485.772 1607.98 486.619 1605.58 486.693C1598.94 486.893 1592.29 487.065 1585.65 487.21C1584.23 487.242 1583.7 486.878 1584.13 486.242C1587.17 484.485 1592 486.228 1596.33 484.229L1596.36 484.211ZM140.57 289.901C146.15 289.162 148.365 289.13 150.028 288.593C155.858 286.718 163.165 287.833 168.922 285.61C170.535 284.989 172.899 286.183 173.597 287.252C174.557 288.729 172.333 289.221 170.281 289.391C161.597 290.103 152.968 291.102 140.538 289.918L140.57 289.901ZM1452.22 558.788C1458.11 558.706 1462.31 559.14 1463.84 559.967C1465.55 560.9 1460.43 561.951 1452.72 562.813C1447.48 563.399 1442.8 562.138 1437.8 562.153C1437.12 562.153 1435.99 561.466 1435.9 561.053C1435.81 560.639 1436.85 559.935 1437.54 559.873C1442.49 559.433 1447.46 559.125 1452.22 558.788ZM269.15 554.883C264.801 555.674 263.474 556.136 262.174 556.114C252.942 555.969 243.715 555.765 234.497 555.469C233.219 555.43 231.602 554.932 232.413 553.825C243.801 552.99 254.836 554.581 269.168 554.883H269.15ZM174.929 369.363C163.128 370.284 153.693 367.729 143.999 368.472C143.577 368.507 142.468 367.662 142.531 367.268C142.585 366.931 143.949 366.35 144.601 366.397C154.078 367.084 163.876 366.818 174.929 369.363ZM971.883 582.423C974.904 581.588 978.297 583.036 981.871 582.836C984.426 582.696 988.358 582.974 988.118 584.35C987.805 586.167 984.24 585.165 982.383 584.732C977.378 583.565 972.381 583.993 967.321 584.346C965.872 584.446 964.372 584.641 962.968 584.528C962.234 584.469 961.156 583.848 961.133 583.454C961.093 583.019 961.854 582.391 962.601 582.13C965.645 581.064 968.241 583.255 971.883 582.423ZM1282.74 587.029C1272.65 588.57 1262.45 588.331 1252.21 587.639L1282.74 587.029ZM138.49 362.562C138.576 362.808 138.839 363.083 138.717 363.3C135.066 369.679 135.057 369.676 125.965 364.834C130.445 364.501 133.494 361.958 138.504 362.562H138.49ZM949.202 582.364C942.058 583.39 934.706 583.166 927.313 582.576C934.643 582.26 941.931 581.278 949.202 582.364ZM839.928 581.291C848.738 579.304 854.998 580.138 864.47 582.388C854.432 582.95 848.285 581.556 839.928 581.291ZM940.649 589.958C941.306 589.528 941.854 588.831 942.502 588.804C944.501 588.727 946.51 588.793 948.477 589.001C949.22 589.077 950.289 589.631 950.312 589.985C950.334 590.34 949.451 590.872 948.731 591.14C946.497 591.965 944.06 592.255 941.782 591.233C941.116 590.943 940.948 590.325 940.649 589.958ZM107.257 477.365C98.854 478.104 93.3094 476.408 87.5701 473.52C99.239 474.135 99.2527 474.121 107.257 477.365ZM186.122 310.638C180.265 311.638 174.091 312.056 167.93 311.003L186.122 310.638ZM149.829 351.336C155.11 351.71 160.759 350.73 168.496 352.193C160.456 353.096 155.029 354.039 149.833 351.336H149.829ZM142.101 376.143C139.288 377.374 136.37 376.746 133.517 376.308C132.13 376.096 130.626 375.853 129.548 375.375C128.352 374.848 131.288 374.009 134.11 374.324C136.932 374.639 140.171 374.555 142.105 376.143H142.101ZM304.012 18.8079C294.191 19.8516 294.191 19.8516 288.035 18.8866C292.574 18.2835 297.004 17.9438 304.012 18.8079ZM78.5964 313.189C78.5964 313.135 78.6191 313.08 78.6282 313.024L88.141 312.834C88.141 313.004 88.141 313.174 88.141 313.341L78.5964 313.189ZM270.595 24.4625C264.647 25.4029 260.244 25.6614 253.921 24.8318C260.113 23.756 264.525 23.5812 270.595 24.4625ZM912.886 587.447C917.973 587.743 920.641 587.019 922.734 588.265C923.404 588.664 924.482 589.195 924.364 589.569C924.174 590.17 922.951 590.224 921.832 589.909C919.59 589.276 917.329 588.666 912.886 587.447ZM187.934 286.991C190.783 285.962 193.859 286.166 196.871 286.321C197.664 286.363 198.901 286.735 199.041 287.06C199.494 288.062 197.945 288.579 196.532 288.8C192.917 289.379 189.547 289.364 187.934 286.991ZM290.25 387.676C291.654 387.806 293.043 387.981 294.409 388.201C295.74 388.447 296.003 389.092 294.862 389.486C293.519 389.906 292.073 390.221 290.567 390.421C289.14 390.645 287.659 390.766 286.604 389.907C285.689 389.156 287.686 387.785 290.232 387.671L290.25 387.676ZM831.072 579.671C827.86 581.33 824.331 579.597 821.047 580.013C820.2 580.119 819.208 579.895 818.279 579.823C819.163 579.644 820.128 579.242 820.911 579.331C824.25 579.695 827.76 578.462 831.072 579.671ZM1570.2 564.506C1566.07 565.036 1563.86 565.341 1561.66 565.577C1561.3 565.617 1560.83 565.361 1560.41 565.24C1561 564.898 1561.56 564.282 1562.18 564.255C1564.15 564.201 1566.16 564.356 1570.2 564.506ZM317.488 556.725C315.386 556.676 313.864 556.668 312.315 556.594C310.888 556.525 310.399 556.149 310.956 555.595C311.174 555.378 311.518 555.102 311.903 555.043C314.802 554.603 317.715 554.059 320.763 554.615C321.117 554.681 321.425 555.021 321.506 555.258C321.588 555.494 321.506 555.971 321.262 556.026C319.898 556.333 318.44 556.552 317.488 556.725ZM1581.43 265.116C1584 265.076 1586.17 265.079 1586.56 266.484C1586.8 267.341 1585.93 268.062 1584.12 268.208C1581.26 268.454 1577.65 267.265 1578.51 266.347C1579.06 265.746 1580.65 265.426 1581.43 265.116ZM319.943 289.871C318.24 289.605 316.492 289.273 315.93 288.113C316.836 288.003 317.765 287.801 318.675 287.803C320.156 287.803 321.697 287.98 321.959 288.968C322.136 289.625 321.339 289.945 319.943 289.871ZM408.235 571.084C411.606 570.535 415.216 569.853 419.782 570.693C415.451 571.988 411.936 571.36 408.235 571.084ZM241.912 374.39C244.449 373.041 247.212 373.406 250.011 374.08C247.47 375.365 244.716 375.087 241.912 374.383V374.39ZM1572.15 491.373L1568.61 490.309C1568.8 490.127 1569.03 489.775 1569.17 489.787C1570.54 489.883 1571.88 490.031 1573.21 490.228C1573.42 490.262 1573.61 490.72 1573.48 490.912C1573.35 491.104 1572.78 491.161 1572.15 491.365V491.373ZM228.802 544.453L226.257 543.796C226.669 543.362 226.904 542.678 227.53 542.547C229.115 542.22 230.456 542.668 230.732 543.574C230.8 543.796 229.487 544.15 228.802 544.446V544.453ZM1509.75 558.605L1512.53 558.874C1512.11 560.088 1510.01 560.092 1508.46 560.412C1508.03 560.501 1507.12 559.996 1506.54 559.703C1506.44 559.649 1506.77 559.169 1507.08 559.088C1507.95 558.892 1508.84 558.731 1509.75 558.605ZM860.375 585.419C859.469 586.62 857.961 586.337 856.616 586.219C855.651 586.133 854.713 585.973 853.762 585.84C854.541 585.668 855.307 585.387 856.108 585.347C857.527 585.326 858.948 585.35 860.362 585.419H860.375ZM204.4 368.595C206.212 367.443 208.382 367.82 210.311 367.699C211.67 367.613 212.314 367.96 211.906 368.391C211.761 368.495 211.576 368.58 211.362 368.64C211.149 368.699 210.914 368.732 210.674 368.736C208.645 368.723 206.629 368.647 204.386 368.595H204.4ZM292.574 397.006C288.909 397.292 287.451 397.469 285.988 397.499C285.159 397.511 284.316 397.267 283.483 397.139C284.389 396.994 285.294 396.748 286.228 396.731C287.591 396.711 288.977 396.834 292.574 397.006ZM189.125 370.843L186.512 370.351C187.264 370.127 188.002 369.745 188.776 369.72C189.624 369.691 190.511 369.991 191.381 370.146L189.125 370.843ZM54.8145 417.56C53.6232 417.434 52.0514 417.909 51.2542 416.966C52.2145 416.824 53.1929 416.538 54.1306 416.572C55.3672 416.619 56.5676 416.92 57.7863 417.109L54.8145 417.56ZM243.497 544.798C245.096 543.869 247.121 543.739 249.2 544.059C250.048 544.187 250.691 544.706 251.429 545.044C250.849 545.386 250.333 545.964 249.672 546.028C248.19 546.151 246.637 546.028 245.119 545.967C243.846 545.893 243.312 545.472 243.493 544.798H243.497ZM201.551 539.515C203.363 539.33 206.398 540.453 205.958 541.174C205.846 541.296 205.687 541.403 205.494 541.49C205.301 541.577 205.076 541.641 204.835 541.679C202.865 541.947 200.862 542.013 200.201 540.669C200.051 540.371 201.071 539.904 201.524 539.515H201.551ZM176.41 406.58C177.144 406.317 178.086 405.743 178.589 405.842C179.952 406.111 181.19 406.541 182.213 407.1C182.924 407.493 182.285 407.964 181.008 408.065C178.734 408.234 177.144 407.789 176.405 406.57L176.41 406.58ZM342.548 289.103C342.191 289.22 341.815 289.319 341.424 289.398C340.971 289.462 340.36 289.573 340.065 289.465C339.277 289.165 339.703 288.973 341.152 289.039L342.548 289.103ZM33.7598 415.551C35.6261 415.364 36.9807 415.12 38.3306 415.127C39.1776 415.127 40.0201 415.506 40.8627 415.716C39.5038 415.932 38.1991 416.27 36.8402 416.319C36.0339 416.341 35.1732 415.913 33.7552 415.541L33.7598 415.551ZM930.525 590.298C931.094 589.987 931.711 589.703 932.369 589.449C932.514 589.399 933.415 589.766 933.374 589.833C933.069 590.256 932.71 590.667 932.301 591.064C931.707 590.803 931.118 590.554 930.525 590.298ZM109.345 363.231C110.704 363.165 112.063 362.985 113.345 363.064C114.835 363.152 115.012 363.746 113.626 363.982C112.407 364.189 110.949 363.982 109.603 363.918C109.508 363.918 109.467 363.576 109.345 363.231ZM138.191 320.581C138.4 320.419 138.576 320.133 138.826 320.116C139.79 320.042 140.832 319.939 141.747 320.064C142.857 320.215 142.599 320.591 141.072 320.695C140.135 320.761 139.152 320.628 138.191 320.584V320.581ZM121.458 326.915L118.894 326.241C119.469 325.896 119.936 325.424 120.652 325.237C121.546 325.01 122.54 324.924 123.519 324.99C124.425 325.059 125.236 325.414 126.092 325.643C125.517 325.992 125.059 326.475 124.339 326.662C123.496 326.883 122.432 326.844 121.458 326.918V326.915ZM204.097 305.599C204.41 305.443 204.763 305.311 205.143 305.208C205.596 305.124 206.316 305.026 206.502 305.141C207.317 305.612 206.891 305.88 205.447 305.803C204.987 305.757 204.536 305.689 204.097 305.602V305.599ZM393.5 391.381L394.668 391.578C394.323 391.695 393.943 391.778 393.545 391.824C393.138 391.801 392.742 391.74 392.372 391.645L393.5 391.381ZM281.222 389.136C281.199 389.757 280.624 390.052 279.551 389.897C279.215 389.848 278.731 389.405 278.776 389.38C279.301 389.097 279.858 388.832 280.443 388.587L281.222 389.136ZM149.43 381.099C149.185 381.234 148.977 381.426 148.705 381.48C148.311 381.552 147.695 381.623 147.45 381.512C146.617 381.14 146.921 380.857 148.193 380.852C148.628 380.897 149.046 380.98 149.43 381.099ZM228.25 373.162C227.801 373.205 227.346 373.22 226.891 373.209C226.778 373.209 226.741 372.896 226.669 372.716C227.118 372.679 227.574 372.669 228.028 372.687C228.159 372.709 228.196 372.999 228.25 373.162ZM1541.4 587.381C1541.49 587.204 1541.5 586.913 1541.69 586.871C1542.1 586.78 1542.57 586.773 1543 586.852C1544.23 587.14 1544.09 587.425 1542.62 587.548C1542.24 587.58 1541.81 587.44 1541.4 587.381ZM1575.88 586.576C1576.61 586.283 1577.3 585.81 1578.09 585.754C1578.88 585.697 1579.72 586.071 1580.54 586.246C1579.84 586.529 1579.18 586.999 1578.41 587.046C1577.63 587.093 1576.72 586.758 1575.89 586.576H1575.88ZM1591.12 584.481L1592.2 584.582L1591.36 584.766L1591.12 584.481ZM158.49 532.691C160.361 532.752 161.008 533.373 160.823 534.288C160.773 534.534 160.338 534.963 160.053 534.968C158.372 535.002 157.036 534.557 156.769 533.648C156.678 533.382 157.892 533.008 158.49 532.691ZM1182.11 587.959C1182.11 587.812 1182.07 587.521 1182.08 587.519C1182.9 587.479 1183.73 587.462 1184.56 587.442C1184.56 587.597 1184.6 587.888 1184.58 587.891C1183.76 587.927 1182.93 587.942 1182.11 587.959ZM1614.56 469.495C1614.01 468.904 1614.33 468.53 1615.54 468.432C1615.98 468.394 1616.44 468.424 1616.85 468.52C1617.75 468.766 1617.8 469.214 1616.77 469.532C1616.2 469.699 1615.3 469.52 1614.56 469.495ZM54.3934 455.463L57.1113 455.955C56.3457 456.184 55.5846 456.576 54.8055 456.591C54.2528 456.591 53.6685 456.098 53.0977 455.825C53.5281 455.702 53.963 455.579 54.3934 455.453V455.463ZM155.79 301.111C156.175 301.237 156.864 301.358 156.9 301.498C157.04 302.111 156.311 302.36 155.029 302.16C154.592 302.059 154.181 301.927 153.806 301.769L155.79 301.111ZM816.744 585.508L814.248 584.831C815.013 584.56 815.765 584.092 816.549 584.07C817.333 584.048 818.252 584.466 819.108 584.693L816.744 585.508ZM840.322 585.613C840.711 584.993 841.513 584.803 842.668 585.121C843.115 585.223 843.487 585.402 843.728 585.631C844.158 586.204 843.574 586.637 842.333 586.504C841.594 586.416 840.983 585.924 840.322 585.613ZM121.431 301.385L118.772 300.668C119.564 300.375 120.335 299.883 121.164 299.849C121.993 299.814 122.89 300.238 123.755 300.462L121.431 301.385ZM1140.71 583.445C1141.03 583.253 1141.37 582.883 1141.68 582.891C1142.58 582.95 1143.48 583.053 1144.35 583.201C1144.04 583.395 1143.71 583.762 1143.41 583.755C1142.5 583.693 1141.59 583.589 1140.71 583.445ZM141.421 330.259C141.874 330.259 142.59 330.177 142.744 330.298C143.26 330.707 142.703 330.891 141.358 330.716C141.357 330.563 141.381 330.41 141.43 330.259H141.421ZM91.3253 291.018C91.5881 290.848 91.7782 290.6 92.1316 290.526C92.5846 290.432 93.255 290.366 93.5902 290.487C94.5687 290.834 94.2289 291.161 92.725 291.225C92.2856 291.267 91.801 291.102 91.3345 291.018H91.3253ZM238.845 287.971L240.961 287.929C240.649 288.051 240.297 288.14 239.923 288.19C239.545 288.152 239.183 288.078 238.854 287.971H238.845ZM201.7 312.096L204.287 312.167C203.979 312.327 203.712 312.561 203.345 312.63C202.896 312.698 202.419 312.685 201.986 312.593C201.795 312.561 201.782 312.273 201.691 312.103L201.7 312.096ZM881.634 581.68C882.68 580.798 884.062 580.729 885.557 581.103C885.978 581.209 886.617 581.596 886.531 581.684C885.833 582.509 884.565 582.955 882.934 582.635C882.3 582.524 881.978 581.975 881.607 581.687L881.634 581.68ZM880.515 586.829C881.684 586.091 883.065 586.123 884.47 586.362C884.9 586.436 885.602 586.763 885.548 586.837C884.896 587.728 883.482 587.873 882.015 587.649C881.385 587.563 880.973 587.115 880.488 586.837L880.515 586.829ZM1562.93 496.924L1562.02 497.256L1561.81 496.781L1562.93 496.924ZM1562.63 494.039L1561.45 493.793C1561.76 493.64 1562.04 493.396 1562.39 493.359C1562.75 493.322 1563.18 493.495 1563.57 493.576L1562.63 494.039ZM193.121 563.298C193.492 563.229 194.004 563.037 194.217 563.108C195.123 563.411 194.878 563.679 193.574 563.748C193.451 563.753 193.27 563.455 193.121 563.298ZM1095.51 587.758L1094.55 588.083L1094.37 587.62L1095.51 587.758ZM1393.48 561.505C1393.93 561.176 1394.35 560.632 1394.87 560.592C1395.6 560.536 1396.43 560.858 1397.22 561.018C1396.79 561.348 1396.42 561.917 1395.91 561.951C1395.18 562.005 1394.34 561.683 1393.48 561.505ZM195.005 542.796C194.964 543.003 195.059 543.306 194.846 543.397C194.668 543.475 194.46 543.53 194.238 543.559C194.016 543.588 193.784 543.59 193.56 543.564C192.337 543.286 192.405 542.904 193.737 542.631C194.077 542.575 194.579 542.744 195.005 542.806V542.796ZM1294.1 586.911C1294.5 586.83 1295 586.62 1295.37 586.677C1296.82 586.923 1296.87 587.305 1295.48 587.63C1295.14 587.711 1294.54 587.57 1294.16 587.44C1294 587.396 1294.11 587.108 1294.1 586.92V586.911ZM1539.08 550.152C1539.78 549.903 1540.53 549.691 1541.31 549.519C1541.56 549.475 1542.03 549.778 1542.4 549.923C1541.68 550.179 1540.92 550.399 1540.13 550.58C1539.91 550.625 1539.44 550.304 1539.08 550.152ZM138.228 327.063L137.181 327.457L136.919 326.925L138.228 327.063ZM268.235 19.7261C268.434 19.5932 268.62 19.3544 268.892 19.3199C269.164 19.2854 269.603 19.4208 269.965 19.4824C269.707 19.6227 269.481 19.8418 269.177 19.8787C268.874 19.9156 268.511 19.7729 268.253 19.7261H268.235ZM1552.2 502.566C1551.85 502.655 1551.32 502.869 1551.18 502.812C1550.27 502.436 1550.48 502.14 1551.7 502.074C1551.84 502.074 1552.03 502.406 1552.2 502.566ZM1152.62 583.211C1152.97 583.068 1153.3 582.834 1153.68 582.807C1154.05 582.78 1154.47 582.964 1154.88 583.053C1154.54 583.193 1154.22 583.43 1153.87 583.45C1153.51 583.469 1153.03 583.312 1152.62 583.221V583.211ZM280.86 402.449C280.431 402.562 279.973 402.636 279.501 402.668C279.342 402.668 279.188 402.336 279.048 402.154C279.476 402.043 279.935 401.971 280.407 401.94C280.547 401.95 280.706 402.28 280.86 402.459V402.449ZM792.962 583.41C793.369 583.321 793.967 583.092 794.162 583.164C795.168 583.558 794.896 583.88 793.469 583.947C793.333 583.957 793.125 583.6 792.962 583.41ZM1500.45 578.034C1500.71 577.844 1500.99 577.49 1501.23 577.499C1502.03 577.561 1502.82 577.662 1503.59 577.8C1502.92 578.045 1502.21 578.257 1501.47 578.432C1501.24 578.474 1500.8 578.176 1500.45 578.034ZM265.227 395.547L265.3 396.157L263.941 395.896L265.227 395.547ZM78.1887 360.361L79.3077 360.629L78.1661 360.875L78.1887 360.361ZM264.339 391.541L264.883 390.963C265.2 391.051 265.503 391.153 265.789 391.268C265.518 391.567 265.215 391.857 264.883 392.137C264.684 391.93 264.489 391.731 264.339 391.541ZM870.862 581.835C871.649 581.617 872.467 581.434 873.308 581.288C873.576 581.254 873.997 581.556 874.346 581.707C873.838 581.98 873.322 582.477 872.814 582.475C872.162 582.467 871.492 582.066 870.862 581.835ZM903.26 588.447C903.137 587.873 903.667 587.738 904.813 588.083C904.868 588.097 904.664 588.535 904.514 588.548C904.089 588.549 903.666 588.514 903.26 588.444V588.447ZM247.334 371.092L246.07 370.868C246.401 370.717 246.7 370.479 247.067 370.442C247.434 370.405 247.869 370.57 248.276 370.646L247.334 371.092ZM81.3643 487.761C81.5499 487.582 81.6676 487.303 81.944 487.247C82.1451 487.21 82.3588 487.197 82.5699 487.209C82.7812 487.221 82.9852 487.259 83.1672 487.318C83.96 487.646 83.6699 487.958 82.4242 488.057C82.1162 488.069 81.7311 487.86 81.3778 487.759L81.3643 487.761ZM95.6514 485.546L95.7783 485.922L94.7634 485.804L95.6514 485.546ZM97.2142 480.831L97.1462 480.324L98.274 480.543L97.2142 480.831ZM831.054 16.8532C831.144 16.6686 831.126 16.4052 831.348 16.3141C832.399 15.8784 833.074 16.0359 833.074 16.7228C833.074 16.8631 832.526 17.1019 832.2 17.1166C831.873 17.1314 831.443 16.9369 831.058 16.8409L831.054 16.8532ZM273.132 345.13L271.859 344.884C272.208 344.739 272.534 344.5 272.91 344.473C273.286 344.446 273.748 344.618 274.169 344.704L273.132 345.13ZM113.59 378.819L113.386 378.258L114.745 378.433L113.59 378.819ZM1087.32 569.829L1088.3 569.218C1088.8 569.63 1089.23 570.065 1089.58 570.518C1089.65 570.631 1088.9 571.082 1088.62 571.057C1087.38 570.951 1086.96 570.488 1087.32 569.829ZM1282.29 577.733L1281.78 577.28L1282.62 577.231L1282.29 577.733ZM1532.34 551.949C1532.63 551.757 1532.9 551.429 1533.24 551.41C1533.58 551.39 1533.96 551.681 1534.33 551.836C1534.03 552.028 1533.76 552.355 1533.42 552.375C1533.08 552.395 1532.7 552.104 1532.34 551.949H1532.34ZM1638.04 255.237L1637.45 254.781L1638.39 254.715L1638.04 255.237ZM763.59 14.3841L764.138 14.7583L763.382 14.8494L763.59 14.3841ZM1556.03 516.197L1555.51 515.81L1556.25 515.737L1556.03 516.197ZM188.786 549.502L189.384 549.994L188.387 550.053L188.786 549.502ZM168.455 401.339C168.696 401.169 168.908 400.886 169.185 400.866C169.461 400.847 169.815 401.081 170.132 401.206C169.892 401.374 169.679 401.657 169.402 401.679C169.126 401.701 168.755 401.462 168.455 401.339ZM1644.05 402.063L1644.89 401.531C1645.21 401.684 1645.79 401.827 1645.79 401.994C1645.79 402.161 1645.3 402.346 1645.02 402.523L1644.05 402.063Z" fill="#ACD8CE"/>
<path d="M1601.06 278.776C1594.46 277.299 1588.28 278.803 1581.81 279.118C1582.72 282.742 1592.85 280.76 1591.78 284.886C1595.97 287.426 1602.2 287.082 1607.48 288.047C1612.32 288.933 1617.52 289.339 1622.62 289.676C1627.25 289.981 1631.95 289.74 1636.39 288.97C1644.55 287.582 1652.64 286.572 1658.1 291.771C1658.55 292.217 1660.95 292.345 1662.28 292.187C1664.84 291.887 1664.69 290.656 1664.57 289.514C1664.38 287.692 1663.21 286.328 1659.71 285.684C1651.2 284.115 1642.68 284.037 1633.99 285.319C1631.39 285.59 1628.89 285.895 1626.39 286.201C1624.99 286.37 1624.17 286.023 1624.63 285.29C1624.82 284.979 1626.09 284.64 1626.78 284.687C1629.32 284.859 1631.82 285.179 1634.34 285.462C1632.71 283.921 1630.63 282.941 1626.98 283.153C1621.94 283.443 1616.84 283.399 1611.82 283.741C1604.42 284.246 1601.81 281.922 1600.64 278.572L1601.06 278.776Z" fill="#ACD8CE"/>
<path d="M124.135 538.661C112.811 536.866 101.486 535.057 90.1344 533.287C86.9907 532.794 85.3779 534.003 84.0145 535.207C83.0723 536.034 83.5933 537.176 85.3192 537.08C98.3833 536.401 110.564 539.392 124.135 538.661Z" fill="#ACD8CE"/>
<path d="M31.9652 278.278C37.4827 276.619 43.6658 277.025 49.6089 276.063C43.2083 276.107 36.803 276.129 30.4022 276.2C24.1329 276.269 24.4772 276.348 22.1941 280.444C21.5372 281.624 18.2441 282.414 22.9008 282.906C24.4163 283.031 25.9534 283.058 27.4805 282.987C33.6366 282.847 33.9674 282.485 31.9652 278.278Z" fill="#ACD8CE"/>
<path d="M1637.62 585.33C1638.08 586.654 1637.79 588.346 1639.2 589.207C1640.69 590.111 1643.81 590.596 1646.22 590.613C1653.31 590.67 1660.41 590.399 1667.8 590.251C1666.84 587.637 1662.74 587.9 1660.5 587.871C1656.43 587.817 1656.1 585.689 1653.42 585.047L1653.54 585.015C1644.89 588.309 1644.89 588.309 1637.61 585.318L1637.62 585.33Z" fill="#ACD8CE"/>
<path d="M161.076 404.773C157.619 404.281 154.19 403.714 150.698 403.321C143.146 402.471 135.595 401.878 127.595 404.679C139.35 407.34 150.181 406.545 161.044 404.78L161.076 404.773Z" fill="#ACD8CE"/>
<path d="M72.0211 535.987C63.2377 532.471 53.4485 532.223 43.7455 531.802C42.2369 531.738 40.7014 531.994 40.4703 532.875C40.3752 533.242 41.4758 533.971 42.2822 534.106C52.0397 535.649 62.1233 535.647 72.0211 535.987Z" fill="#ACD8CE"/>
<path d="M140.246 559.821C135.042 559.575 134.466 555.934 129.868 555.499C125.497 555.085 120.949 555.179 116.474 555.134C114.471 555.112 112.465 555.297 110.462 555.38L110.834 555.191C110.471 556.05 110.721 556.889 112.302 557.207C121.289 559.011 130.448 560.353 140.192 559.816C140.197 559.829 140.246 559.821 140.246 559.821Z" fill="#ACD8CE"/>
<path d="M1622.39 555.494C1632.05 556.407 1641.52 555.22 1651.09 554.115C1643.81 554.073 1636.53 554.019 1629.25 553.997C1626.59 553.997 1624.32 554.501 1622.7 555.72L1622.39 555.494Z" fill="#ACD8CE"/>
<path d="M1567.54 537.451C1571.17 535.752 1575.36 535.12 1580.13 535.105C1583.52 535.105 1587.18 535.509 1591.4 533.987C1585.36 532.572 1579.98 532.862 1574.78 533.003C1569.97 533.126 1567.72 534.861 1567.59 537.434L1567.54 537.451Z" fill="#ACD8CE"/>
<path d="M42.7708 140.898C39.2329 139.485 35.7179 138.028 32.0714 136.674C31.6605 136.565 31.2062 136.513 30.7493 136.523C30.2922 136.533 29.8468 136.604 29.4531 136.731C28.8462 137.009 28.3298 137.843 28.665 138.139C30.2233 139.522 31.7905 140.977 33.9241 142.077C37.3259 143.85 40.2567 143.055 42.7708 140.898Z" fill="#ACD8CE"/>
<path d="M1647.11 421.208C1649.49 421.75 1651.81 422.397 1654.26 422.808C1658.04 423.441 1660.15 422.862 1661.3 420.822C1661.69 420.125 1661.63 419.069 1660.89 418.547C1660.39 418.242 1659.78 418 1659.09 417.837C1658.4 417.675 1657.65 417.595 1656.9 417.604C1652.47 417.85 1649.62 419.431 1647.43 421.42C1647.42 421.41 1647.11 421.208 1647.11 421.208Z" fill="#ACD8CE"/>
<path d="M1647.35 296.087C1654.59 297.482 1658.22 298.243 1661.95 298.863C1662.74 298.994 1664.36 298.753 1664.67 298.43C1665.58 297.445 1663.65 297.199 1662.63 296.852C1658.78 295.562 1654.82 296.458 1647.35 296.087Z" fill="#ACD8CE"/>
<path d="M54.9098 325.037L40.4417 325.327C43.7484 327.154 47.5806 326.138 50.8965 326.578C52.1919 326.753 53.7638 326.312 55.2089 326.152L54.9098 325.037Z" fill="#ACD8CE"/>
<path d="M1607.73 490.996C1612.1 491.547 1616.53 492.101 1621.5 490.858C1616.47 489.273 1612.13 490.53 1607.73 490.996Z" fill="#ACD8CE"/>
<path d="M1585.71 284.947C1583.65 283.224 1581.14 282.05 1577.1 283.024C1576.7 283.145 1576.35 283.314 1576.09 283.52C1575.83 283.725 1575.66 283.961 1575.6 284.209C1575.6 284.649 1576.35 285.378 1577.03 285.474C1579.96 285.878 1582.99 286.156 1585.71 284.947Z" fill="#ACD8CE"/>
<path d="M110.422 522.036C110.449 519.838 107.858 519.102 104.578 519.537C101.779 519.906 99.2555 520.901 96.61 521.622L96.2703 521.556L110.766 521.839L110.422 522.036Z" fill="#ACD8CE"/>
<path d="M111.909 514.467C108.122 510.555 108.122 510.555 99.1621 512.706C103.601 514.016 107.28 514.912 111.909 514.467Z" fill="#ACD8CE"/>
<path d="M1578.34 527.675C1577.98 527.347 1577.42 527.096 1576.76 526.961C1576.1 526.827 1575.38 526.819 1574.71 526.937C1572.71 527.237 1571.4 527.976 1572.02 529.169C1572.15 529.43 1573.7 529.662 1574.52 529.595C1576.5 529.445 1578.21 528.977 1578.34 527.675Z" fill="#ACD8CE"/>
<path d="M1632.91 574.488C1632.71 574.237 1632.58 573.97 1632.52 573.698C1632.58 572.713 1634.88 571.665 1632.41 570.791C1631.89 570.606 1630.53 570.914 1629.77 571.175C1627.24 572.027 1628.62 572.96 1629.72 573.883C1629.94 574.129 1630.12 574.388 1630.23 574.656L1629.66 574.41L1633.38 574.306L1632.91 574.488Z" fill="#ACD8CE"/>
<path d="M978.11 18.2783L975.582 19.1448C976.389 19.4328 977.177 19.935 978.01 19.9621C979.554 19.9901 981.095 19.8752 982.567 19.6224C983.174 19.5264 983.564 19.0168 984.053 18.6943C983.612 18.5765 983.147 18.488 982.667 18.4309C981.113 18.3546 979.582 18.3226 978.11 18.2783Z" fill="#ACD8CE"/>
<path d="M110.472 555.39C107.201 554.593 103.963 553.748 100.629 553.037C99.9176 552.887 98.2825 553.089 98.0514 553.364C97.1998 554.398 98.9982 554.753 100.221 555.028C103.65 555.796 107.201 555.949 110.802 555.22L110.472 555.39Z" fill="#ACD8CE"/>
<path d="M1684.99 332.621C1683.77 332.912 1682.39 333.202 1681.09 333.569C1680.88 333.64 1680.71 333.736 1680.58 333.85C1680.46 333.964 1680.38 334.092 1680.37 334.224C1680.44 334.859 1681.19 334.987 1682.42 334.741C1683.82 334.463 1685.3 334.293 1686.7 334.002C1687.04 333.931 1687.41 333.374 1687.36 333.357C1686.6 333.09 1685.8 332.844 1684.99 332.621Z" fill="#ACD8CE"/>
<path d="M204.355 36.3847C202.964 36.6875 201.555 36.9657 200.197 37.3005C199.474 37.5065 198.778 37.7384 198.113 37.9947C199.087 38.0898 200.07 38.1548 201.057 38.1892C203.494 38.204 204.812 37.6722 203.988 36.2198L204.355 36.3847Z" fill="#ACD8CE"/>
<path d="M203.987 36.224C206.455 36.2905 208.919 36.384 211.388 36.416C212.838 36.4333 213.354 36.0763 212.747 35.5544C212.6 35.4615 212.415 35.3892 212.206 35.3438C211.997 35.2984 211.771 35.2811 211.547 35.2934C209.169 35.6406 206.822 36.032 204.422 36.4087C204.354 36.3841 203.987 36.224 203.987 36.224Z" fill="#ACD8CE"/>
<path d="M947.097 17.7143L959.581 18.4824C954.254 16.0896 950.521 18.3002 947.133 17.6971L947.097 17.7143Z" fill="#ACD8CE"/>
<path d="M78.3595 399.173C78.6176 399.294 78.9662 399.594 79.265 399.577C80.5327 399.51 80.6232 399.168 79.4551 398.715C79.0939 398.609 78.7108 398.526 78.3141 398.469C78.3141 398.681 78.3413 398.897 78.3595 399.173Z" fill="#ACD8CE"/>
<path d="M1622.7 555.7C1621.51 556.045 1620.23 556.328 1619.18 556.769C1618.73 556.954 1618.77 557.471 1618.58 557.837C1619 557.899 1619.45 558.037 1619.84 558C1620.05 557.976 1620.25 557.929 1620.42 557.861C1620.59 557.793 1620.74 557.706 1620.85 557.606C1621.42 556.922 1621.88 556.208 1622.38 555.496C1622.39 555.494 1622.7 555.7 1622.7 555.7Z" fill="#ACD8CE"/>
<path d="M192.801 388.425L191.587 388.696C192.171 388.942 192.696 389.25 193.353 389.39C194.485 389.636 195.4 389.341 195.042 388.883C194.83 388.607 193.584 388.568 192.801 388.425Z" fill="#ACD8CE"/>
<path d="M72.1924 527.223C70.6973 527.373 69.1479 527.437 67.7255 527.701C66.8466 527.865 66.1625 528.333 65.3923 528.663C66.0809 529.018 66.6609 529.505 67.4808 529.7C69.2114 530.111 71.3995 530.901 72.5593 529.453C73.0123 528.86 72.1561 527.944 71.8888 527.174L72.1924 527.223Z" fill="#ACD8CE"/>
<path d="M55.1429 271.408C56.8915 271.531 58.3138 271.738 59.6729 271.681C60.452 271.649 61.1721 271.189 61.9377 270.925C60.5787 270.785 59.2469 270.527 57.9106 270.551C57.0862 270.571 56.3162 271.029 55.1429 271.408Z" fill="#ACD8CE"/>
<path d="M70.3695 371.207C68.4625 371.012 66.5647 370.766 64.6396 370.65C63.7745 370.598 62.1077 370.768 62.0806 370.909C61.8269 372.26 63.8923 371.677 64.8752 371.662C66.7822 371.632 68.6709 371.322 70.6232 371.106C70.673 371.081 70.3695 371.207 70.3695 371.207Z" fill="#ACD8CE"/>
<path d="M700.626 7.81584L703.824 7.55244C703.117 6.19852 701.047 6.28715 699.194 6.38561C698.596 6.41762 698.103 7.0158 697.563 7.35305L700.626 7.81584Z" fill="#ACD8CE"/>
<path d="M671.621 11.5942C673.148 10.5259 674.693 9.46241 676.152 8.37188C676.224 8.32018 675.739 7.92631 675.404 7.86231C674.951 7.78107 674.045 7.79337 673.986 7.90169C673.121 9.103 672.369 10.3314 671.585 11.5549L671.621 11.5942Z" fill="#ACD8CE"/>
<path d="M30.2168 385.387C31.2405 385.55 32.142 385.816 33.0208 385.796C33.741 385.779 34.4387 385.429 35.1453 385.225C34.2394 385.089 33.365 384.841 32.4817 384.853C31.7523 384.86 31.0366 385.178 30.2168 385.387Z" fill="#ACD8CE"/>
<path d="M1601.71 513.836C1601.08 512.851 1599.53 512.851 1598.05 512.881C1596.57 512.91 1596.05 513.339 1596.88 513.784C1597.64 514.143 1598.54 514.401 1599.52 514.537C1600.71 514.739 1601.47 514.436 1601.71 513.836Z" fill="#ACD8CE"/>
<path d="M47.9576 387.11L50.4309 386.645C49.7106 386.494 48.986 386.214 48.2793 386.226C47.4458 386.241 46.6215 386.509 45.7925 386.667L47.9576 387.11Z" fill="#ACD8CE"/>
<path d="M177.271 387.834C178.63 387.834 180.07 387.994 181.347 387.816C182.706 387.624 182.706 387.016 181.347 386.925C179.988 386.834 178.675 387.098 177.348 387.238C177.276 387.434 177.25 387.634 177.271 387.834Z" fill="#ACD8CE"/>
<path d="M69.9285 266.595C70.3513 266.216 70.7709 265.837 71.1877 265.457C70.3528 265.33 69.4971 265.248 68.6327 265.211C68.3383 265.211 68.0393 265.593 67.7267 265.802L69.9285 266.595Z" fill="#ACD8CE"/>
<path d="M59.6709 381.12C57.7366 381.106 55.793 381.138 53.863 381.066C52.4587 381.012 51.9786 381.263 52.6401 381.94C52.776 382.083 53.6095 382.129 54.0444 382.065C55.938 381.787 57.7999 381.453 59.7207 381.128C59.7389 381.12 59.6709 381.12 59.6709 381.12Z" fill="#ACD8CE"/>
<path d="M349.59 4.17212C349.214 4.06955 348.807 4.00371 348.39 3.97764C347.113 4.03426 346.827 4.30997 347.665 4.61028C348.068 4.69072 348.512 4.68099 348.901 4.58321C349.2 4.52413 349.363 4.30751 349.59 4.17212Z" fill="#ACD8CE"/>
<path d="M1620.21 543.948L1621.52 542.948C1620.68 542.843 1619.82 542.78 1618.96 542.761C1618.62 542.761 1618.3 543.103 1617.98 543.288L1620.21 543.948Z" fill="#ACD8CE"/>
<path d="M1594.67 549.768L1596.58 548.857C1595.82 548.655 1595 548.256 1594.32 548.308C1593.63 548.359 1592.9 548.839 1592.2 549.133L1594.67 549.768Z" fill="#ACD8CE"/>
<path d="M147.257 537.333C145.961 536.983 144.72 536.515 143.348 536.321C141.975 536.127 140.544 536.37 139.969 537.214C139.833 537.411 140.1 537.876 140.385 537.938C141.246 538.125 142.338 538.374 143.103 538.231C144.435 537.985 145.599 537.465 146.895 537.091C146.962 537.126 147.257 537.333 147.257 537.333Z" fill="#ACD8CE"/>
<path d="M1567.17 508.627L1566.13 508.957C1566.49 509.057 1566.86 509.242 1567.21 509.237C1567.56 509.232 1567.9 509.028 1568.24 508.915L1567.17 508.627Z" fill="#ACD8CE"/>
<path d="M93.2582 508.474C93.7112 508.558 94.3091 508.782 94.6171 508.701C95.8037 508.386 95.7719 507.947 94.5444 507.654C94.3073 507.628 94.0625 507.631 93.8275 507.663C93.5925 507.694 93.3732 507.753 93.1857 507.837C93.009 507.915 93.2174 508.258 93.2582 508.474Z" fill="#ACD8CE"/>
<path d="M1665.65 465.071C1665.56 464.522 1665.43 463.974 1665.4 463.425C1665.35 462.75 1664.76 462.428 1663.55 462.57C1663.38 462.624 1663.24 462.7 1663.13 462.792C1663.03 462.884 1662.97 462.989 1662.96 463.097C1663.05 463.365 1663.29 463.611 1663.64 463.804C1664.34 464.2 1665.14 464.542 1665.9 464.921L1665.65 465.071Z" fill="#ACD8CE"/>
<path d="M221.793 34.0458C222.577 34.2083 223.401 34.5381 224.131 34.484C224.86 34.4298 225.562 33.9917 226.273 33.7455C225.458 33.5855 224.611 33.2655 223.841 33.3122C223.071 33.359 222.473 33.7824 221.793 34.0458Z" fill="#ACD8CE"/>
<path d="M1365.91 14.4011L1364.74 14.4724C1365.13 14.4724 1365.52 14.4872 1365.92 14.4724C1366.31 14.4577 1366.69 14.4281 1367.08 14.4035L1365.91 14.4011Z" fill="#ACD8CE"/>
<path d="M1425.28 18.1748L1424.65 18.4456L1425.96 18.4136L1425.28 18.1748Z" fill="#ACD8CE"/>
<path d="M45.4515 347.901C46.3213 348.147 47.1912 348.581 48.0609 348.581C48.9307 348.581 49.7053 348.125 50.5253 347.869C49.6691 347.635 48.8085 347.214 47.9568 347.217C47.1051 347.219 46.285 347.655 45.4515 347.901Z" fill="#ACD8CE"/>
<path d="M1650.72 572.551L1653.12 571.591C1652.21 571.384 1651.3 570.983 1650.44 571.03C1649.57 571.076 1648.89 571.586 1648.12 571.894L1650.72 572.551Z" fill="#ACD8CE"/>
<path d="M1672.66 308.238C1674.02 308.342 1675.65 308.731 1676.69 308.484C1677.95 308.157 1678.88 307.126 1677.59 306.41C1676.31 305.693 1675.07 306.267 1674.27 307.003C1673.76 307.468 1673.22 307.923 1672.69 308.384L1672.66 308.238Z" fill="#ACD8CE"/>
<path d="M58.668 320.175C57.155 320.217 55.6375 320.222 54.1381 320.315C53.3618 320.402 52.6031 320.529 51.8732 320.697C52.6976 320.795 53.5718 321.044 54.3282 320.963C55.8186 320.798 57.2455 320.451 58.7086 320.182L58.668 320.175Z" fill="#ACD8CE"/>
<path d="M1563.53 283.647C1564.27 283.854 1565 284.056 1565.73 284.258C1566.04 283.903 1566.32 283.538 1566.55 283.165C1566.55 283.133 1565.69 282.835 1565.44 282.901C1564.76 283.114 1564.12 283.364 1563.53 283.647Z" fill="#ACD8CE"/>
<path d="M1653.77 276.324L1653.75 276.716L1654.69 276.534L1653.77 276.324Z" fill="#ACD8CE"/>
<path d="M122.255 523.833C121.824 523.767 121.304 523.587 120.982 523.653C119.687 523.951 119.624 524.392 120.846 524.707C121.159 524.791 121.851 524.655 122.146 524.498C122.386 524.377 122.255 524.062 122.255 523.833Z" fill="#ACD8CE"/>
<path d="M389.379 3.72644C390.208 3.91107 391.023 4.21879 391.875 4.24833C393.093 4.30495 393.6 3.88891 393.12 3.33256C392.973 3.25002 392.79 3.18945 392.588 3.15668C392.385 3.1239 392.171 3.12005 391.965 3.14548C391.177 3.36704 390.484 3.69198 389.728 3.95785L389.379 3.72644Z" fill="#ACD8CE"/>
<path d="M96.61 521.622C95.7048 521.143 95.7675 520.759 96.7933 520.468C96.9698 520.658 97.3591 520.887 97.2731 521.032C97.1464 521.239 96.6759 521.384 96.3138 521.556C96.4104 521.582 96.5076 521.604 96.61 521.622Z" fill="#ACD8CE"/>
<path d="M1557.62 538.286C1560.92 538.01 1564.22 537.733 1567.53 537.454C1567.55 537.445 1567.57 537.435 1567.59 537.424C1564.42 537.695 1560.99 537.348 1558.08 538.409C1558.03 538.402 1557.62 538.286 1557.62 538.286Z" fill="#ACD8CE"/>
<path d="M1567.15 274.655C1567.1 275.063 1567.05 275.474 1567 275.886C1567.09 275.489 1567.17 275.093 1567.25 274.694L1567.15 274.655Z" fill="#ACD8CE"/>
<path d="M138.241 540.605C138.853 540.852 139.451 541.3 139.99 541.28C140.597 541.258 141.154 540.822 141.729 540.564C141.394 540.391 140.991 540.047 140.733 540.071C139.875 540.209 139.041 540.388 138.241 540.605Z" fill="#ACD8CE"/>
<path d="M84.1638 548.382C83.7924 548.299 83.3802 548.111 83.0631 548.153C81.8896 548.301 81.7537 548.646 82.7367 549.005C82.9814 549.091 83.5793 548.986 83.901 548.872C84.1003 548.801 84.0823 548.552 84.1638 548.382Z" fill="#ACD8CE"/>
<path d="M1653.42 585.047L1656.5 585.101L1653.59 585.017C1653.53 585.022 1653.47 585.032 1653.42 585.047Z" fill="#ACD8CE"/>
<path d="M456.824 6.08016L457.852 5.80939C457.41 5.61306 456.938 5.43688 456.443 5.28264C456.38 5.26541 455.99 5.60263 455.75 5.77494L456.824 6.08016Z" fill="#ACD8CE"/>
<path d="M710.389 12.6013L708.242 12.7687C709.026 12.7096 709.809 12.653 710.642 12.5767C710.683 12.5595 710.389 12.6013 710.389 12.6013Z" fill="#ACD8CE"/>
<path d="M71.8943 527.183L73.2986 527.38C72.9634 527.348 72.6326 527.314 72.2476 527.26C72.1345 527.228 72.0162 527.203 71.8943 527.183Z" fill="#ACD8CE"/>
<path d="M178.12 390.787C177.117 390.801 176.113 390.776 175.116 390.713C173.757 390.578 172.815 390.777 173.195 391.186C173.426 391.432 174.763 391.528 175.515 391.444C176.462 391.338 177.327 390.982 178.278 390.706L178.12 390.787Z" fill="#ACD8CE"/>
<path d="M85.3833 265.376C84.9304 265.31 84.4368 265.13 84.0746 265.194C82.6617 265.44 82.5623 265.844 83.8075 266.152C84.0433 266.179 84.2875 266.178 84.5223 266.148C84.7573 266.119 84.9771 266.061 85.166 265.979C85.3788 265.888 85.3154 265.585 85.3833 265.376Z" fill="#ACD8CE"/>
<path d="M109.659 270.074L108.4 269.973L108.644 270.44L109.659 270.074Z" fill="#ACD8CE"/>
<path d="M117.105 267.942C117.001 268.099 116.901 268.254 116.802 268.412L118.211 268.109L117.105 267.942Z" fill="#ACD8CE"/>
<path d="M1669.7 400.6C1669.96 400.383 1670.22 400.167 1670.48 399.952C1669.67 399.793 1668.83 399.675 1667.98 399.6C1667.72 399.6 1667.39 399.97 1667.1 400.169L1669.7 400.6Z" fill="#ACD8CE"/>
<path d="M1633 576.116L1635.38 575.293L1632.91 574.488L1633.36 574.309V576.278L1633 576.116Z" fill="#ACD8CE"/>
<path d="M997.751 593.939C998.996 593.924 1000.24 593.909 1001.48 593.907L1001.56 593.949L997.687 594.008L997.751 593.939Z" fill="#ACD8CE"/>
<path d="M60.2506 265.689C59.9607 265.866 59.6754 266.046 59.39 266.223C59.7252 266.376 60.0786 266.659 60.3866 266.644C60.6947 266.629 60.9663 266.324 61.2517 266.152L60.2506 265.689Z" fill="#ACD8CE"/>
<path d="M1672.69 308.373L1673.4 308.952C1673.18 308.735 1672.94 308.519 1672.7 308.27C1672.66 308.238 1672.69 308.373 1672.69 308.373Z" fill="#ACD8CE"/>
<path d="M763.583 0.615155C763.696 0.541301 763.805 0.464988 763.918 0.388672L763.583 0.615155Z" fill="#ACD8CE"/>
<path d="M763.92 0.393475L765.071 0.770138C765.311 0.331937 764.831 0.277782 763.607 0.605202L763.92 0.393475Z" fill="#ACD8CE"/>
<path d="M650.385 8.37435L651.421 8.55159L651.29 8.04446L650.385 8.37435Z" fill="#ACD8CE"/>
<path d="M752.767 8.12066C753.582 9.15934 754.48 7.73423 753.039 8.5317C752.649 8.74584 752.259 8.38157 753.433 8.26589C753.216 8.21031 752.994 8.16181 752.767 8.12066Z" fill="#ACD8CE"/>
<path d="M838.252 9.84192L837.799 10.1422L838.542 9.97486C838.45 9.92787 838.353 9.88349 838.252 9.84192Z" fill="#ACD8CE"/>
<path d="M1411.45 35.5717C1413.41 35.9434 1412.36 34.6782 1412.42 35.7834C1412.45 36.1773 1411.51 36.0813 1412.01 35.4363C1412.04 35.4191 1411.45 35.5717 1411.45 35.5717Z" fill="#ACD8CE"/>
<path d="M25.4465 175.292L26.3521 175.705C26.6011 175.54 27.0586 175.363 27.0359 175.213C27.0133 175.063 26.4971 174.935 26.1982 174.797L25.4465 175.292Z" fill="#ACD8CE"/>
<path d="M1671.11 466.757L1670.91 467.313C1670.88 467.111 1670.83 466.91 1670.75 466.713C1670.7 466.722 1671.11 466.757 1671.11 466.757Z" fill="#ACD8CE"/>
<path d="M110.747 521.839C110.623 521.898 110.508 521.962 110.402 522.031C110.525 521.971 110.64 521.907 110.747 521.839Z" fill="#ACD8CE"/>
<path d="M162.176 542.537C162.262 543.33 162.352 544.123 162.438 544.915C162.438 544.915 161.958 544.551 161.935 544.554C161.836 543.997 161.759 543.433 161.677 542.872L162.176 542.537Z" fill="#ACD8CE"/>
<path d="M72.5139 365.37L71.6577 365.124C71.8367 365.112 72.0177 365.112 72.1968 365.124L72.5139 365.37Z" fill="#ACD8CE"/>
<path d="M17.6111 436.065C15.5355 436.008 17.584 437.05 16.8181 436.016C16.5961 435.715 17.3438 435.646 17.158 436.232C17.158 436.247 17.6111 436.065 17.6111 436.065Z" fill="#ACD8CE"/>
<path d="M1665.9 464.921C1667.99 465.219 1669.95 465.623 1671.07 466.757C1671.11 466.757 1670.7 466.722 1670.75 466.713C1668.59 466.619 1666.42 466.516 1665.66 465.076C1665.74 465.022 1665.82 464.971 1665.9 464.921Z" fill="#ACD8CE"/>
<path d="M1308.59 579.966C1309.08 580.37 1309.41 580.901 1310.1 581.16C1311.46 581.667 1312.89 581.522 1313.68 580.7C1314.23 580.121 1313.62 579.734 1312.46 579.533C1310.98 579.274 1309.69 579.311 1308.59 579.966Z" fill="#ACD8CE"/>
<path d="M1367.39 581.019C1366.03 580.645 1364.72 580.15 1363.27 579.944C1362.52 579.838 1361 580.123 1360.74 580.436C1360.29 580.98 1361.29 581.386 1362.61 581.28C1364.12 581.157 1365.6 580.953 1367.18 580.827C1367.26 580.888 1367.33 580.953 1367.39 581.019Z" fill="#ACD8CE"/>
<path d="M1322.67 580.727L1323.82 579.742C1323.44 579.631 1323.04 579.553 1322.62 579.513C1322.2 579.545 1321.78 579.614 1321.4 579.717L1322.67 580.727Z" fill="#ACD8CE"/>
<path d="M1363.2 584.193L1362.63 584.806C1362.63 584.806 1363.18 584.417 1363.2 584.392C1363.21 584.326 1363.21 584.259 1363.2 584.193Z" fill="#ACD8CE"/>
<path d="M1393.75 566.2L1392.66 566.508C1392.91 566.641 1393.26 566.911 1393.39 566.884C1393.92 566.739 1394.43 566.569 1394.91 566.375L1393.75 566.2Z" fill="#ACD8CE"/>
<path d="M1368.05 563.6C1368.89 563.446 1369.74 563.331 1370.61 563.255C1371.37 563.265 1372.13 563.319 1372.87 563.418C1372.58 563.35 1372.28 563.309 1371.96 563.297C1371.51 563.327 1371.09 563.489 1370.64 563.502C1369.77 563.526 1368.9 563.487 1368.02 563.479C1367.96 563.484 1368.05 563.6 1368.05 563.6Z" fill="#ACD8CE"/>
<path d="M254.292 566.52C253.454 566.21 252.646 565.877 251.772 565.599C251.329 565.457 250.827 565.379 250.314 565.373C249.938 565.373 249.571 565.555 249.2 565.656C249.988 565.791 250.767 565.951 251.568 566.052C252.569 566.178 253.593 566.251 254.626 566.342C254.644 566.338 254.292 566.52 254.292 566.52Z" fill="#ACD8CE"/>
<path d="M277.317 567.194L277.647 566.685L276.737 566.756L277.317 567.194Z" fill="#ACD8CE"/>
<path d="M140.253 339.255L141.281 339.324C141.059 339.817 140.855 339.733 140.688 339.078C140.701 339.061 140.253 339.255 140.253 339.255Z" fill="#ACD8CE"/>
<path d="M164.63 342.087C164.575 342.254 164.516 342.421 164.462 342.579C164.68 342.475 164.915 342.375 165.105 342.259C164.953 342.197 164.794 342.139 164.63 342.087Z" fill="#ACD8CE"/>
<path d="M1483.66 566.128C1483.91 566.566 1484.17 567.002 1484.42 567.44C1486.07 566.702 1483.47 566.623 1483.7 566.082C1483.68 566.057 1483.66 566.128 1483.66 566.128Z" fill="#ACD8CE"/>
</svg>
