<svg width="359" height="26" viewBox="0 0 359 26" fill="none" xmlns="http://www.w3.org/2000/svg">
<path d="M67.4006 7.30465C67.4006 3.36732 64.5065 0.380371 59.567 0.380371H50.7871V25.6201H52.8742V14.2968H59.1356L67.832 25.6201H70.2252L61.4871 14.1475C63.1672 13.9261 64.703 13.1032 65.7959 11.8385C66.8888 10.5739 67.4608 8.95788 67.4006 7.30465ZM52.8742 12.5047V2.18612H59.5391C63.3795 2.18612 65.3413 4.39917 65.3413 7.34538C65.3413 10.2916 63.3795 12.5047 59.5391 12.5047H52.8742Z" fill="white"/>
<path d="M198.36 11.0926H182.443V0.380371H180.411V25.6201H182.443V12.8848H198.36V25.6201H200.392V0.380371H198.36V11.0926Z" fill="white"/>
<path d="M303.719 21.4924L286.563 0H285.77V25.6198H287.815V4.58903L304.943 26H305.764V0.380157H303.719V21.4924Z" fill="white"/>
<path d="M254.783 0L251.652 3.05483C249.715 1.46088 247.351 0.441247 244.839 0.11639C242.327 -0.208468 239.772 0.175025 237.476 1.22156C235.18 2.2681 233.24 3.93395 231.883 6.02231C230.526 8.11067 229.811 10.5343 229.821 13.0068C229.814 15.3427 230.443 17.6384 231.643 19.6595L233.188 18.1661C232.38 16.5465 231.966 14.7671 231.977 12.9661C231.925 11.5131 232.174 10.0648 232.711 8.70869C233.249 7.35259 234.062 6.11686 235.103 5.0762C236.143 4.03555 237.389 3.21159 238.765 2.65413C240.141 2.09668 241.619 1.8173 243.109 1.8329C245.736 1.81585 248.282 2.72732 250.274 4.39896L228.513 25.6198H231.393L234.301 22.7958C236.226 24.4368 238.594 25.5019 241.123 25.8637C243.652 26.2255 246.234 25.8687 248.561 24.8361C250.887 23.8034 252.86 22.1385 254.242 20.0407C255.624 17.9428 256.358 15.5008 256.355 13.0068C256.363 10.5779 255.679 8.19469 254.379 6.12324L252.876 7.57598C253.763 9.2544 254.217 11.1186 254.198 13.0068C254.261 15.1232 253.689 17.2115 252.551 19.0146C251.414 20.8178 249.761 22.2572 247.796 23.1559C245.832 24.0546 243.64 24.3734 241.492 24.073C239.345 23.7727 237.333 22.8663 235.706 21.4653L257.663 0H254.783Z" fill="white"/>
<path d="M149.452 7.30463C149.491 5.61446 148.87 3.97308 147.716 2.71273C146.561 1.45237 144.958 0.66719 143.233 0.516113L141.507 2.18609C145.348 2.18609 147.31 4.39914 147.31 7.34536C147.31 10.2916 145.348 12.5046 141.507 12.5046H134.87V8.66233L132.839 10.6446V25.5793H134.87V14.2968H141.187L149.884 25.62H152.277L143.539 14.1474C145.219 13.9261 146.755 13.1032 147.848 11.8385C148.941 10.5738 149.513 8.95785 149.452 7.30463Z" fill="white"/>
<path d="M14.596 1.85986L13.1211 3.29903C15.0164 4.12666 16.6133 5.49064 17.7049 7.21423C18.7965 8.93783 19.3325 10.9416 19.2433 12.9659C19.2433 18.9669 15.0691 23.8275 7.29103 23.8275H2.03147V14.1063L0 16.1022V25.6061H7.29103C16.3492 25.6061 21.3583 20.1074 21.3583 12.9523C21.4661 10.6607 20.883 8.38857 19.6811 6.41702C18.4792 4.44548 16.7112 2.86107 14.596 1.85986Z" fill="white"/>
<path d="M346.116 0L333.245 25.6198H335.36L346.116 4.30392L356.844 25.6198H359L346.116 0Z" fill="white"/>
</svg>
