<svg width="278" height="647" viewBox="0 0 278 647" fill="none" xmlns="http://www.w3.org/2000/svg">
<path d="M60.1799 634.258C58.1454 633.754 56.076 633.353 54.0844 632.713C52.5672 632.222 51.5057 631.161 51.7041 629.365C51.8917 627.666 53.3472 627.85 54.4623 627.685C56.5478 627.373 58.66 627.237 60.7482 626.935C62.2198 626.724 62.3565 625.3 62.9087 624.286L62.6889 624.449L64.8842 622.44L64.5465 622.707C66.7257 622.867 69.8539 621.488 69.3902 625.855C69.3151 626.562 69.9933 627.605 70.6312 628.085C72.5755 629.528 74.5979 630.864 76.6892 632.086C77.3674 632.492 78.6004 632.905 79.0373 632.585C79.9005 631.953 79.2759 631.166 78.5602 630.496C77.4559 629.461 76.3166 628.392 75.4991 627.138C73.6522 624.31 74.644 618.471 77.6221 617.044C80.6993 615.571 82.5274 611.245 86.9637 612.752C89.5745 609.745 94.9436 612.368 96.9888 607.889C97.2113 607.403 99.2699 607.889 100.433 607.659C102.562 607.264 103.159 606.456 100.825 605.258C99.6827 604.672 100.181 603.991 100.514 603.082C101.111 601.454 100.085 601.025 98.6373 601.265C98.3403 601.347 98.072 601.51 97.8626 601.735C95.7477 603.783 93.6328 602.644 92.2335 601.134C90.9657 599.769 93.5524 598.2 92.2952 596.247C97.0612 596.413 100.723 597.949 104.443 599.32C106.405 600.043 108.464 601.033 110.504 599.534C110.397 599.849 110.193 600.163 110.236 600.422C111.179 604.832 115.133 607.339 119.35 606.197C119.588 606.131 119.931 605.827 119.934 605.632C119.934 605.077 119.964 604.405 119.666 603.986C118.706 602.572 117.095 602.602 115.618 602.497C113.426 602.34 111.423 601.913 110.322 599.731C110.273 599.44 110.264 599.144 110.298 598.851C110.968 596.362 110.03 594.38 109.129 591.443C108.341 588.864 106.148 586.353 107.494 583.296L107.255 583.422C109.075 582.059 108.595 578.641 111.866 578.513C115.396 578.377 113.12 575.352 113.868 573.8C114.694 572.087 112.463 571.788 111.04 571.439C109 570.943 106.995 570.436 104.875 571.009C104.009 571.244 102.945 571.175 102.535 570.252C101.87 568.75 103.259 568.264 104.186 567.702C105.282 567.037 106.062 566.266 105.934 564.893C109.15 565.221 112.367 565.456 115.584 565.917C117.671 566.234 119.807 565.878 121.676 564.901C122.014 564.73 122.132 564.002 122.213 563.511C122.237 563.329 121.848 562.937 121.612 562.905C120.446 562.737 119.071 563.009 118.127 562.487C114.49 560.475 111.389 561.419 108.341 563.684C107.633 564.218 106.751 564.511 105.95 564.914C106.864 561.916 104.443 561.462 102.604 560.518C100.573 559.475 98.9081 560.475 97.6428 561.724C95.9595 563.393 94.6943 565.474 93.1315 567.277C92.842 567.614 91.9816 567.6 91.4133 567.528C90.2741 567.379 89.8961 566.37 90.0731 565.514C90.6253 562.9 90.1749 559.568 94.1796 559.093C95.1312 558.981 95.9836 558.482 96.0158 557.455C96.0667 555.764 94.6004 555.796 93.4719 555.556C92.6678 555.385 92.3542 555.06 92.6973 553.974C96.7422 554.001 100.94 554.033 105.135 554.049C106.355 554.049 107.58 554.081 108.788 553.969C110.555 553.803 111.501 552.846 111.402 550.984C111.327 549.522 110.499 548.818 109.137 548.703C106.397 548.474 103.653 548.17 100.908 548.151C98.6347 548.124 96.7449 547.351 94.8819 546.03C97.2783 543.026 100.511 545.977 103.591 544.6C101.832 542.784 99.6908 543.693 97.9431 543.283C96.1954 542.872 94.4825 542.482 93.1878 542.178C93.7387 541.57 94.2423 540.92 94.6943 540.236C94.7559 540.129 94.0215 539.246 93.6542 539.246C88.6872 539.228 84.1786 537.275 77.8794 535.659C83.3852 535.37 87.3094 535.176 91.231 534.954C92.0352 534.909 92.4051 534.442 92.188 533.757C92.0164 533.223 91.81 532.423 91.4026 532.247C86.5777 530.267 81.541 529.062 76.2764 529.299C73.3279 529.43 71.5507 528.622 71.7195 525.274C71.7624 524.473 71.2906 523.561 69.9692 524.284C67.0608 525.885 66.2915 523.412 65.2943 521.616C65.0477 521.065 65.019 520.441 65.2139 519.869C65.5409 518.944 66.2191 518.57 67.3208 518.901C70.2694 519.786 73.2662 520.605 76.1076 518.554L76.3595 518.773C74.8129 517.14 72.8587 516.399 70.6607 516.191C68.9318 516.028 68.0258 515.302 67.9614 513.355C67.9078 511.669 67.0152 510.909 64.9244 511.333C62.3297 511.866 61.4692 509.378 60.6195 507.598C59.9949 506.302 63.0748 503.754 64.8359 503.792C66.9509 503.837 68.6986 506.35 70.8537 505.043C73.1483 503.653 75.1425 501.783 77.2602 500.105C77.4807 499.913 77.6548 499.674 77.7695 499.406C78.1957 498.496 78.1072 497.379 77.2334 497.104C74.3304 496.189 71.3362 495.618 68.2536 496.037C66.2352 496.304 67.3342 497.611 67.4066 498.638C67.4253 498.905 66.3504 499.532 66.2808 499.465C63.2598 496.597 58.7941 495.768 56.1645 492.369C54.8912 490.726 55.5292 487.834 57.2903 488.05C62.0107 488.645 63.3643 483.582 67.1385 482.803C67.2565 482.779 67.0367 481.152 66.9777 480.272C69.0578 480.141 69.7172 482.558 71.5346 482.79C71.8052 482.799 72.0743 482.746 72.3208 482.634C72.5673 482.523 72.7844 482.356 72.9553 482.147C73.2233 481.712 73.3654 480.813 73.1 480.493C72.5934 479.887 71.7919 479.253 71.0548 479.175C69.6368 479.023 68.7147 481.144 66.9991 480.242C66.463 480.205 65.4873 480.266 65.4498 480.112C64.5947 476.481 64.1283 472.933 68.8916 471.442C67.6076 468.9 64.9887 467.923 64.1926 464.917C63.3965 461.911 60.5525 459.432 56.982 458.667C55.7141 458.4 54.7384 457.824 54.5535 456.407L54.3685 456.626C55.8482 456.546 57.7111 457.266 58.6574 455.965C59.483 454.842 60.0646 453.014 59.7778 451.71C59.0782 448.509 58.8852 445.076 56.0626 442.621C52.846 439.834 52.779 434.755 48.7501 432.421C48.214 432.111 48.5545 430.553 48.0452 429.908C45.7828 427.075 48.9834 423.423 46.3806 420.571C44.1504 418.125 42.4188 415.236 40.3226 412.656C39.2825 411.379 39.1646 410.045 38.9448 408.506C38.4087 404.723 36.9425 404.04 33.439 405.515C32.6349 405.854 31.9567 406.534 31.1391 406.756C30.7773 406.852 30.1634 406.241 29.764 405.849C29.6032 405.691 29.6675 405.262 29.705 404.963C29.7426 404.664 29.7962 404.2 29.9731 404.142C34.597 402.49 34.6104 398.518 35.117 394.602C35.5995 390.854 38.3899 388.107 40.3333 385.055C41.7701 382.796 40.8694 382.041 39.186 380.787C36.3983 378.73 36.3179 378.013 38.7116 376.14C40.3843 374.833 42.0756 373.648 42.92 371.653C43.5151 370.242 42.8825 369.06 41.4216 369.284C39.1378 369.634 38.3176 368.484 39.2772 366.942C40.8185 364.488 41.376 362.674 38.6124 360.807C37.6421 360.15 38.5266 359.206 38.8376 358.406C39.5265 356.624 40.7515 355.458 42.408 354.463C43.9118 353.561 43.9842 352.14 42.7753 350.648C41.6468 349.259 40.3253 347.877 40.5075 345.887C41.1589 344.145 43.0031 344.31 44.1986 343.486C47.5654 341.144 47.5305 340.344 43.759 338.25C42.9549 337.801 41.9952 337.487 42.5421 336.334C42.6709 336.082 42.8489 335.858 43.0656 335.675C43.2824 335.491 43.5336 335.353 43.8046 335.267C46.7693 334.611 49.7661 334.104 52.7361 333.469C55.6471 332.848 59.3087 332.965 61.2092 331.218C63.0266 329.548 65.0879 327.798 66.7552 325.997C66.0288 323.49 61.6461 325.419 62.3163 322.463C62.7693 320.459 65.5007 321.527 67.2082 321.495C70.8752 321.425 74.1776 319.569 78.067 319.961C80.1525 320.171 82.6855 318.501 84.6289 317.133C87.9581 314.783 91.542 313.615 95.5038 312.721C100.061 311.694 104.792 311.011 108.606 307.303C111.019 304.966 113.378 303.707 110.665 300.266C110.442 299.999 110.997 299.162 111.07 298.577C111.437 295.515 110.777 295.251 108.247 294.784C105.189 294.216 104.382 297.628 101.865 297.628L101.806 297.665C100.645 297.348 99.5005 296.915 98.321 296.75C97.4552 296.627 96.1444 296.499 95.7048 296.982C91.9333 301.128 85.4787 297.884 81.8037 302.093L82.0369 301.882C77.4585 302.949 73.3493 300.178 68.7227 300.405C64.6778 300.602 60.5444 299.071 56.4566 298.284C56.3226 298.257 56.2636 297.833 56.1618 297.574C57.4538 295.774 60.0566 296.134 61.0618 296.478C65.2005 297.897 65.75 295.248 66.6319 292.589C66.7043 292.37 67.1224 292.263 67.3959 292.095C68.8165 294.248 70.8028 295.534 73.3815 295.782C74.6118 295.902 75.8851 295.654 76.1531 294.211C76.3729 293.023 75.2659 292.749 74.4134 292.682C71.9849 292.498 69.5456 292.447 67.1117 292.341C67.3101 290.66 68.0526 289.406 69.9102 289.337C72.9472 289.235 75.9923 289.297 79.024 289.166C79.4984 289.145 80.2275 288.526 80.3267 288.072C80.4259 287.619 79.9166 286.739 79.5225 286.635C77.4719 286.08 75.3892 285.474 73.285 285.325C65.3319 284.762 57.3653 284.402 49.4096 283.892C43.9172 283.543 38.398 283.626 33.0369 281.822C30.7826 281.065 28.1503 281.022 25.7379 281.222C20.7816 281.635 15.9781 280.849 10.1909 279.888C14.4609 278.776 17.9376 279.32 21.3499 279.147C24.0063 279.013 26.5715 279.587 28.992 277.194C30.9569 275.247 34.27 276.578 36.9693 276.311C40.0894 276.004 43.2417 275.359 42.7592 271.011C42.6386 269.906 43.2336 269.618 44.1584 269.234C49.2755 267.1 54.6419 267.071 60.0807 266.833C57.7245 266.566 55.363 266.342 53.0175 266.001C52.0686 265.862 51.562 265.249 51.8542 264.174C52.6583 261.199 52.4653 260.756 50.2298 260.892C44.7374 261.223 39.2397 261.879 33.0745 260.94C37.0229 258.513 40.7408 258.182 44.6007 258.089C55.5908 257.822 66.5568 257.377 78.7425 256.963C76.5981 256.147 75.0863 256.043 74.7057 255.336C73.7675 253.586 73.1992 252.201 70.6527 252.057C65.1978 251.751 59.558 253.034 54.3015 250.516C50.4978 252.359 46.4824 251.204 42.5608 251.276C41.0364 251.332 39.5127 251.142 38.0495 250.713C36.7092 250.275 34.9562 250.878 33.9296 249.331C36.9719 248.91 39.9393 248.331 42.9307 248.117C50.7927 247.557 58.5743 245.514 66.5756 247.643C70.0603 248.571 73.88 248.491 79.04 247.026C71.2451 245.725 64.8681 244.519 58.4456 243.638C54.4838 243.105 50.4844 243.006 47.2303 240.211C46.2733 239.389 43.684 240.304 44.3514 237.853C44.6945 236.585 46.2841 236.601 47.501 236.548C49.0343 236.484 50.5702 236.396 52.1035 236.431C55.5185 236.508 58.8262 236.431 61.6301 233.982C63.1097 232.696 65.0397 232.84 66.9107 232.915C67.2002 232.915 67.8167 232.099 67.7631 231.733C67.7006 231.451 67.5771 231.185 67.4013 230.955C67.2254 230.724 67.0013 230.535 66.7445 230.399C64.1363 229.332 61.4585 228.724 58.7404 230.055C51.4709 233.611 43.7992 231.877 36.2241 231.941C38.0254 229.94 40.4191 230.413 42.5876 230.087C45.4933 229.652 48.7314 230.421 50.5783 226.907C51.2913 225.558 53.3312 225.896 54.8671 225.803C57.2796 225.654 59.692 225.454 63.5011 225.174C59.1693 222.506 56.5317 219.59 52.326 219.422C51.495 219.39 50.3933 219.257 50.6855 217.998C50.79 217.547 51.5084 216.915 51.948 216.915C56.4647 216.915 59.885 214.148 63.6833 212.422C63.6592 212.422 63.3563 212.956 63.3563 212.956L63.4662 212.572C62.5924 210.438 60.6383 210.336 58.8718 210.496C48.8118 211.411 38.8135 209.928 28.7829 209.864C28.2468 209.864 27.7108 209.397 26.9334 209.04C28.7588 207.405 30.8202 208.138 32.6804 208.24C37.8646 208.506 43.0406 208.629 48.1551 207.618C49.7634 207.298 50.8758 206.338 50.0475 204.438C51.3878 205.153 52.7682 205.772 54.0361 206.572C56.4781 208.09 59.046 208.341 61.7748 207.639C62.6004 207.426 63.7048 207.255 63.2839 206.156C63.0159 205.433 61.807 204.348 61.4076 204.492C57.6548 205.89 53.8726 202.891 50.1708 204.612C49.2246 203.857 46.4851 203.569 49.2997 201.787C50.2084 201.211 51.6666 201.728 52.4251 200.528C51.1278 198.695 49.163 199.271 47.4179 199.234C42.5072 199.125 37.5911 199.167 32.6751 199.031C30.1447 198.959 27.751 198.719 28.6409 194.931C28.9089 193.741 27.4159 193.064 26.0435 193.064C22.0495 193.026 18.0564 192.962 14.0642 192.872C12.8901 192.842 11.7214 192.677 10.7913 192.605C9.52609 190.866 11.0593 190.122 11.4078 189.081C12.086 187.102 12.6248 185.128 15.3562 184.856C17.1549 184.68 18.9133 183.965 20.6556 183.389C21.508 183.122 22.7759 182.778 23.0091 182.156C25.1884 176.357 30.6593 174.612 35.3529 171.886C35.7979 171.619 36.2938 170.939 36.2616 170.483C36.1839 169.336 35.1572 169.245 34.2914 169.368C31.962 169.706 30.0374 169.28 28.8044 167.052C28.5149 166.519 27.9574 166.164 27.5982 165.673C25.4806 162.773 23.9714 158.791 21.122 157.244C18.1735 155.643 13.9248 156.462 10.2552 156.104C7.81324 155.864 5.38736 155.443 2.96417 155.037C2.07692 154.891 1.03688 154.669 0.918933 153.578C0.792948 152.418 1.80084 152.333 2.6586 152.124C12.2334 149.825 21.9583 148.595 31.7637 147.774C32.3757 147.716 32.9905 147.693 33.6052 147.704C36.3232 147.771 38.4301 146.781 39.438 144.156C40.4727 141.489 39.2129 138.779 35.9533 136.578C34.9508 135.898 33.8089 135.415 32.8466 134.681C32.541 134.449 32.4177 133.334 32.5786 133.243C36.7897 130.808 33.2621 125.713 36.208 122.885C35.9078 119.217 36.0338 115.64 37.2802 112.073C38.9662 107.2 40.4271 102.241 41.7728 97.263C42.2124 95.6358 43.113 94.6728 44.3434 93.7018C48.8627 90.1299 51.5808 85.5736 52.0981 79.729C52.3482 77.2939 52.8504 74.891 53.5965 72.5585C56.7756 62.2563 63.7396 56.6251 74.5395 56.8411C84.2188 57.0332 93.421 55.1312 102.615 52.6664C103.792 52.3489 104.953 51.7034 106.129 51.6847C125.555 51.3753 144.474 47.0271 163.632 44.5996C171.856 43.5566 180.055 42.3322 188.293 41.2971C190.542 41.0117 192.405 40.1874 193.965 38.6002L193.624 38.4402C195.94 40.7396 198.8 39.9073 201.467 39.6406C211.53 38.6242 221.571 37.4158 231.639 36.3888C254.502 34.0546 277.294 30.9869 300.309 30.2533C313.175 29.8425 326.074 29.3731 338.858 27.9939C351.011 26.6841 363.371 27.6525 375.353 24.6541C382.896 26.3533 390.305 22.0906 397.869 24.1499C399.357 21.7971 401.086 22.2453 403.037 23.5897C404.487 24.5954 406.021 24.3287 407.219 23.1603C408.621 21.7918 409.789 22.0745 411.186 23.1336C412.475 24.1099 414.226 24.4914 415.558 23.7791C422.527 20.0605 430.652 23.3283 437.64 19.9538C438.115 19.7244 439.106 19.6684 439.34 19.9538C442.937 24.3553 447.839 22.2453 452.158 22.3546C456.715 22.4747 461.29 21.8665 465.828 21.309C466.877 21.1809 467.791 19.9752 468.777 19.2576L468.758 19.2389C468.729 20.41 469.667 21.1062 470.45 20.8181C473.315 19.7244 477.419 22.3707 479.309 17.8971C479.483 17.481 482.142 17.9798 483.598 18.2492C489.422 19.3163 495.175 19.3509 500.597 16.6834C504.908 14.5626 509.312 14.8614 513.796 15.5897L513.775 16.2405L513.971 15.8084C516.954 12.3992 520.624 11.1908 524.979 12.6073C528.151 13.645 530.609 12.0044 533.174 10.7187L533 10.8574C534.691 11.7697 535.739 13.6797 538.465 11.6897C540.993 9.84369 544.448 8.62194 547.962 9.55559C548.466 9.6863 549.083 10.2011 549.217 10.6626C549.332 11.0681 548.981 11.9217 548.606 12.1005C547.011 12.8607 545.333 13.4342 543.199 14.2825C545.577 15.8057 547.488 17.0968 549.482 18.2572C549.922 18.524 551.152 18.3426 551.155 18.2946C551.393 15.5096 555.066 15.8164 555.556 13.4609C555.704 12.7594 554.841 11.8951 554.736 11.0601C554.701 10.7613 555.511 10.3025 555.996 10.0224C556.216 9.89704 556.746 9.90238 556.864 10.0544C558.111 11.655 559.992 13.0181 559.513 15.4243C559.365 16.1632 557.947 16.9955 559.223 17.5583C560.175 17.9691 561.515 17.5397 562.67 17.4009C562.869 17.3769 563.102 16.9528 563.174 16.6754C563.584 15.0908 564.343 13.7063 566.19 13.9491C567.337 14.1011 568.399 14.8881 569.487 15.3709C568.659 15.0641 567.86 14.6347 567.026 14.5546C566.619 14.5146 565.841 15.0695 565.769 15.4536C565.571 16.5206 566.377 17.0381 567.262 16.718C568.031 16.4513 568.626 15.6804 569.299 15.1362C572.17 13.0981 575.293 12.3325 578.681 13.5356C581.697 14.6027 582.254 12.5299 582.946 10.4812C583.175 9.9291 583.443 9.39419 583.75 8.88069L583.364 9.01674C584.401 11.2042 583.257 13.8557 585.088 16.2645C589.891 16.1365 594.928 15.9578 599.997 16.638C602.98 17.0382 606.784 17.3476 608.842 13.7357L608.665 13.6903C611.962 17.1582 615.552 17.0675 619.261 14.4639C621.124 13.1568 622.845 12.0098 624.676 14.4773C625.52 15.6137 626.134 15.1815 626.325 14.0078C627.094 9.32084 629.868 12.7193 631.779 12.6447L631.793 12.6046L630.522 13.613C630.849 14.0025 631.187 14.736 631.501 14.7254C632.707 14.6854 634.283 14.8294 635.042 14.1492C638.526 11.0388 642.577 13.5916 646.27 12.7887C647.611 12.5006 647.257 15.9338 649.463 14.9228C650.562 14.4239 651.471 13.2395 652.575 13.0688C656.813 12.4046 661.083 11.7644 665.361 11.6096C670.859 11.4149 676.375 11.695 681.887 11.7697C682.193 11.7506 682.5 11.7667 682.803 11.8177C685.591 12.5219 687.14 9.40087 689.44 9.49957C691.807 9.60093 694.118 10.8014 696.479 11.4229C697.015 11.5643 697.98 11.5243 698.23 11.1855C701.232 7.16543 704.285 9.1848 707.737 10.6066C710.576 11.775 713.833 11.1775 716.808 10.2785C719.15 9.52025 721.65 9.38867 724.059 9.89703C731.366 11.4842 738.614 9.11544 745.927 9.39287C746.945 9.43289 746.862 5.85565 749.452 6.7813C750.878 7.29081 752.205 8.2378 753.657 8.46187C755.443 8.72863 757.324 8.59259 759.142 8.39785C769.749 7.27213 780.363 6.30115 791.04 6.50922C793.895 6.56524 796.449 5.6876 798.787 4.1084L798.596 4.34047C802.917 6.34116 807.761 4.27111 812.098 6.05573C811.953 7.40552 811.187 8.29649 809.871 8.38452C805.89 8.65128 801.829 9.31017 797.932 8.86735C793.804 8.40052 790.072 9.18212 785.451 10.5986C788.906 12.2632 791.758 12.9194 795.101 12.802C805.791 12.4286 816.505 12.0018 827.189 12.3005C842.822 12.738 858.439 13.7757 874.058 14.5893C875.731 14.6747 876.138 15.1522 880.492 20.4366C878.572 21.8958 876.259 20.4927 874.013 21.3596C874.629 22.0585 875.152 22.7068 875.744 23.2883C875.981 23.4921 876.287 23.5963 876.599 23.5791C886.869 22.5974 896.382 26.444 906.219 28.1913C908.798 28.6475 911.58 28.6155 913.282 31.6085C914.561 33.8519 917.303 31.8592 919.292 32.3954C919.804 32.5315 920.514 33.081 920.573 33.5131C920.716 34.5962 919.802 35.0497 918.904 34.943C915.247 34.5108 911.583 34.1027 907.97 33.4251C904.043 32.7126 900.049 32.429 896.06 32.5795C895.146 32.6062 893.798 32.3741 893.38 32.8676C889.855 37.1357 885.729 35.1804 881.668 34.2201C879.851 33.7879 878.042 33.5185 876.691 35.2284C876.272 36.01 876.474 36.4715 877.27 36.6555C879.658 37.2077 882.028 37.8613 884.437 38.2908C887.705 38.8723 891.139 38.6696 893.428 41.9934C894.023 42.8577 896.333 42.4362 897.786 42.8497C899.679 43.3832 898.17 46.1068 899.593 46.5309C906.83 48.6863 912.921 53.7334 920.557 54.8004C924.886 55.398 928.757 57.2839 932.783 58.7351C936 59.8902 935.973 59.9542 933.77 63.9476C935.933 67.1487 940.798 65.2147 943.2 68.8399C940.787 71.3234 938.911 74.3965 935.158 75.4902C934.354 75.7276 933.035 76.3892 933.014 76.8933C932.813 82.9114 928.711 80.7587 925.736 80.2465C921.581 79.5316 917.491 78.6459 913.138 79.1448C913.808 81.9911 915.665 82.4499 917.488 82.6526C920.225 82.9594 922.991 83.0288 925.75 83.1622C926.823 83.2008 927.876 83.4685 928.837 83.9471C929.798 84.4258 930.645 85.1041 931.32 85.9364C932.266 87.0488 932.392 88.0518 930.875 88.7694C928.693 89.8044 926.709 90.6554 926.779 93.8538C926.819 95.7211 924.562 96.7001 922.635 96.7881C921.126 96.8468 919.6 96.3107 918.078 96.2546C917.247 96.22 915.971 96.348 915.639 96.8709C914.66 98.4154 916.523 98.5994 917.14 99.4557C918.928 101.929 921.136 103.478 924.055 104.425C926.599 105.247 928.947 106.658 932.148 108.16C928.09 110.889 924.431 112.66 920.198 113.279C919.34 113.405 917.92 114.231 918.408 114.845C922.142 119.54 916.638 119.849 915.255 122.17C914.451 123.528 916.596 126.417 912.843 126.409C911.296 126.409 909.433 127.321 909.358 128.861C909.267 131.088 911.535 131.293 913.245 131.723C914.135 131.944 915.097 131.968 915.925 132.331C916.309 132.502 916.553 133.243 916.636 133.761C916.751 134.489 916.293 134.937 915.547 135.007C913.116 135.228 910.677 135.396 908.248 135.671C906.94 135.818 906.511 137.343 907.498 138.378C908.699 139.638 910.806 140.112 910.899 142.321C908.278 145.045 904.375 143.489 900.62 145.538C906.16 146.776 911.017 147.907 915.899 148.942C925.768 151.041 935.847 151.834 945.77 153.677C951.046 154.656 956.634 155.587 961.918 152.709C964.215 151.455 965.96 153.015 967.335 154.813L965.864 154.736L967.241 154.899C969.305 153.256 972.066 154.187 974.224 153.053C975.832 152.212 977.079 150.489 978.733 150.036C981.55 149.262 978.733 153.448 981.113 153.274C984.769 153.007 988.141 155.085 991.857 154.341C994.626 153.778 997.325 153.866 999.536 156.099C1001.22 157.793 1003.52 157.3 1005.6 157.657C1008.13 158.095 1008.28 159.114 1006.3 161.376C1004.59 163.318 1004.25 167.658 1005.88 169.645C1006.87 170.848 1008.09 169.797 1009.21 169.445C1010.65 168.989 1011.97 169.685 1011.39 171.046C1010.01 174.327 1011.98 176.914 1012.62 179.771C1013.11 181.959 1013.27 184.039 1010.8 185.266C1010.26 185.533 1009.63 185.901 1009.4 186.392C1006.13 193.184 1000.49 196.044 992.548 195.833C995.845 201.672 1000.22 204.799 1006.2 205.754C1006.96 205.874 1007.37 206.319 1007.18 206.983C1007.03 207.517 1006.81 208.266 1006.38 208.49C1004.01 209.752 1000.94 210.011 1000.01 213.228C1000.08 213.423 1000.12 213.57 1000.16 213.714L1000.01 213.041C1001.05 213.66 1002.86 214.17 1002.96 214.909C1003.21 216.611 1002.68 218.91 1000.91 219.444C994.744 221.292 992.465 225.995 991.527 231.584C990.801 236.158 988.382 240.296 984.745 243.185C981.896 245.471 979.707 248.467 978.4 251.868C976.596 256.462 972.439 259.337 969.793 263.339C969.211 264.219 967.791 264.704 966.657 265.043C958.146 267.583 949.992 270.885 942.318 275.404C940.538 276.452 938.201 276.524 936.19 277.239C935.44 277.506 934.295 278.4 934.349 278.899C934.737 282.532 932.877 283.391 929.636 283.967C925.484 284.695 925.398 289.355 923.227 292.06C923.133 292.178 923.785 293.253 924.232 293.378C926.283 293.952 928.371 294.632 930.475 294.752C939.79 295.286 949.121 295.536 958.436 296.086C962.692 296.337 966.925 297.014 971.165 297.537C973.902 297.873 976.645 298.668 979.363 298.572C983.405 298.428 987.018 298.425 990.557 301.2C993.186 303.256 997.062 302.437 1000.39 302.733C1002.54 302.925 1003.76 303.424 1003.82 305.83C1003.84 306.46 1005.1 307.663 1005.6 307.572C1009.63 306.847 1007.77 311.307 1009.99 312.342C1011.2 312.91 1009.83 313.721 1009.07 313.967C1007.82 314.375 1006.35 314.233 1005.79 313.084C1004.04 309.464 1000.89 309.066 997.413 308.738C993.136 308.316 988.819 308.512 984.598 309.32C982.853 309.658 981.017 308.594 978.818 309.853C984.236 312.579 989.337 314.839 995.373 313.663C998.322 313.086 998.858 315.348 999.37 317.442C999.354 317.413 998.925 317.141 998.925 317.141L999.193 317.301C1006.06 320.697 1012.91 324.117 1020.92 323.749C1021.38 323.732 1021.83 323.886 1022.19 324.182C1022.54 324.477 1022.78 324.893 1022.84 325.349C1023.08 326.728 1022.43 327.886 1021.23 328.246C1016.29 329.743 1011.51 331.295 1006.04 329.497C1000.57 327.699 994.652 327.259 988.291 328.526C989.348 329.142 990.476 329.423 990.602 329.943C991.119 332.077 991.723 333.589 994.483 333.195C1000.01 332.394 1005.42 333.579 1011.34 334.275C1009.44 338.62 1006.11 340.253 1002.27 341.357C1000.62 341.832 998.668 340.186 997.285 342.136C998.893 346.071 995.534 343.905 994.558 344.118C992.795 344.508 990.897 344.254 989.066 344.385C987.235 344.516 985.407 344.919 983.576 344.937C981.746 344.956 979.931 344.548 978.103 344.436C975.669 344.286 973.227 344.244 970.367 344.137C973.752 347.829 977.36 349.838 981.984 348.963C986.131 348.178 990.634 349.691 994.481 347.034H994.454C993.789 348.01 993.17 349.024 992.449 349.955C990.918 351.929 986.772 350.739 986.774 354.589C984.362 354.877 981.949 355.071 979.537 355.474C976.653 355.965 977.275 357.654 978.355 359.404L972.037 359.15C972.109 357.886 971.833 356.56 970.501 356.322C967.265 355.744 964.009 355.829 959.532 356.637C964.421 358.683 968.236 358.998 972.09 359.177L978.339 359.417L990.918 361.316C990.35 363.802 988.299 363.672 986.713 363.874C982 364.472 976.795 362.61 972.825 366.734C972.372 367.204 971.988 367.113 971.522 366.441C969.378 363.346 965.971 364.504 963.068 364.04C961.762 363.834 960.636 365.64 961.542 366.427C963.531 368.158 963.641 371.56 967.091 372.045C970.077 372.467 970.428 376.823 974.312 376.847C977.352 376.847 980.371 376.812 983.413 376.721C986.742 376.625 990.093 377.202 995.207 377.636C990.026 379.696 986.399 381.139 982.772 382.577C981.408 383.11 981.432 384.492 980.923 385.511C977.974 383.193 974.717 384.297 971.171 384.532C974.503 386.37 977.69 385.703 980.842 385.396C982.839 383.708 985.131 384.775 986.935 385.396C988.007 385.762 984.949 386.119 985.713 387.288C986.101 387.883 987.227 388.24 988.039 388.277C993.181 388.517 998.327 388.63 1003.47 388.811C1004.39 388.843 1005.33 388.827 1006.2 389.051C1007.07 389.275 1007.99 389.769 1007.52 390.918C1007.34 391.361 1006.74 391.913 1006.3 391.935C1002.94 392.1 999.574 392.284 996.218 392.201C992.318 392.097 988.999 393.21 986.284 396.019L986.453 395.792C981.855 392.591 976.569 393.869 971.294 393.941C972.685 394.517 974.114 395.024 975.452 395.701C975.596 395.769 975.716 395.878 975.8 396.013C975.883 396.147 975.926 396.304 975.922 396.462C975.918 396.621 975.869 396.775 975.779 396.906C975.69 397.037 975.564 397.139 975.417 397.2C972.576 398.294 969.619 398.993 966.544 398.801C962.81 398.55 959.253 399.271 955.737 400.343C955.509 402.64 957.913 402.949 958.656 404.526C959.315 405.923 960.61 406.321 962.454 405.593C967.547 403.547 973.058 403.605 978.433 403.048C981.464 402.733 984.515 402.589 987.546 402.368L987.367 402.232C986.793 403.795 985.681 404.696 984.021 404.899C982.217 405.107 980.338 405.035 978.623 405.534C976.001 406.292 973.38 407.311 972.811 410.544L970.763 410.442L972.771 410.64C977.06 409.447 981.314 407.78 985.935 409.175C980.411 411.125 975.149 414.193 968.954 412.942C966.105 412.368 963.577 413.419 960.912 414.078C958.16 414.761 955.369 414.951 954.152 411.467C953.573 411.571 953.043 411.632 952.512 411.677C952.243 411.665 951.973 411.681 951.708 411.723C951.614 411.752 951.606 412.062 951.56 412.256C952.019 412.256 952.525 412.398 952.922 412.256C953.418 412.072 953.825 411.653 954.262 411.333C947.759 417.325 939.543 417.981 931.191 419.045C931.698 417.178 934.451 417.37 933.797 415.369C933.161 413.433 931.226 412.91 929.465 412.566C928.545 412.44 927.611 412.659 926.846 413.182C925.044 414.497 922.865 414.641 920.919 415.441C918.333 416.508 915.904 417.773 913.089 416.13C912.677 415.887 911.604 415.93 911.481 416.178C909.262 420.328 904.608 419.256 901.25 420.907C901.636 422.631 906.632 421.422 903.866 425.221C903.448 425.794 904.796 427.488 906.297 427.261C910.993 426.557 915.679 425.746 920.287 424.989C921.142 428.126 918.022 429.438 918.008 432.231C919.432 432.594 920.852 433.114 922.313 433.298C924.189 433.522 925.53 432.143 924.859 430.577C923.881 428.307 922.686 426.176 923.787 423.642L923.653 423.503C926.792 426.464 930.154 427.451 934.491 425.818C937.249 424.781 940.415 424.661 943.417 424.463C954.474 423.743 964.609 419.451 975.138 416.663C980.119 415.345 985.364 415.028 990.476 414.188C991.634 413.996 992.746 413.513 993.878 413.166H993.824C993.543 414.31 993.556 415.599 992.017 415.994C987.862 417.061 983.721 418.184 979.569 419.256C976.607 420.022 973.618 420.697 970.678 421.531C970.217 421.662 969.549 422.55 969.654 422.865C969.912 423.694 970.411 424.428 971.088 424.975C972.176 425.776 973.377 425.471 974.497 424.762C979.877 421.345 985.97 420.913 992.795 420.419C986.932 425.848 980.094 427.275 973.321 428.571C967.617 429.665 961.794 430.1 956.034 430.948C953.924 431.26 951.611 431.482 949.855 432.549C947.979 433.664 946.567 433.512 944.819 432.741C941.683 431.354 938.428 430.529 934.992 431.423C934.702 431.512 934.434 431.662 934.207 431.862C933.98 432.063 933.799 432.31 933.676 432.586C933.349 433.653 934.158 434.154 935.07 434.317C937.27 434.712 937.825 435.344 935.646 436.793C934.928 437.27 934.459 438.126 933.874 438.804H933.893L933.282 438.121C932.815 438.753 931.775 442.419 932.043 442.656C932.459 443.024 932.949 443.587 933.405 443.584C939.511 443.563 945.642 443.736 951.716 443.243C954.463 443.019 957.441 442.349 958.149 438.287C958.653 435.352 961.427 434.469 964.633 434.669C968.131 434.891 971.871 435.758 975.031 433.021C975.811 432.343 976.73 433.071 977.325 433.821C978.06 434.76 978.781 435.707 979.668 436.859C976.929 437.956 975.111 440.189 972.12 440.146C968.75 440.098 969.841 443.022 969.209 444.774C967.909 442.427 966.507 440.173 964.164 438.692C961.35 443.376 961.417 443.406 965.85 444C966.989 444.153 968.102 444.483 969.228 444.734C969.764 442.683 971.493 443.021 972.913 443.059C974.975 443.117 973.873 444.718 974.162 445.689C974.248 445.956 976.039 446.223 976.444 445.857C980.392 442.184 984.884 442.013 990.05 442.467C996.7 443.048 1003.41 442.605 1009.93 444.694C1011.69 445.262 1013.89 445.372 1014.65 447.028C1015.43 448.733 1016.04 449.386 1017.91 448.896C1021.54 447.946 1025.15 448.589 1028.79 449.248C1028.6 450.001 1028.16 450.669 1027.54 451.148C1026.93 451.627 1026.17 451.89 1025.39 451.897C1021.23 452.006 1020.35 455.981 1017.72 457.848C1016.5 458.718 1017.23 460.073 1017.32 461.241C1017.43 462.708 1019.05 463.85 1018.04 465.776L1011.61 468.561C1012.15 469.02 1012.52 469.588 1012.82 469.551C1014.63 469.327 1016.41 468.86 1018.22 468.7C1018.95 468.633 1019.73 469.137 1020.48 469.383C1019.99 470.132 1019.47 470.868 1019.02 471.639C1018.9 471.922 1018.83 472.219 1018.8 472.522L1019.08 472.72C1017.9 472.48 1016.67 471.901 1015.55 472.061C1009.49 472.922 1003.47 473.984 997.424 474.947C995.832 475.214 994.502 475.641 994.081 477.479C993.786 478.762 993.567 479.933 995.253 480.256C997.063 480.601 998.932 480.466 1000.67 479.863C1003.35 478.97 1006.14 479.271 1008.84 479.807C1009.52 479.941 1010.23 480.917 1010.53 481.675C1010.89 482.603 1010.16 483.291 1009.41 483.924C1007.03 485.922 1007.06 485.956 1009.17 489.379C1005.68 490.446 1002.03 491.411 1001.44 495.781C995.995 497.731 993.425 503.725 987.498 505.256C984.188 506.112 981.459 508.484 982.879 512.827C983.335 514.222 982.075 514.91 981.376 515.86C980.572 516.948 978.735 517.396 979.006 519.232C981.365 520.565 982.15 518.031 983.705 517.442C984.552 517.119 985.335 516.572 986.203 516.375C987.174 516.161 987.972 516.743 988.399 517.599C988.846 518.503 988.702 519.482 987.763 519.952C985.584 521.046 983.314 521.958 981.137 523.052C980.703 523.27 980.167 524.089 980.279 524.431C980.695 525.663 981.604 524.935 982.424 524.804C983.6 524.617 985.849 523.374 984.367 526.477C983.692 527.891 984.464 529.054 985.93 528.864C990.114 528.331 994.258 527.344 1000.06 528.654C993.843 531.134 987.643 530.596 984.6 535.979L984.914 535.464L984.397 535.731C977.695 537.95 972.46 542.85 966.062 545.713C962.706 547.215 959.629 548.967 955.844 549.391C951.332 549.895 948.009 552.184 946.947 557.05C950.134 557.215 952.595 555.129 955.49 554.67C956.092 554.543 956.72 554.616 957.277 554.877C957.833 555.139 958.289 555.575 958.572 556.119C959.377 557.493 959.948 558.811 959.02 560.355C957.707 562.537 955.602 564.308 953.445 564.813C949.606 565.706 945.963 567.747 942.186 567.958C937.852 568.195 934.354 570.959 929.937 570.793C927.677 570.708 926.307 572.807 927.221 575.416C926.891 575.334 926.581 575.261 926.27 575.189C927.307 574.533 925.819 575.099 927.025 575.342C931.448 575.715 935.831 576.126 939.718 573.09C940.522 572.469 942.334 572.244 943.17 572.722C946.537 574.648 949.494 573.255 952.745 572.404C963.028 569.737 973.398 567.398 984.037 564.861C980.789 569.977 978.465 572.29 973.822 572.677C966.518 573.285 959.948 577.033 952.378 576.771C948.585 576.641 945.285 579.924 942.101 582.264L942.275 582.04C939.664 581.389 940.602 585.39 937.855 585.241C936.383 585.158 934.804 586.959 933.274 587.909L933.569 588.271C933.41 587.223 932.671 586.703 931.738 586.762C928.039 586.996 925.53 589.25 923.342 591.937C923.023 592.329 922.753 593.054 922.911 593.444C923.069 593.833 923.782 594.188 924.273 594.215C928.012 594.407 931.108 593.108 933.402 590.091L933.116 590.485C934.936 590.403 936.753 590.261 938.573 590.256C939.731 590.256 941.192 590.043 941.626 591.51C942.747 595.29 945.631 594.377 948.268 594.108C950.949 593.841 953.562 592.716 956.35 593.366C957.46 593.633 958.763 593.238 959.712 594.532C959.583 596.69 957.605 595.938 956.412 596.309C954.958 596.732 953.475 597.053 951.976 597.269C950.204 597.549 948.4 597.634 946.636 597.952C945.154 598.219 943.709 598.685 942.253 599.086C940.873 599.464 939.501 599.873 938.117 600.27C939.828 603.794 945.151 602.514 946.25 606.638H946.28C946.084 606.247 945.748 605.944 945.338 605.789C944.928 605.635 944.475 605.639 944.068 605.803C941.205 606.758 938.501 607.913 937.303 603.479C937.083 602.679 934.786 602.201 933.384 601.972C931.845 601.721 930.829 603.679 930.942 606.342C930.951 606.419 930.951 606.497 930.942 606.574L930.658 606.163C930.932 606.3 931.217 606.415 931.51 606.507C933.716 607.022 937.281 605.933 937.294 609.393C937.308 612.437 933.858 612.429 931.577 612.941C914.891 616.676 898.339 621.237 881.215 622.595C873.324 623.222 865.4 624.668 857.436 623.193C855.63 622.859 853.67 622.544 852.049 623.553C850.483 624.529 849.355 624.353 847.931 623.347C847.315 622.91 846.007 622.734 845.393 623.081C838.893 626.839 831.795 625.871 824.809 625.866C816.548 625.866 808.284 625.895 800.022 625.866C797.567 625.866 795.136 625.668 792.742 626.546C791.624 626.957 790.263 627.346 789.169 627.079C778.383 624.505 767.266 625.719 756.389 624.145C753.081 623.667 749.655 623.972 746.283 623.982C741.383 623.996 736.365 624.74 731.616 623.929C726.775 623.102 721.842 626.124 717.229 623.179C711.479 624.297 705.756 623.433 699.999 623.131C694.224 622.827 688.436 622.889 682.669 623.315C673.196 624.028 663.742 625.068 654.299 626.148C639.054 627.89 623.832 629.795 608.596 631.601C594.308 633.292 580 634.701 565.664 635.957C558.427 636.592 551.166 638.222 543.848 638.945C536.854 639.636 529.871 640.545 522.859 640.964C514.013 641.498 505.237 642.981 496.244 642.127C491.846 641.708 487.361 643.909 482.667 643.712C477.521 643.49 472.393 643.685 467.22 644.701C462.786 645.574 458.06 645.336 455.157 640.433C453.94 638.368 451.466 638.403 449.324 638.918C447.183 639.433 448.343 643.229 445.202 643.095C443.084 643.007 440.948 643.405 438.82 643.586L438.857 643.661C438.112 642.954 437.359 642.516 436.562 643.597L436.611 643.562C435.611 642.858 434.635 642.116 433.598 641.471C433.134 641.18 432.105 640.873 432.081 640.937C429.974 645.371 426.039 644.058 422.514 644.005C415.979 648.668 411.256 643.586 406.267 640.78C404.571 639.822 403.155 638.697 401.314 639.572C397.915 641.172 397.17 635.93 394.098 636.971C391.886 637.72 390.881 640.828 387.82 640.012C386.153 639.566 384.365 639.265 382.714 640.895C383.62 641.279 384.386 641.633 385.174 641.93C386.104 642.276 386.764 642.805 386.514 643.893C386.265 644.981 385.214 645.552 384.485 645.032C379.985 641.831 374.905 643.362 370.212 643.648C367.263 643.826 364.869 647.041 361.146 646.513C357.838 646.046 354.407 646.513 351.041 646.353C347.674 646.192 344.211 645.067 340.991 645.587C330.505 647.286 320.273 644.443 309.897 644.421C302.912 644.405 295.934 643.237 288.941 643.029C271.786 642.524 254.63 642.268 237.488 641.946C235.652 641.911 233.736 641.799 231.985 642.228C222.102 644.653 212.104 643.669 202.1 643.762C192.322 643.856 182.572 644.331 172.858 642.847C164.961 645.408 156.96 643.488 149.125 642.847C134.114 641.626 119.229 643.648 104.274 643.41C93.6087 643.25 82.9322 643.928 72.2583 643.229C69.6797 643.061 67.5728 642.287 65.7044 640.172L71.4166 633.711C67.2029 633.089 63.5305 631.801 59.6009 632.895C58.4161 633.225 58.5877 634.509 59.4856 633.674C60.3836 632.839 60.1129 635.493 60.1853 634.271L60.1799 634.258ZM573.317 17.5397L573.344 16.8594C573.344 16.8594 573.54 17.3529 573.54 17.3236L573.022 17.0568L573.317 17.5397ZM915.038 575.286L915.352 574.701L915.183 575.147C915.657 575.107 916.116 576.481 916.604 575.163C916.062 575.216 915.521 575.264 915.038 575.286ZM944.821 325.56L942.69 327.032L945.154 327.833C943.731 329.305 941.87 328.961 940.12 329.001C935.952 329.092 931.778 329.084 927.612 329.23C926.272 329.276 925.586 330.231 925.503 331.535C923.538 331.036 921.584 330.324 918.853 331.341C921.431 332.378 923.409 331.725 925.385 331.458C925.971 331.305 926.564 331.182 927.162 331.09C931.901 330.591 935.692 333.296 939.916 334.608C944.205 335.942 948.78 332.424 953.289 333.621C960.157 335.446 967.118 333.797 974.007 334.616C976.862 334.958 978.411 333.832 981.314 331.562C980.778 331.357 980.242 331.028 979.66 330.962C976.889 330.58 974.178 331.733 971.554 331.663C969.002 331.597 966.56 329.655 963.947 329.076C961.333 328.497 958.468 328.123 955.817 328.46C952.102 328.926 948.526 328.267 944.891 328.075C944.795 327.307 944.701 326.536 944.588 325.795L945.175 325.691L944.821 325.56ZM959.546 379.781L959.765 379.955L959.323 380.061C958.945 379.621 958.645 379.016 958.165 378.789C957.774 378.605 957.168 378.872 956.659 378.938C957.021 379.245 957.339 379.712 957.755 379.819C958.307 379.96 958.932 379.819 959.548 379.781H959.546ZM947.317 385.599C945.73 387.04 943.138 385.612 941.286 388.12C943.339 388.021 944.964 388.101 946.489 387.755C946.885 387.667 946.979 386.247 947.293 385.532C948.352 385.991 949.384 386.538 950.483 386.866C950.866 386.978 951.659 386.661 951.823 386.333C952.131 385.741 951.646 385.362 950.836 385.415C949.668 385.474 948.494 385.538 947.317 385.599ZM174.936 613.058C172.66 612.648 170.4 610.871 167.966 612.728C170.473 613.755 172.839 613.104 175.204 612.965C174.898 614.635 175.204 615.947 177.286 615.67C178.554 615.499 179.597 614.603 178.981 613.269C178.364 611.935 177.005 612.517 175.895 612.789C175.608 612.877 175.324 612.938 174.936 613.058ZM157.333 608.523C156.931 607.787 157.031 607.634 157.633 608.065L156.979 608.411C154.585 606.894 152.422 604.093 149.433 606.766C151.427 610.148 155.103 605.675 157.333 608.532V608.523ZM88.505 626.981C86.9931 625.609 85.7494 623.651 83.2512 624.345C82.8223 624.465 82.1789 625.244 82.2728 625.559C82.6936 627.181 84.3287 627.511 85.5912 628.074C86.768 628.608 87.8884 628.146 88.3656 626.77C89.4619 627.226 90.5368 627.957 91.66 628.037C92.3086 628.082 93.5363 627.143 93.6247 626.53C93.8928 624.585 92.3837 624.988 91.231 625.196C90.0784 625.404 88.6846 625.292 88.505 626.989V626.981ZM896.682 310.549L896.277 310.843L896.859 310.637C896.497 311.518 896.43 312.622 897.339 312.924C900.614 313.991 900.641 313.919 906.302 311.323C903.179 309.338 899.845 311.07 896.69 310.557L896.682 310.549ZM872.209 311.616L851.735 312.374C853.132 313.284 853.627 313.887 854.121 313.884C859.597 313.865 865.076 313.809 870.544 313.577C871.12 313.55 871.643 312.326 872.193 311.659C875.082 311.126 877.221 313.324 879.843 313.721C880.157 313.769 880.883 313.092 880.888 312.745C880.888 312.259 880.516 311.502 880.1 311.32C877.457 310.184 874.879 312.065 872.217 311.627L872.209 311.616ZM893.385 432.402C894.068 432.986 894.725 434.021 895.441 434.085C902 434.661 907.956 432.485 913.84 429.908C909.859 429.374 905.906 428.825 902.113 430.22C899.325 431.247 895.821 429.7 893.581 432.621C882.365 431.938 882.365 431.938 873.093 435.253C880.599 435.456 887.255 435.83 893.406 432.413L893.385 432.402ZM382.21 628.421C381.798 628.059 381.367 627.721 380.918 627.407C380.853 627.365 380.381 627.768 380.381 627.816C380.883 628.883 381.652 628.562 382.429 628.17C380.612 630.15 378.264 631.059 375.551 631.246C385.359 632.975 395.103 632.388 404.954 632.15C402.212 631.307 399.877 629.67 396.786 629.576C391.953 629.44 387.107 628.824 382.228 628.432L382.21 628.421ZM151.251 613.376C146.235 615.265 146.235 615.265 141.544 619.823C151.216 619.823 160.611 621.008 170.226 618.756C168.784 616.828 167.24 617.54 165.865 617.388C163.988 617.182 162.691 616.484 161.699 614.496C160.359 611.829 159.362 611.957 157.41 614.648C156.928 615.323 156.973 616.436 155.802 616.308C154.143 616.126 154.084 614.899 154.333 613.64C154.714 611.733 153.489 611.607 152.189 611.773C151.307 611.882 150.267 612.191 151.253 613.459L151.251 613.376ZM888.161 425.882C888.126 424.871 888.52 423.948 889.485 423.73C891.254 423.329 893.302 423.583 894.789 422.764C895.62 422.305 893.972 420.39 895.824 418.747C898.952 415.97 902.193 414.393 906.573 414.166C902.102 411.832 898.057 414.935 894.004 414.324C887.815 413.39 882.052 416.847 875.846 415.823C874.704 415.636 874.013 417.213 873.753 418.464C873.445 419.939 874.227 420.55 875.508 421.11C877.361 421.91 878.918 421.593 880.749 420.918C883.298 419.976 883.381 420.2 882.497 423.812C884.81 425.872 883.714 426.426 881.325 426.661C880.521 426.741 879.755 427.363 879.023 427.819C878.865 427.918 878.854 428.395 878.915 428.662C878.977 428.929 879.216 429.281 879.398 429.294C882.368 429.5 885.378 429.726 887.858 427.63C888.198 427.339 888.059 426.491 888.147 425.898C890.155 426.336 892.152 426.824 894.173 427.179C894.709 427.272 895.323 426.987 895.875 426.803C895.977 426.75 896.064 426.675 896.13 426.582C896.195 426.489 896.238 426.382 896.253 426.269C896.253 426.002 896.157 425.554 895.985 425.49C893.355 424.495 890.82 426.29 888.179 425.893L888.161 425.882ZM941.339 373.598C938.659 370.93 938.637 370.679 941.492 369.82C943.2 369.306 944.923 368.951 946.213 367.604L945.945 367.393C949 369.858 952.273 368.569 955.474 367.849C955.793 367.777 956.088 366.825 956.074 366.289C956.036 365.711 955.78 365.169 955.359 364.771C954.884 364.418 954.31 364.222 953.718 364.211C943.288 363.778 914.314 365.696 900.968 367.577C899.845 367.734 898.62 367.043 897.467 367.105C894.945 367.252 892.441 367.638 889.93 367.926C888.372 371.632 886.383 370.154 884.443 368.337C883.065 367.049 881.784 367.438 880.307 368.172C877.543 369.546 874.71 370.874 871.705 368.764L871.34 369.031L871.943 368.935C872.919 369.546 873.833 370.306 874.892 370.733C876.677 371.461 877.036 372.453 876.015 374.102C876.085 374.246 876.155 374.39 876.227 374.534C876.09 374.305 875.959 374.075 875.822 373.846C877.674 375.236 878.977 377.031 882.132 375.838C886.29 374.265 890.911 374.275 895.398 373.819C904.067 372.936 912.996 373.12 921.294 369.818C922.985 369.134 924.865 369.077 926.594 369.658C928.301 370.191 929.848 371.4 931.794 370.669L931.513 370.85C929.063 374.134 925.457 374.398 921.796 374.585C918.769 374.729 915.73 374.814 912.725 375.166C910.181 375.462 909.414 377.495 908.994 379.589C907.562 377.54 905.906 375.879 903.123 375.999C902.223 376.039 901.3 375.879 900.413 375.999C898.564 376.241 896.124 374.315 894.988 377.215C894.452 378.589 896.328 379.298 899.99 379.293C902.995 379.293 906.002 379.445 909.007 379.53C910.999 377.7 913.494 378.197 915.85 378.079C917.922 377.973 920.118 378.717 922.034 377.546C924.517 376.041 927.127 376.313 929.859 376.305C933.132 376.305 936.405 375.681 939.669 375.284C940.699 375.158 941.05 374.345 941.224 373.443C946.317 373.846 951.485 374.721 956.581 371.085C950.863 370.045 946.068 371.546 941.358 373.616L941.339 373.598ZM878.73 613.869L878.524 613.672C878.709 615.414 879.481 616.521 881.44 616.193C886.56 615.339 891.691 614.678 896.907 614.832C899.097 614.896 901.078 614.12 902.954 613.002C903.614 612.61 903.917 612.17 903.346 611.581C902.934 611.191 902.384 610.978 901.815 610.988C900.687 611.076 899.577 611.383 898.558 611.581C896.87 609.495 898.851 606.632 896.703 604.858C891.645 607.307 885.981 607.582 880.746 607.921C875.23 608.276 869.928 608.804 864.714 610.484C861.066 611.658 857.581 611.874 854.319 609.399C853.348 608.672 852.312 608.035 851.226 607.494C849.068 606.403 848.277 607.126 847.698 610.644C847.178 610.8 846.666 610.983 846.165 611.191C845.983 611.276 845.897 611.557 845.757 611.749C845.985 611.874 846.227 612.133 846.436 612.109C847.527 611.981 847.612 611.229 847.438 610.354C848.588 611.327 849.569 612.344 851.421 611.53C853.595 610.575 854.665 612.389 855.783 613.848C853.906 616.123 851.472 615.417 849.03 615.39C841.793 615.31 834.4 614.651 827.318 615.774C819.963 616.937 812.766 617.017 805.442 616.601C803.298 616.478 801.154 616.622 799.009 616.75C798.094 616.806 797.196 617.02 796.355 617.383C796.105 617.517 795.886 617.702 795.71 617.925C795.535 618.148 795.408 618.405 795.337 618.679C795.281 618.924 795.98 619.626 796.355 619.639C799.111 619.738 801.899 619.973 804.625 619.682C812.771 618.812 821.022 620.186 829.154 618.186C831.985 617.489 835.319 617.919 838.228 618.594C849.266 621.181 860.157 618.786 871.099 618.044C872.311 617.962 873.487 617.415 874.699 617.308C876.943 617.145 877.447 615.075 878.749 613.888L878.73 613.869ZM186.765 614.027C188.813 617.689 191.322 620.037 196.165 619.437C200.682 618.874 205.459 618.572 209.874 619.437C219.089 621.213 228.224 619.391 237.394 619.666C252.405 620.117 267.435 619.519 282.459 619.479C290.745 619.455 299.033 619.682 307.321 619.719C307.696 619.719 308.324 619.007 308.393 618.564C308.463 618.052 308.163 617.364 307.796 616.964C307.428 616.564 306.691 616.033 306.265 616.14C301.99 617.225 297.446 615.387 293.195 617.604C291.763 618.351 289.271 618.348 287.834 617.604C282.186 614.646 275.771 616.942 270.105 614.67C259.884 615.427 250.457 610.444 240.316 610.559C239.456 610.559 238.52 610.129 237.735 609.695C232.822 606.987 227.578 608.342 222.456 608.55C221.496 608.588 220.58 609.972 219.66 610.732L219.7 610.607C219.36 610.099 218.992 609.611 218.596 609.145C214.798 605.181 212.988 605.16 209.463 609.5C208.582 610.588 207.751 611.132 206.539 611.1C203.175 611.028 199.814 610.778 196.452 610.732C193.871 610.698 192.614 609.665 192.431 606.976C192.305 605.266 190.595 605.376 189.628 605.971C188.381 606.755 187.464 608.059 186.446 609.172C186.446 608.497 186.537 608.425 186.735 608.95L186.245 608.785C186.495 610.622 186.743 612.461 186.99 614.302C186.108 614.392 184.653 614.198 184.441 614.616C183.143 617.223 181.055 617.673 178.466 617.404C177.498 617.305 176.171 616.796 175.885 618.487C178.64 620.394 181.607 619.759 184.559 619.287C186.213 619.021 185.84 617.66 186.071 616.601C186.269 615.731 186.548 614.894 186.784 614.045L186.765 614.027ZM222.542 633.02L222.526 633.209C234.955 631.47 247.535 633.764 259.962 631.83C261.034 631.662 262.224 633.335 263.235 631.964C264.103 630.725 264.809 629.38 265.334 627.962C265.677 627.093 265.441 626.052 264.441 625.671C263.297 625.268 262.119 624.969 260.921 624.777C251.207 622.955 241.354 624.06 231.588 623.798C227.444 623.689 222.083 624.124 220.062 629.587L220.148 629.44C219.628 626.885 219.207 624.468 215.551 624.59C210.994 624.742 206.41 624.422 201.84 624.398C199.923 624.398 199.39 625.849 199.082 627.418C198.567 630.059 196.527 629.637 194.793 629.312C193.437 629.045 193.675 628.266 194.737 627.666C195.501 627.234 196.535 626.516 195.388 625.844C193.329 624.638 191.268 623.281 188.537 623.87C180.728 625.553 172.772 624.964 164.964 624.348C160.04 623.958 155.199 624.27 150.323 624.201C149.422 624.188 148.538 624.766 148.79 625.863C148.884 626.284 149.624 626.877 150.055 626.861C155.207 626.698 160.193 628.28 165.506 627.45C171.183 626.562 177.08 627.079 182.881 626.986C185.32 626.948 187.044 627.661 187.017 630.55C187.017 632.137 188.277 632.417 189.547 632.417C193.525 632.454 197.506 632.441 201.486 632.473C203.164 632.486 204.472 632.065 204.815 630.168C204.957 629.384 205.587 628.963 206.051 629.395C209.019 632.158 212.752 631.836 216.36 632.177C216.706 632.209 217.293 633.047 217.215 633.383C217.122 633.653 216.97 633.9 216.77 634.105C216.571 634.311 216.328 634.47 216.06 634.573C215.19 634.826 214.286 634.945 213.38 634.925C186.738 634.855 160.099 634.741 133.457 634.746C131.924 634.746 129.997 633.769 128.244 636.144C132.506 636.173 136.639 635.018 139.845 638.048L139.891 638.195L139.622 638.32C140.327 637.719 141.156 637.277 142.05 637.027C142.944 636.776 143.882 636.722 144.799 636.869C149.283 637.526 153.768 636.547 158.15 636.765C167.074 637.211 175.933 636.555 184.819 636.515C197.069 636.458 209.321 637.011 221.574 637.141C227.375 637.205 233.149 637.421 238.941 637.798C241.689 638.011 244.452 637.718 247.093 636.933C249.551 636.162 252.33 636.419 254.968 636.224C250.253 635.106 245.511 634.997 240.761 634.743C234.687 634.436 228.53 634.698 222.56 633.039L222.542 633.02ZM774.823 618.65C762.511 614.368 751.585 615.267 740.7 616.417C738.681 616.63 736.143 616.601 734.594 619.042C747.615 617.548 760.514 622.64 774.842 618.668L774.823 618.65ZM84.5887 524.697C88.8776 523.769 92.0942 521.624 95.9702 521.32C94.0938 520.934 92.2175 521.163 90.4966 520.744C86.3954 519.747 82.774 521.576 78.9703 522.323C77.5738 522.59 77.1235 523.889 77.0109 525.055C76.8822 526.389 77.7132 527.306 79.1338 527.386C83.0653 527.603 86.9967 527.79 90.9281 527.947C91.7698 527.981 92.0808 527.586 91.8288 526.898C90.0302 524.994 87.1674 526.882 84.6075 524.716L84.5887 524.697ZM946.044 314.14C942.741 313.34 941.431 313.305 940.447 312.724C936.997 310.691 932.673 311.899 929.266 309.49C928.312 308.818 926.913 310.112 926.5 311.27C925.932 312.87 927.248 313.404 928.462 313.588C933.601 314.359 938.707 315.442 946.062 314.159L946.044 314.14ZM169.883 605.509C166.398 605.421 163.913 605.891 163.01 606.787C161.994 607.798 165.023 608.937 169.588 609.871C172.689 610.506 175.458 609.14 178.418 609.156C178.817 609.156 179.49 608.412 179.541 607.963C179.592 607.515 178.981 606.752 178.573 606.686C175.643 606.208 172.703 605.875 169.883 605.509ZM869.957 601.278C872.53 602.135 873.316 602.636 874.085 602.612C879.548 602.455 885.008 602.233 890.463 601.913C891.219 601.871 892.176 601.332 891.696 600.131C884.957 599.227 878.428 600.95 869.946 601.278H869.957ZM925.712 400.247C932.695 401.245 938.278 398.476 944.015 399.281C944.264 399.319 944.921 398.404 944.883 397.977C944.851 397.611 944.044 396.982 943.658 397.032C938.05 397.777 932.252 397.489 925.712 400.247ZM454.12 631.121C452.332 630.216 450.324 631.785 448.209 631.569C446.698 631.417 444.371 631.718 444.513 633.209C444.698 635.178 446.807 634.092 447.906 633.623C450.868 632.358 453.825 632.823 456.819 633.204C457.677 633.313 458.564 633.524 459.395 633.401C459.829 633.337 460.467 632.665 460.481 632.238C460.505 631.766 460.055 631.086 459.612 630.803C457.811 629.648 456.275 632.022 454.12 631.121ZM270.175 636.112C276.144 637.782 282.181 637.523 288.236 636.773L270.175 636.112ZM947.274 392.876C947.223 393.143 947.068 393.442 947.14 393.677C949.301 400.588 949.306 400.586 954.686 395.339C952.035 394.978 950.231 392.223 947.266 392.876H947.274ZM467.541 631.057C471.768 632.169 476.119 631.926 480.494 631.286C476.156 630.945 471.844 629.88 467.541 631.057ZM532.203 629.894C526.99 627.741 523.285 628.645 517.68 631.083C523.62 631.692 527.258 630.182 532.203 629.894ZM472.602 639.286C472.213 638.819 471.889 638.064 471.506 638.035C470.323 637.951 469.134 638.023 467.97 638.248C467.531 638.331 466.898 638.931 466.885 639.315C466.871 639.7 467.394 640.276 467.82 640.567C469.142 641.46 470.584 641.775 471.932 640.668C472.326 640.353 472.425 639.684 472.602 639.286ZM965.756 517.279C970.729 518.079 974.01 516.241 977.406 513.112C970.501 513.779 970.493 513.763 965.756 517.279ZM919.088 336.612C922.554 337.695 926.208 338.148 929.853 337.007L919.088 336.612ZM940.565 380.712C937.439 381.118 934.097 380.056 929.518 381.64C934.276 382.619 937.487 383.641 940.562 380.712H940.565ZM945.138 407.593C946.802 408.927 948.529 408.247 950.217 407.772C951.038 407.543 951.928 407.279 952.565 406.761C953.273 406.19 951.536 405.281 949.866 405.622C948.196 405.963 946.28 405.873 945.135 407.593H945.138ZM849.328 20.3806C855.139 21.5117 855.139 21.5117 858.782 20.466C856.096 19.8124 853.475 19.4443 849.328 20.3806ZM982.716 339.375C982.716 339.317 982.703 339.258 982.697 339.197L977.068 338.991C977.068 339.175 977.068 339.359 977.068 339.541L982.716 339.375ZM869.102 26.5081C872.622 27.5271 875.227 27.8072 878.969 26.9082C875.305 25.7425 872.694 25.5531 869.102 26.5081ZM489.031 636.565C486.021 636.885 484.442 636.101 483.204 637.451C482.807 637.883 482.169 638.459 482.239 638.865C482.351 639.516 483.075 639.574 483.737 639.233C485.064 638.547 486.401 637.886 489.031 636.565ZM918.016 310.987C916.33 309.872 914.51 310.093 912.728 310.261C912.258 310.307 911.527 310.709 911.444 311.062C911.176 312.147 912.092 312.708 912.929 312.948C915.068 313.574 917.062 313.558 918.016 310.987ZM857.471 420.091C856.64 420.231 855.819 420.421 855.011 420.659C854.222 420.926 854.067 421.625 854.743 422.052C855.537 422.507 856.393 422.849 857.284 423.065C858.128 423.308 859.005 423.439 859.629 422.508C860.171 421.694 858.988 420.208 857.482 420.086L857.471 420.091ZM537.444 628.138C539.344 629.936 541.433 628.058 543.376 628.509C543.877 628.624 544.464 628.381 545.014 628.304C544.491 628.109 543.92 627.674 543.456 627.77C541.481 628.165 539.403 626.829 537.444 628.138ZM100.069 611.706C102.513 612.28 103.821 612.61 105.122 612.866C105.336 612.909 105.612 612.632 105.861 612.501C105.513 612.13 105.183 611.463 104.816 611.434C103.647 611.375 102.462 611.543 100.069 611.706ZM841.353 603.274C842.597 603.22 843.498 603.212 844.414 603.132C845.259 603.058 845.548 602.65 845.219 602.049C845.09 601.815 844.886 601.516 844.658 601.452C842.943 600.974 841.219 600.385 839.415 600.988C839.206 601.06 839.024 601.428 838.976 601.684C838.927 601.94 838.976 602.457 839.12 602.516C839.927 602.85 840.79 603.087 841.353 603.274ZM93.4237 287.283C91.9012 287.24 90.6172 287.243 90.3867 288.766C90.2446 289.694 90.7593 290.476 91.8342 290.633C93.5229 290.9 95.6593 289.612 95.1553 288.617C94.8283 287.966 93.8848 287.619 93.4237 287.283ZM839.9 314.108C840.908 313.82 841.943 313.46 842.275 312.203C841.739 312.083 841.19 311.865 840.651 311.867C839.774 311.867 838.863 312.059 838.708 313.129C838.603 313.841 839.075 314.188 839.9 314.108ZM787.654 618.834C785.66 618.239 783.524 617.5 780.822 618.41C783.384 619.813 785.464 619.133 787.654 618.834ZM886.075 405.694C884.574 404.232 882.939 404.627 881.282 405.358C882.786 406.75 884.416 406.449 886.075 405.686V405.694ZM98.9134 532.458L101.012 531.305C100.897 531.108 100.76 530.726 100.677 530.74C99.8709 530.844 99.0729 531.003 98.2889 531.217C98.1656 531.254 98.053 531.751 98.1307 531.959C98.2084 532.167 98.5435 532.228 98.9134 532.45V532.458ZM893.833 589.976L895.339 589.264C895.095 588.794 894.956 588.052 894.586 587.911C893.648 587.556 892.854 588.042 892.691 589.024C892.65 589.264 893.428 589.648 893.833 589.968V589.976ZM135.84 605.312L134.194 605.603C134.446 606.918 135.685 606.923 136.607 607.27C136.859 607.366 137.395 606.819 137.738 606.502C137.8 606.443 137.604 605.923 137.419 605.835C136.906 605.623 136.379 605.448 135.84 605.312ZM520.104 634.367C520.64 635.669 521.532 635.362 522.328 635.234C522.899 635.141 523.454 634.967 524.017 634.823C523.556 634.637 523.103 634.332 522.629 634.29C521.789 634.267 520.948 634.292 520.112 634.367H520.104ZM908.273 399.415C907.2 398.166 905.916 398.574 904.774 398.444C903.97 398.35 903.59 398.726 903.831 399.193C903.917 399.306 904.026 399.398 904.153 399.463C904.279 399.527 904.418 399.563 904.56 399.567C905.761 399.553 906.954 399.471 908.281 399.415H908.273ZM856.096 430.201C858.265 430.511 859.128 430.703 859.994 430.735C860.484 430.748 860.983 430.484 861.476 430.345C860.94 430.188 860.404 429.921 859.852 429.902C859.045 429.881 858.224 430.014 856.096 430.201ZM917.311 401.85L918.858 401.317C918.413 401.074 917.976 400.66 917.518 400.634C917.016 400.602 916.491 400.927 915.976 401.095L917.311 401.85ZM996.789 452.473C997.494 452.337 998.424 452.852 998.896 451.83C998.327 451.675 997.748 451.366 997.193 451.403C996.462 451.454 995.751 451.779 995.03 451.985L996.789 452.473ZM885.137 590.349C884.191 589.344 882.993 589.202 881.762 589.549C881.261 589.688 880.88 590.251 880.443 590.616C880.786 590.987 881.092 591.614 881.483 591.683C882.36 591.816 883.279 591.683 884.177 591.616C884.93 591.536 885.247 591.08 885.14 590.349H885.137ZM909.959 584.625C908.886 584.425 907.09 585.641 907.35 586.423C907.417 586.555 907.511 586.671 907.625 586.766C907.74 586.86 907.872 586.929 908.015 586.97C909.181 587.26 910.366 587.332 910.757 585.876C910.846 585.553 910.243 585.046 909.975 584.625H909.959ZM924.835 440.575C924.401 440.29 923.844 439.668 923.546 439.775C922.739 440.067 922.007 440.533 921.402 441.138C920.981 441.565 921.359 442.075 922.115 442.184C923.46 442.368 924.401 441.885 924.838 440.565L924.835 440.575ZM826.525 313.276C826.736 313.403 826.958 313.51 827.189 313.596C827.458 313.665 827.819 313.785 827.994 313.668C828.46 313.342 828.208 313.134 827.35 313.206L826.525 313.276ZM1009.25 450.296C1008.14 450.093 1007.34 449.829 1006.54 449.837C1006.04 449.837 1005.54 450.248 1005.04 450.475C1005.85 450.709 1006.62 451.075 1007.42 451.128C1007.9 451.152 1008.41 450.688 1009.25 450.285L1009.25 450.296ZM478.593 639.654C478.256 639.317 477.891 639.009 477.502 638.734C477.416 638.68 476.883 639.078 476.907 639.15C477.088 639.609 477.3 640.054 477.542 640.484C477.893 640.201 478.242 639.932 478.593 639.654ZM964.521 393.602C963.716 393.53 962.912 393.335 962.154 393.421C961.272 393.517 961.167 394.159 961.987 394.415C962.709 394.64 963.572 394.416 964.368 394.346C964.424 394.346 964.448 393.975 964.521 393.602ZM947.451 347.386C947.328 347.21 947.223 346.901 947.076 346.882C946.505 346.802 945.888 346.69 945.347 346.826C944.69 346.989 944.843 347.397 945.746 347.509C946.301 347.581 946.883 347.437 947.451 347.389V347.386ZM957.353 354.25L958.87 353.519C958.53 353.145 958.253 352.633 957.83 352.43C957.301 352.185 956.713 352.092 956.133 352.164C955.597 352.238 955.117 352.623 954.611 352.871C954.951 353.249 955.222 353.772 955.648 353.975C956.147 354.215 956.776 354.172 957.353 354.252V354.25ZM908.452 331.151C908.266 330.982 908.058 330.839 907.833 330.727C907.565 330.636 907.139 330.53 907.029 330.655C906.546 331.165 906.798 331.455 907.653 331.373C907.925 331.322 908.192 331.249 908.452 331.154V331.151ZM796.374 424.106L795.683 424.319C795.887 424.445 796.112 424.536 796.347 424.586C796.588 424.56 796.823 424.494 797.042 424.391L796.374 424.106ZM862.814 421.673C862.827 422.345 863.167 422.665 863.803 422.497C864.001 422.444 864.288 421.964 864.261 421.937C863.951 421.63 863.621 421.344 863.275 421.078L862.814 421.673ZM940.801 412.963C940.945 413.11 941.069 413.318 941.23 413.377C941.463 413.454 941.827 413.531 941.972 413.411C942.465 413.009 942.286 412.702 941.532 412.696C941.275 412.745 941.028 412.835 940.801 412.963ZM894.16 404.363C894.425 404.409 894.695 404.426 894.964 404.414C895.031 404.414 895.052 404.075 895.095 403.88C894.829 403.84 894.559 403.829 894.291 403.848C894.213 403.872 894.192 404.187 894.16 404.363ZM117.114 636.493C117.061 636.301 117.055 635.986 116.943 635.941C116.695 635.842 116.42 635.835 116.168 635.92C115.439 636.232 115.522 636.541 116.388 636.675C116.616 636.709 116.87 636.557 117.114 636.493ZM96.71 635.621C96.2758 635.303 95.8683 634.791 95.4019 634.73C94.9355 634.669 94.4343 635.074 93.9491 635.263C94.3672 635.57 94.7532 636.08 95.2143 636.13C95.6753 636.181 96.2088 635.818 96.7047 635.621H96.71ZM87.6928 633.351L87.0494 633.46L87.5507 633.66L87.6928 633.351ZM935.44 577.23C934.333 577.297 933.949 577.969 934.059 578.961C934.089 579.228 934.346 579.692 934.515 579.698C935.509 579.735 936.3 579.252 936.458 578.268C936.512 577.98 935.793 577.574 935.44 577.23ZM329.72 637.12C329.72 636.96 329.744 636.645 329.736 636.643C329.251 636.6 328.763 636.581 328.272 636.56C328.272 636.728 328.248 637.043 328.256 637.045C328.744 637.085 329.234 637.101 329.72 637.12ZM73.8184 508.751C74.1454 508.11 73.9551 507.705 73.2394 507.598C72.9781 507.557 72.7104 507.59 72.4674 507.694C71.9313 507.961 71.9045 508.447 72.513 508.791C72.848 508.972 73.3841 508.777 73.8184 508.751ZM997.038 493.545L995.43 494.079C995.883 494.327 996.333 494.751 996.794 494.767C997.121 494.767 997.467 494.234 997.805 493.938C997.55 493.804 997.293 493.671 997.038 493.535V493.545ZM937.037 326.288C936.809 326.424 936.402 326.555 936.38 326.707C936.297 327.371 936.729 327.641 937.488 327.425C937.746 327.315 937.989 327.172 938.211 327L937.037 326.288ZM545.922 634.463L547.399 633.73C546.946 633.436 546.501 632.929 546.038 632.905C545.574 632.881 545.03 633.335 544.523 633.58L545.922 634.463ZM531.97 634.578C531.74 633.906 531.265 633.7 530.582 634.044C530.317 634.155 530.097 634.349 529.955 634.597C529.7 635.218 530.046 635.688 530.78 635.543C531.217 635.447 531.579 634.914 531.97 634.578ZM957.369 326.584L958.942 325.808C958.473 325.491 958.018 324.957 957.527 324.92C957.037 324.882 956.506 325.341 955.994 325.584L957.369 326.584ZM354.217 632.228C354.029 632.02 353.828 631.62 353.646 631.628C353.109 631.691 352.578 631.804 352.062 631.964C352.247 632.174 352.445 632.572 352.619 632.564C353.16 632.496 353.695 632.384 354.217 632.228ZM945.54 357.872C945.272 357.872 944.848 357.784 944.757 357.915C944.451 358.358 944.781 358.558 945.577 358.368C945.578 358.202 945.563 358.036 945.534 357.872H945.54ZM975.184 315.351C975.028 315.167 974.916 314.898 974.707 314.818C974.439 314.716 974.042 314.644 973.843 314.775C973.264 315.151 973.466 315.506 974.355 315.575C974.615 315.62 974.902 315.442 975.178 315.351H975.184ZM887.89 312.049L886.638 312.003C886.822 312.136 887.031 312.232 887.252 312.286C887.475 312.246 887.69 312.165 887.884 312.049H887.89ZM909.87 338.191L908.339 338.268C908.522 338.442 908.68 338.695 908.897 338.77C909.162 338.843 909.445 338.829 909.701 338.73C909.814 338.695 909.822 338.383 909.875 338.199L909.87 338.191ZM507.524 630.315C506.905 629.36 506.087 629.285 505.203 629.691C504.953 629.806 504.575 630.224 504.626 630.32C505.039 631.214 505.79 631.697 506.755 631.35C507.13 631.23 507.32 630.635 507.54 630.323L507.524 630.315ZM508.186 635.896C507.494 635.095 506.677 635.13 505.846 635.389C505.591 635.469 505.176 635.824 505.208 635.904C505.594 636.869 506.43 637.027 507.299 636.784C507.671 636.691 507.915 636.205 508.202 635.904L508.186 635.896ZM104.374 538.473L104.91 538.833L105.033 538.318L104.374 538.473ZM104.548 535.346L105.25 535.08C105.065 534.914 104.899 534.65 104.69 534.61C104.481 534.57 104.226 534.757 103.993 534.845L104.548 535.346ZM914.947 610.396C914.727 610.321 914.424 610.113 914.298 610.191C913.762 610.519 913.907 610.81 914.679 610.884C914.751 610.89 914.859 610.567 914.947 610.396ZM380.966 636.901L381.531 637.253L381.641 636.752L380.966 636.901ZM204.644 608.454C204.376 608.097 204.129 607.507 203.818 607.465C203.387 607.403 202.896 607.753 202.43 607.926C202.684 608.284 202.904 608.9 203.202 608.937C203.639 608.996 204.135 608.646 204.644 608.454ZM913.832 588.181C913.856 588.405 913.8 588.733 913.926 588.831C914.031 588.916 914.154 588.976 914.286 589.007C914.418 589.039 914.555 589.041 914.687 589.013C915.411 588.711 915.371 588.298 914.582 588.002C914.381 587.941 914.084 588.125 913.832 588.191V588.181ZM263.452 635.984C263.213 635.896 262.916 635.669 262.701 635.73C261.838 635.997 261.811 636.411 262.632 636.763C262.835 636.851 263.192 636.699 263.417 636.557C263.511 636.509 263.446 636.197 263.452 635.994V635.984ZM118.484 596.151C118.068 595.882 117.627 595.652 117.168 595.466C117.018 595.418 116.742 595.746 116.522 595.903C116.946 596.18 117.395 596.419 117.862 596.616C117.993 596.664 118.269 596.317 118.484 596.151ZM947.43 354.41L948.049 354.837L948.204 354.26L947.43 354.41ZM870.499 21.3756C870.381 21.2316 870.271 20.9728 870.11 20.9355C869.949 20.8981 869.689 21.0449 869.475 21.1116C869.627 21.2636 869.761 21.501 869.941 21.541C870.121 21.581 870.335 21.4263 870.488 21.3756H870.499ZM110.724 544.587C110.93 544.683 111.241 544.915 111.324 544.854C111.86 544.446 111.74 544.125 111.016 544.053C110.936 544.053 110.823 544.414 110.724 544.587ZM347.172 631.974C346.963 631.82 346.768 631.566 346.545 631.537C346.323 631.507 346.073 631.707 345.835 631.803C346.033 631.956 346.221 632.212 346.433 632.233C346.644 632.254 346.926 632.084 347.172 631.985V631.974ZM863.028 436.099C863.281 436.221 863.553 436.301 863.832 436.337C863.926 436.337 864.017 435.976 864.1 435.779C863.847 435.659 863.575 435.581 863.296 435.547C863.213 435.558 863.119 435.915 863.028 436.11V436.099ZM559.995 632.19C559.754 632.094 559.4 631.846 559.285 631.924C558.69 632.35 558.851 632.7 559.695 632.772C559.775 632.783 559.899 632.396 559.995 632.19ZM141.343 626.364C141.188 626.159 141.022 625.775 140.882 625.785C140.407 625.853 139.939 625.962 139.483 626.111C139.88 626.377 140.301 626.606 140.74 626.796C140.874 626.842 141.14 626.519 141.343 626.364ZM872.279 428.619L872.236 429.281L873.04 428.998L872.279 428.619ZM982.957 390.492L982.295 390.782L982.971 391.049L982.957 390.492ZM872.804 424.279L872.482 423.652C872.295 423.748 872.115 423.858 871.946 423.983C872.106 424.307 872.286 424.621 872.482 424.925C872.6 424.701 872.715 424.484 872.804 424.279ZM513.898 630.483C513.433 630.247 512.949 630.049 512.451 629.891C512.293 629.854 512.043 630.182 511.837 630.344C512.137 630.641 512.443 631.179 512.743 631.177C513.129 631.169 513.526 630.734 513.898 630.483ZM494.727 637.648C494.8 637.027 494.486 636.88 493.808 637.253C493.776 637.269 493.896 637.744 493.985 637.758C494.236 637.759 494.487 637.721 494.727 637.646V637.648ZM882.867 402.119L883.615 401.877C883.419 401.714 883.242 401.455 883.025 401.415C882.808 401.375 882.55 401.554 882.309 401.637L882.867 402.119ZM981.078 528.544C980.968 528.349 980.899 528.048 980.735 527.987C980.616 527.946 980.49 527.932 980.365 527.946C980.24 527.959 980.119 527.999 980.011 528.064C979.542 528.419 979.714 528.758 980.451 528.864C980.633 528.878 980.861 528.651 981.07 528.542L981.078 528.544ZM972.624 526.143L972.549 526.551L973.149 526.423L972.624 526.143ZM971.699 521.035L971.739 520.485L971.072 520.723L971.699 521.035ZM537.455 18.2626C537.401 18.0625 537.412 17.7771 537.28 17.6784C536.659 17.2062 536.259 17.3769 536.259 18.1212C536.259 18.2732 536.583 18.532 536.776 18.548C536.969 18.564 537.224 18.3533 537.452 18.2492L537.455 18.2626ZM867.601 373.987L868.354 373.72C868.148 373.563 867.955 373.304 867.732 373.275C867.51 373.246 867.236 373.432 866.987 373.526L867.601 373.987ZM962.009 410.493L962.13 409.885L961.325 410.074L962.009 410.493ZM385.812 617.473L385.23 616.812C384.936 617.258 384.683 617.729 384.472 618.22C384.429 618.343 384.874 618.831 385.043 618.804C385.777 618.69 386.027 618.188 385.812 617.473ZM270.44 626.039L270.743 625.548L270.244 625.495L270.44 626.039ZM122.475 598.099C122.301 597.891 122.14 597.536 121.939 597.514C121.738 597.493 121.513 597.808 121.298 597.976C121.473 598.184 121.634 598.539 121.835 598.56C122.036 598.582 122.258 598.267 122.473 598.099H122.475ZM59.9253 276.578L60.2764 276.084L59.7162 276.012L59.9253 276.578ZM577.376 15.587L577.051 15.9925L577.499 16.0912L577.376 15.587ZM108.456 559.357L108.762 558.939L108.322 558.859L108.456 559.357ZM917.512 595.447L917.158 595.981L917.748 596.045L917.512 595.447ZM929.542 434.896C929.4 434.712 929.274 434.405 929.111 434.384C928.947 434.362 928.738 434.616 928.551 434.752C928.693 434.933 928.819 435.24 928.982 435.264C929.146 435.288 929.366 435.029 929.542 434.896ZM56.3709 435.68L55.875 435.104C55.682 435.27 55.3389 435.424 55.3389 435.606C55.3389 435.787 55.631 435.987 55.7972 436.179L56.3709 435.68Z" fill="#ACD8CE"/>
<path d="M81.8091 302.085C85.7146 300.485 89.3735 302.114 93.1986 302.456C92.6625 306.383 86.6662 304.235 87.3015 308.706C84.8193 311.459 81.1363 311.085 78.0081 312.131C75.1453 313.091 72.0708 313.532 69.0525 313.897C66.3116 314.227 63.5316 313.966 60.9011 313.131C56.0761 311.627 51.286 310.533 48.056 316.167C47.788 316.65 46.3673 316.789 45.5819 316.618C44.0647 316.293 44.1532 314.959 44.2255 313.721C44.3408 311.747 45.0297 310.269 47.1018 309.57C52.1358 307.871 57.1778 307.786 62.3244 309.176C63.8604 309.469 65.34 309.8 66.8196 310.13C67.6479 310.315 68.1331 309.938 67.8624 309.143C67.7498 308.807 66.9992 308.439 66.5891 308.49C65.0854 308.677 63.6057 309.023 62.1153 309.33C63.0803 307.66 64.308 306.599 66.4712 306.828C69.4519 307.143 72.4729 307.095 75.4429 307.466C79.8202 308.012 81.3668 305.494 82.0584 301.864L81.8091 302.085Z" fill="#ACD8CE"/>
<path d="M955.769 583.7C962.47 581.755 969.171 579.794 975.888 577.876C977.749 577.342 978.703 578.652 979.51 579.957C980.067 580.853 979.759 582.091 978.738 581.987C971.007 581.251 963.799 584.492 955.769 583.7Z" fill="#ACD8CE"/>
<path d="M1010.31 301.546C1007.04 299.748 1003.39 300.188 999.869 299.145C1003.66 299.193 1007.45 299.217 1011.23 299.294C1014.94 299.369 1014.74 299.454 1016.09 303.893C1016.48 305.171 1018.43 306.027 1015.67 306.561C1014.78 306.696 1013.87 306.725 1012.96 306.649C1009.32 306.497 1009.12 306.105 1010.31 301.546Z" fill="#ACD8CE"/>
<path d="M60.173 634.271C59.905 635.706 60.0738 637.539 59.2375 638.472C58.3556 639.451 56.5141 639.977 55.0827 639.996C50.8877 640.057 46.6873 639.764 42.3181 639.604C42.881 636.77 45.3122 637.056 46.6337 637.024C49.0462 636.965 49.2392 634.66 50.8261 633.964L50.7564 633.929C55.8735 637.499 55.8723 637.499 60.1799 634.258L60.173 634.271Z" fill="#ACD8CE"/>
<path d="M933.909 438.617C935.955 438.083 937.984 437.47 940.051 437.043C944.519 436.123 948.987 435.48 953.721 438.516C946.765 441.399 940.356 440.538 933.928 438.625L933.909 438.617Z" fill="#ACD8CE"/>
<path d="M986.607 580.802C991.804 576.992 997.597 576.723 1003.34 576.267C1004.23 576.198 1005.14 576.475 1005.28 577.43C1005.33 577.828 1004.68 578.617 1004.2 578.764C998.431 580.436 992.464 580.434 986.607 580.802Z" fill="#ACD8CE"/>
<path d="M946.235 606.629C949.315 606.362 949.655 602.417 952.376 601.945C954.963 601.497 957.654 601.598 960.302 601.55C961.487 601.526 962.675 601.726 963.859 601.817L963.64 601.612C963.854 602.543 963.707 603.452 962.771 603.796C957.453 605.752 952.033 607.205 946.267 606.624C946.265 606.637 946.235 606.629 946.235 606.629Z" fill="#ACD8CE"/>
<path d="M69.1884 601.94C63.4682 602.929 57.8659 601.644 52.202 600.446C56.5122 600.4 60.8198 600.342 65.1301 600.318C66.7036 600.318 68.0438 600.865 69.0035 602.185L69.1884 601.94Z" fill="#ACD8CE"/>
<path d="M101.643 582.389C99.4987 580.548 97.0138 579.862 94.1966 579.846C92.1889 579.846 90.023 580.284 87.5275 578.635C91.0979 577.101 94.2824 577.416 97.3596 577.568C100.204 577.701 101.536 579.582 101.616 582.37L101.643 582.389Z" fill="#ACD8CE"/>
<path d="M1003.92 152.679C1006.01 151.148 1008.09 149.569 1010.25 148.102C1010.49 147.984 1010.76 147.927 1011.03 147.938C1011.3 147.949 1011.56 148.026 1011.8 148.163C1012.16 148.465 1012.46 149.369 1012.26 149.689C1011.34 151.188 1010.41 152.765 1009.15 153.957C1007.14 155.878 1005.4 155.016 1003.92 152.679Z" fill="#ACD8CE"/>
<path d="M54.5591 456.426C53.1519 457.013 51.7768 457.715 50.3266 458.16C48.0911 458.846 46.842 458.219 46.1638 456.008C45.9306 455.253 45.9655 454.108 46.4024 453.543C46.6989 453.213 47.0638 452.95 47.4719 452.774C47.8801 452.598 48.3217 452.511 48.7666 452.521C51.3881 452.788 53.0741 454.5 54.3688 456.656C54.3742 456.645 54.5591 456.426 54.5591 456.426Z" fill="#ACD8CE"/>
<path d="M54.4195 320.843C50.1307 322.356 47.9863 323.18 45.7749 323.852C45.3111 323.994 44.3542 323.732 44.1666 323.383C43.6305 322.316 44.7697 322.049 45.3755 321.673C47.6512 320.275 49.9967 321.246 54.4195 320.843Z" fill="#ACD8CE"/>
<path d="M996.732 352.214L1005.29 352.529C1003.34 354.509 1001.07 353.407 999.107 353.884C998.341 354.074 997.41 353.596 996.555 353.423L996.732 352.214Z" fill="#ACD8CE"/>
<path d="M77.8626 532.049C75.2785 532.646 72.6517 533.246 69.7138 531.9C72.6919 530.182 75.2598 531.545 77.8626 532.049Z" fill="#ACD8CE"/>
<path d="M90.8928 308.772C92.1098 306.905 93.5948 305.632 95.9858 306.689C96.2242 306.819 96.4289 307.003 96.5834 307.226C96.7379 307.448 96.838 307.704 96.8758 307.972C96.8758 308.45 96.4281 309.239 96.0287 309.343C94.2917 309.781 92.4985 310.082 90.8928 308.772Z" fill="#ACD8CE"/>
<path d="M963.884 565.685C963.867 563.302 965.401 562.505 967.341 562.977C968.998 563.377 970.491 564.455 972.057 565.236L972.258 565.164L963.68 565.471L963.884 565.685Z" fill="#ACD8CE"/>
<path d="M963.003 557.482C965.244 553.244 965.244 553.243 970.546 555.575C967.919 556.994 965.743 557.965 963.003 557.482Z" fill="#ACD8CE"/>
<path d="M95.2551 571.795C95.4686 571.44 95.797 571.167 96.1866 571.022C96.5762 570.876 97.0038 570.867 97.3995 570.995C98.5816 571.321 99.3616 572.121 98.9944 573.414C98.914 573.697 97.9999 573.948 97.5121 573.876C96.3407 573.713 95.3328 573.206 95.2551 571.795Z" fill="#ACD8CE"/>
<path d="M62.9627 622.523C63.0813 622.25 63.159 621.961 63.1932 621.666C63.1583 620.599 61.7939 619.463 63.2548 618.516C63.5658 618.316 64.3673 618.649 64.8204 618.932C66.3188 619.855 65.5012 620.866 64.8498 621.866C64.7171 622.133 64.6155 622.414 64.5469 622.704L64.8847 622.437L62.6812 622.325L62.9627 622.523Z" fill="#ACD8CE"/>
<path d="M450.435 19.8068L451.931 20.7458C451.454 21.0579 450.987 21.6021 450.494 21.6314C449.581 21.6617 448.669 21.5373 447.797 21.2633C447.438 21.1592 447.208 20.6071 446.918 20.2576C447.179 20.1299 447.454 20.0341 447.738 19.9722C448.658 19.8895 449.564 19.8548 450.435 19.8068Z" fill="#ACD8CE"/>
<path d="M963.854 601.828C965.789 600.963 967.706 600.048 969.678 599.277C970.099 599.115 971.067 599.333 971.204 599.632C971.708 600.753 970.643 601.137 969.92 601.436C967.891 602.268 965.789 602.433 963.658 601.644L963.854 601.828Z" fill="#ACD8CE"/>
<path d="M32.1425 360.432C32.8662 360.747 33.6811 361.062 34.4531 361.46C34.5747 361.537 34.6765 361.641 34.7505 361.764C34.8245 361.887 34.8686 362.026 34.8793 362.169C34.8364 362.857 34.3915 362.996 33.665 362.729C32.8341 362.428 31.9575 362.244 31.1319 361.929C30.9308 361.852 30.7137 361.249 30.7405 361.23C31.1936 360.94 31.6616 360.674 32.1425 360.432Z" fill="#ACD8CE"/>
<path d="M908.299 39.4272C909.122 39.7553 909.956 40.0567 910.76 40.4195C911.187 40.6427 911.599 40.894 911.993 41.1718C911.417 41.2748 910.835 41.3452 910.251 41.3825C908.808 41.3985 908.029 40.8223 908.516 39.2484L908.299 39.4272Z" fill="#ACD8CE"/>
<path d="M908.517 39.253C907.056 39.325 905.598 39.4264 904.137 39.4611C903.28 39.4798 902.974 39.0929 903.333 38.5274C903.42 38.4267 903.53 38.3484 903.654 38.2992C903.777 38.2499 903.911 38.2312 904.044 38.2446C905.451 38.6208 906.839 39.0449 908.26 39.4531C908.3 39.4264 908.517 39.253 908.517 39.253Z" fill="#ACD8CE"/>
<path d="M468.787 19.1957L461.399 20.0279C464.552 17.4351 466.76 19.8305 468.765 19.177L468.787 19.1957Z" fill="#ACD8CE"/>
<path d="M982.856 432.549C982.703 432.679 982.497 433.005 982.32 432.986C981.57 432.914 981.517 432.543 982.208 432.053C982.422 431.938 982.648 431.848 982.883 431.786C982.883 432.015 982.867 432.25 982.856 432.549Z" fill="#ACD8CE"/>
<path d="M69.0043 602.164C69.7066 602.537 70.4625 602.844 71.0843 603.322C71.3524 603.522 71.3283 604.082 71.4408 604.479C71.1916 604.546 70.9262 604.696 70.6956 604.656C70.572 604.63 70.4551 604.578 70.3526 604.505C70.2501 604.431 70.1643 604.337 70.1006 604.229C69.7628 603.487 69.4894 602.713 69.1919 601.942C69.1892 601.94 69.0043 602.164 69.0043 602.164Z" fill="#ACD8CE"/>
<path d="M915.136 420.902L915.855 421.196C915.509 421.462 915.198 421.796 914.809 421.948C914.139 422.215 913.598 421.895 913.81 421.398C913.936 421.1 914.673 421.057 915.136 420.902Z" fill="#ACD8CE"/>
<path d="M986.506 571.305C987.39 571.468 988.307 571.537 989.149 571.823C989.669 572.002 990.074 572.508 990.529 572.866C990.122 573.25 989.779 573.778 989.294 573.989C988.269 574.434 986.975 575.291 986.288 573.722C986.02 573.079 986.527 572.087 986.685 571.252L986.506 571.305Z" fill="#ACD8CE"/>
<path d="M996.594 294.101C995.56 294.234 994.718 294.458 993.914 294.397C993.453 294.362 993.027 293.864 992.574 293.578C993.378 293.426 994.166 293.146 994.957 293.173C995.444 293.194 995.9 293.69 996.594 294.101Z" fill="#ACD8CE"/>
<path d="M987.584 402.244C988.713 402.033 989.836 401.767 990.975 401.641C991.487 401.585 992.473 401.769 992.489 401.921C992.639 403.386 991.417 402.754 990.835 402.738C989.707 402.706 988.589 402.369 987.434 402.135C987.405 402.108 987.584 402.244 987.584 402.244Z" fill="#ACD8CE"/>
<path d="M614.634 8.46956L612.742 8.18413C613.16 6.71701 614.385 6.81305 615.482 6.91974C615.835 6.95442 616.127 7.60262 616.446 7.96807L614.634 8.46956Z" fill="#ACD8CE"/>
<path d="M631.798 12.5639C630.894 11.4062 629.98 10.2538 629.117 9.07209C629.074 9.01607 629.361 8.58926 629.559 8.51991C629.827 8.43188 630.363 8.44521 630.398 8.56258C630.91 9.86433 631.355 11.1954 631.819 12.5212L631.798 12.5639Z" fill="#ACD8CE"/>
<path d="M1011.34 417.611C1010.74 417.787 1010.21 418.075 1009.69 418.053C1009.26 418.035 1008.85 417.656 1008.43 417.435C1008.96 417.288 1009.48 417.018 1010 417.032C1010.44 417.04 1010.86 417.384 1011.34 417.611Z" fill="#ACD8CE"/>
<path d="M81.4261 556.799C81.7987 555.732 82.7127 555.732 83.5893 555.764C84.4658 555.796 84.7714 556.26 84.2809 556.743C83.8317 557.132 83.2975 557.411 82.7208 557.559C82.0185 557.778 81.5655 557.45 81.4261 556.799Z" fill="#ACD8CE"/>
<path d="M1000.85 419.477L999.383 418.973C999.809 418.81 1000.24 418.506 1000.66 418.519C1001.15 418.535 1001.64 418.826 1002.13 418.997L1000.85 419.477Z" fill="#ACD8CE"/>
<path d="M924.326 420.261C923.522 420.261 922.67 420.435 921.914 420.243C921.11 420.035 921.11 419.376 921.914 419.277C922.718 419.178 923.495 419.464 924.28 419.616C924.323 419.828 924.338 420.045 924.326 420.261Z" fill="#ACD8CE"/>
<path d="M987.845 288.885C987.595 288.475 987.347 288.064 987.1 287.653C987.594 287.515 988.1 287.426 988.612 287.386C988.786 287.386 988.963 287.8 989.148 288.027L987.845 288.885Z" fill="#ACD8CE"/>
<path d="M993.915 412.987C995.06 412.971 996.21 413.006 997.352 412.928C998.183 412.87 998.467 413.142 998.075 413.875C997.995 414.029 997.502 414.08 997.244 414.011C996.124 413.709 995.022 413.347 993.885 412.995C993.875 412.987 993.915 412.987 993.915 412.987Z" fill="#ACD8CE"/>
<path d="M822.357 4.52118C822.58 4.41003 822.82 4.33869 823.068 4.31044C823.823 4.37179 823.992 4.67055 823.496 4.99597C823.258 5.08314 822.995 5.07259 822.765 4.96664C822.588 4.90262 822.491 4.66789 822.357 4.52118Z" fill="#ACD8CE"/>
<path d="M70.4767 589.428L69.702 588.345C70.1994 588.231 70.7064 588.163 71.2165 588.142C71.4175 588.142 71.6052 588.513 71.7981 588.713L70.4767 589.428Z" fill="#ACD8CE"/>
<path d="M85.5908 595.735L84.4596 594.748C84.9099 594.529 85.3924 594.097 85.7998 594.153C86.2073 594.209 86.6362 594.729 87.049 595.047L85.5908 595.735Z" fill="#ACD8CE"/>
<path d="M942.087 582.26C942.853 581.881 943.588 581.375 944.4 581.164C945.212 580.953 946.059 581.217 946.399 582.132C946.48 582.346 946.322 582.85 946.153 582.916C945.644 583.119 944.998 583.388 944.545 583.234C943.756 582.967 943.068 582.404 942.301 581.999C942.261 582.036 942.087 582.26 942.087 582.26Z" fill="#ACD8CE"/>
<path d="M101.863 551.154L102.476 551.512C102.265 551.621 102.048 551.821 101.838 551.816C101.629 551.81 101.431 551.589 101.23 551.466L101.863 551.154Z" fill="#ACD8CE"/>
<path d="M974.04 550.989C973.772 551.08 973.418 551.322 973.236 551.234C972.534 550.893 972.552 550.418 973.279 550.101C973.419 550.072 973.564 550.075 973.703 550.109C973.842 550.143 973.972 550.208 974.083 550.298C974.187 550.383 974.064 550.754 974.04 550.989Z" fill="#ACD8CE"/>
<path d="M43.5873 503.957C43.6409 503.362 43.716 502.767 43.7374 502.173C43.7642 501.442 44.1154 501.092 44.8284 501.247C44.9307 501.305 45.0166 501.387 45.0781 501.487C45.1395 501.587 45.1744 501.701 45.1796 501.818C45.1266 502.108 44.9863 502.375 44.7775 502.583C44.362 503.013 43.8902 503.384 43.4372 503.794L43.5873 503.957Z" fill="#ACD8CE"/>
<path d="M897.98 36.8927C897.517 37.0687 897.029 37.4262 896.597 37.3675C896.166 37.3088 895.75 36.834 895.329 36.5672C895.812 36.3938 896.313 36.0471 896.769 36.0978C897.224 36.1484 897.578 36.6072 897.98 36.8927Z" fill="#ACD8CE"/>
<path d="M220.959 15.6054L221.65 15.6827C221.42 15.6827 221.187 15.6987 220.954 15.6827C220.72 15.6667 220.493 15.6347 220.262 15.6081L220.959 15.6054Z" fill="#ACD8CE"/>
<path d="M185.825 19.6947L186.2 19.9881L185.423 19.9534L185.825 19.6947Z" fill="#ACD8CE"/>
<path d="M1002.33 376.99C1001.81 377.257 1001.3 377.726 1000.79 377.726C1000.27 377.726 999.812 377.233 999.327 376.955C999.833 376.702 1000.34 376.246 1000.85 376.248C1001.35 376.251 1001.84 376.723 1002.33 376.99Z" fill="#ACD8CE"/>
<path d="M52.4207 620.424L51.0054 619.383C51.5415 619.159 52.0776 618.724 52.5896 618.775C53.1015 618.826 53.5036 619.378 53.9593 619.711L52.4207 620.424Z" fill="#ACD8CE"/>
<path d="M39.4377 334.011C38.6336 334.123 37.6713 334.544 37.0575 334.278C36.3097 333.923 35.7602 332.805 36.5214 332.029C37.2827 331.253 38.0118 331.875 38.4889 332.672C38.7917 333.176 39.1107 333.67 39.4216 334.168L39.4377 334.011Z" fill="#ACD8CE"/>
<path d="M994.508 346.946C995.404 346.991 996.302 346.996 997.189 347.098C997.648 347.191 998.097 347.33 998.529 347.511C998.041 347.618 997.524 347.887 997.076 347.799C996.195 347.621 995.35 347.244 994.484 346.954L994.508 346.946Z" fill="#ACD8CE"/>
<path d="M104.016 307.364C103.581 307.588 103.15 307.807 102.716 308.025C102.529 307.641 102.366 307.245 102.228 306.841C102.228 306.806 102.74 306.483 102.887 306.556C103.29 306.786 103.668 307.057 104.016 307.364Z" fill="#ACD8CE"/>
<path d="M50.6189 299.429L50.6323 299.853L50.0746 299.655L50.6189 299.429Z" fill="#ACD8CE"/>
<path d="M956.881 567.632C957.136 567.56 957.444 567.365 957.634 567.437C958.401 567.76 958.438 568.237 957.715 568.579C957.53 568.67 957.12 568.523 956.946 568.352C956.804 568.221 956.881 567.88 956.881 567.632Z" fill="#ACD8CE"/>
<path d="M798.812 4.03824C798.322 4.2383 797.84 4.57174 797.336 4.60375C796.615 4.66511 796.315 4.21428 796.599 3.61142C796.686 3.52198 796.794 3.45634 796.914 3.42083C797.033 3.38532 797.16 3.38114 797.282 3.4087C797.749 3.64878 798.159 4.00089 798.606 4.28899L798.812 4.03824Z" fill="#ACD8CE"/>
<path d="M972.057 565.236C972.592 564.717 972.555 564.301 971.948 563.986C971.844 564.191 971.613 564.439 971.664 564.597C971.739 564.821 972.018 564.978 972.232 565.165C972.175 565.193 972.117 565.217 972.057 565.236Z" fill="#ACD8CE"/>
<path d="M107.512 583.293C105.561 582.995 103.607 582.694 101.65 582.392C101.637 582.382 101.625 582.372 101.615 582.36C103.491 582.653 105.518 582.277 107.244 583.427C107.273 583.419 107.512 583.293 107.512 583.293Z" fill="#ACD8CE"/>
<path d="M101.872 297.619C101.904 298.062 101.934 298.508 101.963 298.953C101.912 298.524 101.864 298.094 101.813 297.662L101.872 297.619Z" fill="#ACD8CE"/>
<path d="M947.421 585.807C947.06 586.074 946.706 586.559 946.387 586.538C946.027 586.514 945.698 586.042 945.357 585.761C945.556 585.575 945.794 585.201 945.947 585.228C946.455 585.377 946.948 585.571 947.421 585.807Z" fill="#ACD8CE"/>
<path d="M979.421 594.234C979.641 594.143 979.885 593.94 980.073 593.986C980.767 594.146 980.848 594.519 980.266 594.909C980.121 595.002 979.767 594.888 979.577 594.765C979.459 594.687 979.47 594.418 979.421 594.234Z" fill="#ACD8CE"/>
<path d="M50.8261 633.964L49.0025 634.023L50.7233 633.932C50.7589 633.937 50.7943 633.947 50.8261 633.964Z" fill="#ACD8CE"/>
<path d="M758.903 6.58875L758.294 6.29534C758.556 6.08259 758.835 5.89169 759.128 5.72455C759.165 5.70588 759.396 6.0713 759.538 6.25801L758.903 6.58875Z" fill="#ACD8CE"/>
<path d="M608.857 13.6551L610.127 13.8365C609.664 13.7725 609.2 13.7112 608.707 13.6285C608.683 13.6098 608.857 13.6551 608.857 13.6551Z" fill="#ACD8CE"/>
<path d="M986.682 571.262L985.851 571.476C986.049 571.441 986.245 571.404 986.473 571.345C986.54 571.311 986.61 571.283 986.682 571.262Z" fill="#ACD8CE"/>
<path d="M923.824 423.462C924.417 423.477 925.011 423.45 925.601 423.382C926.405 423.235 926.963 423.451 926.738 423.894C926.601 424.161 925.81 424.265 925.365 424.174C924.805 424.059 924.293 423.673 923.73 423.374L923.824 423.462Z" fill="#ACD8CE"/>
<path d="M978.7 287.565C978.968 287.493 979.26 287.298 979.474 287.368C980.31 287.634 980.369 288.072 979.632 288.405C979.493 288.435 979.348 288.434 979.209 288.402C979.07 288.37 978.94 288.307 978.828 288.219C978.703 288.12 978.74 287.792 978.7 287.565Z" fill="#ACD8CE"/>
<path d="M964.335 292.655L965.08 292.546L964.935 293.053L964.335 292.655Z" fill="#ACD8CE"/>
<path d="M959.929 290.345C959.99 290.516 960.049 290.684 960.108 290.855L959.275 290.527L959.929 290.345Z" fill="#ACD8CE"/>
<path d="M41.1889 434.095C41.0361 433.86 40.8833 433.625 40.7279 433.393C41.2089 433.221 41.7052 433.093 42.2102 433.012C42.3657 433.012 42.556 433.412 42.7302 433.628L41.1889 434.095Z" fill="#ACD8CE"/>
<path d="M62.9087 624.286L61.4988 623.395L62.9627 622.523L62.6943 622.328V624.462L62.9087 624.286Z" fill="#ACD8CE"/>
<path d="M438.813 643.599C438.076 643.583 437.341 643.567 436.604 643.565L436.556 643.61L438.85 643.674L438.813 643.599Z" fill="#ACD8CE"/>
<path d="M993.572 287.904C993.744 288.096 993.912 288.291 994.081 288.483C993.883 288.648 993.674 288.955 993.491 288.939C993.309 288.923 993.148 288.592 992.98 288.406L993.572 287.904Z" fill="#ACD8CE"/>
<path d="M39.4218 334.157L39.0036 334.784C39.1323 334.55 39.2717 334.315 39.4165 334.045C39.4379 334.011 39.4218 334.157 39.4218 334.157Z" fill="#ACD8CE"/>
<path d="M577.38 0.666807C577.313 0.586777 577.249 0.504084 577.182 0.421387L577.38 0.666807Z" fill="#ACD8CE"/>
<path d="M577.18 0.426592L576.499 0.834748C576.357 0.359909 576.641 0.301225 577.365 0.656021L577.18 0.426592Z" fill="#ACD8CE"/>
<path d="M644.364 9.07476L643.751 9.26682L643.828 8.71729L644.364 9.07476Z" fill="#ACD8CE"/>
<path d="M583.78 8.79986C583.298 9.92539 582.767 8.38112 583.619 9.24527C583.85 9.47731 584.081 9.08259 583.386 8.95723C583.514 8.89701 583.646 8.84446 583.78 8.79986Z" fill="#ACD8CE"/>
<path d="M533.195 10.665L533.463 10.9905L533.023 10.8091C533.078 10.7582 533.135 10.7101 533.195 10.665Z" fill="#ACD8CE"/>
<path d="M194.007 38.5462C192.847 38.9489 193.471 37.5779 193.436 38.7756C193.418 39.2024 193.973 39.0983 193.68 38.3995C193.659 38.3808 194.007 38.5462 194.007 38.5462Z" fill="#ACD8CE"/>
<path d="M1014.17 189.948L1013.63 190.396C1013.48 190.218 1013.21 190.026 1013.23 189.863C1013.24 189.7 1013.55 189.562 1013.72 189.412L1014.17 189.948Z" fill="#ACD8CE"/>
<path d="M40.3578 505.784L40.473 506.386C40.4906 506.167 40.5238 505.95 40.5721 505.736C40.5989 505.746 40.3578 505.784 40.3578 505.784Z" fill="#ACD8CE"/>
<path d="M963.691 565.471C963.764 565.535 963.833 565.605 963.895 565.679C963.822 565.615 963.754 565.545 963.691 565.471Z" fill="#ACD8CE"/>
<path d="M933.259 587.9C933.208 588.759 933.154 589.618 933.103 590.477C933.103 590.477 933.387 590.082 933.401 590.085C933.46 589.482 933.505 588.871 933.553 588.263L933.259 587.9Z" fill="#ACD8CE"/>
<path d="M986.315 395.919L986.822 395.653C986.716 395.64 986.609 395.64 986.503 395.653L986.315 395.919Z" fill="#ACD8CE"/>
<path d="M1018.8 472.525C1020.03 472.464 1018.82 473.592 1019.27 472.472C1019.4 472.146 1018.96 472.072 1019.07 472.707C1019.07 472.723 1018.8 472.525 1018.8 472.525Z" fill="#ACD8CE"/>
<path d="M43.4372 503.794C42.2015 504.117 41.0432 504.554 40.3811 505.784C40.357 505.784 40.599 505.746 40.5721 505.736C41.8454 505.634 43.1313 505.523 43.5817 503.962C43.5372 503.904 43.4874 503.848 43.4372 503.794Z" fill="#ACD8CE"/>
<path d="M254.876 628.458C254.587 628.896 254.388 629.472 253.981 629.752C253.177 630.302 252.332 630.144 251.866 629.253C251.536 628.626 251.901 628.207 252.587 627.989C253.464 627.708 254.225 627.749 254.876 628.458Z" fill="#ACD8CE"/>
<path d="M220.079 629.599C220.883 629.194 221.663 628.658 222.521 628.434C222.966 628.319 223.861 628.629 224.014 628.967C224.282 629.557 223.692 629.997 222.91 629.882C222.017 629.749 221.138 629.527 220.208 629.391C220.16 629.458 220.117 629.527 220.079 629.599Z" fill="#ACD8CE"/>
<path d="M246.546 629.282L245.865 628.215C246.086 628.095 246.325 628.011 246.573 627.967C246.824 628.002 247.069 628.077 247.297 628.189L246.546 629.282Z" fill="#ACD8CE"/>
<path d="M222.56 633.039L222.899 633.703C222.899 633.703 222.575 633.281 222.561 633.254C222.553 633.183 222.552 633.11 222.56 633.039Z" fill="#ACD8CE"/>
<path d="M204.481 613.541L205.127 613.875C204.98 614.019 204.773 614.312 204.698 614.283C204.381 614.126 204.079 613.941 203.795 613.73L204.481 613.541Z" fill="#ACD8CE"/>
<path d="M219.688 610.724C219.196 610.557 218.691 610.432 218.178 610.351C217.727 610.36 217.277 610.42 216.838 610.527C217.008 610.453 217.189 610.408 217.374 610.396C217.642 610.428 217.894 610.604 218.157 610.617C218.672 610.644 219.189 610.601 219.706 610.593C219.741 610.599 219.688 610.724 219.688 610.724Z" fill="#ACD8CE"/>
<path d="M878.749 613.888C879.245 613.552 879.723 613.192 880.24 612.89C880.502 612.736 880.799 612.652 881.103 612.645C881.326 612.645 881.543 612.842 881.763 612.951C881.296 613.098 880.835 613.272 880.361 613.381C879.769 613.517 879.163 613.597 878.552 613.696C878.541 613.69 878.749 613.888 878.749 613.888Z" fill="#ACD8CE"/>
<path d="M865.125 614.619L864.929 614.066L865.468 614.144L865.125 614.619Z" fill="#ACD8CE"/>
<path d="M946.231 367.621L945.623 367.696C945.754 368.229 945.875 368.139 945.974 367.429C945.966 367.411 946.231 367.621 946.231 367.621Z" fill="#ACD8CE"/>
<path d="M931.806 370.689C931.839 370.871 931.873 371.052 931.906 371.223C931.777 371.111 931.637 371.001 931.525 370.876C931.615 370.809 931.709 370.746 931.806 370.689Z" fill="#ACD8CE"/>
<path d="M151.277 613.464C151.129 613.938 150.979 614.411 150.832 614.885C149.851 614.085 151.389 614 151.258 613.413C151.269 613.386 151.277 613.464 151.277 613.464Z" fill="#ACD8CE"/>
</svg>
