<svg width="227" height="16" viewBox="0 0 227 16" fill="none" xmlns="http://www.w3.org/2000/svg">
<path d="M42.6182 4.49504C42.6182 2.07207 40.7882 0.233948 37.6649 0.233948H32.1133V15.7661H33.433V8.79792H37.3921L42.891 15.7661H44.4042L38.879 8.70601C39.9414 8.56981 40.9125 8.06337 41.6035 7.28512C42.2946 6.50687 42.6562 5.51242 42.6182 4.49504ZM33.433 7.69504V1.34518H37.6473C40.0756 1.34518 41.3161 2.70705 41.3161 4.52011C41.3161 6.33316 40.0756 7.69504 37.6473 7.69504H33.433Z" fill="white"/>
<path d="M125.426 6.82612H115.361V0.233948H114.076V15.7661H115.361V7.92899H125.426V15.7661H126.71V0.233948H125.426V6.82612Z" fill="white"/>
<path d="M192.045 13.2261L181.197 0H180.695V15.7661H181.989V2.82402L192.819 16H193.338V0.233943H192.045V13.2261Z" fill="white"/>
<path d="M161.102 0L159.122 1.8799C157.898 0.899004 156.403 0.271537 154.814 0.0716243C153.226 -0.128288 151.611 0.107708 150.159 0.751731C148.707 1.39575 147.48 2.42089 146.622 3.70604C145.765 4.99118 145.312 6.48263 145.318 8.00418C145.314 9.44166 145.712 10.8544 146.471 12.0982L147.447 11.1791C146.937 10.1825 146.675 9.08747 146.682 7.97911C146.649 7.08498 146.807 6.19372 147.146 5.35919C147.486 4.52467 148 3.76422 148.658 3.12382C149.316 2.48342 150.104 1.97636 150.974 1.63331C151.844 1.29026 152.778 1.11834 153.72 1.12794C155.382 1.11744 156.991 1.67835 158.251 2.70705L144.491 15.7661H146.312L148.151 14.0282C149.368 15.038 150.866 15.6934 152.465 15.9161C154.064 16.1388 155.697 15.9192 157.168 15.2837C158.639 14.6482 159.886 13.6237 160.76 12.3327C161.634 11.0417 162.098 9.53895 162.096 8.00418C162.101 6.50949 161.669 5.04289 160.847 3.76815L159.897 4.66214C160.457 5.69501 160.744 6.84219 160.733 8.00418C160.772 9.30661 160.41 10.5917 159.691 11.7013C158.972 12.8109 157.927 13.6968 156.684 14.2498C155.442 14.8029 154.057 14.999 152.698 14.8142C151.34 14.6293 150.069 14.0715 149.04 13.2094L162.923 0H161.102Z" fill="white"/>
<path d="M94.5001 4.49505C94.5245 3.45495 94.1319 2.44487 93.4018 1.66927C92.6716 0.893664 91.6584 0.410475 90.5673 0.317505L89.4763 1.34518C91.9046 1.34518 93.1452 2.70706 93.1452 4.52012C93.1452 6.33317 91.9046 7.69505 89.4763 7.69505H85.2796V5.33056L83.9951 6.5504V15.741H85.2796V8.79792H89.274L94.7728 15.7661H96.2861L90.7609 8.70602C91.8232 8.56982 92.7943 8.06337 93.4854 7.28513C94.1764 6.50688 94.5381 5.51242 94.5001 4.49505Z" fill="white"/>
<path d="M9.22922 1.14465L8.29662 2.03029C9.49506 2.5396 10.5048 3.37898 11.195 4.43965C11.8853 5.50032 12.2242 6.73341 12.1678 7.97912C12.1678 11.6721 9.52835 14.6632 4.61021 14.6632H1.28452V8.68095L0 9.90915V15.7577H4.61021C10.3378 15.7577 13.5051 12.3739 13.5051 7.97076C13.5733 6.56056 13.2046 5.16232 12.4446 3.94906C11.6846 2.7358 10.5667 1.76078 9.22922 1.14465Z" fill="white"/>
<path d="M218.853 0L210.715 15.7661H212.052L218.853 2.64856L225.636 15.7661H227L218.853 0Z" fill="white"/>
</svg>
